<?xml version="1.0" encoding="UTF-8" standalone="no"?>
<!DOCTYPE svg PUBLIC "-//W3C//DTD SVG 1.1//EN"
"http://www.w3.org/Graphics/SVG/1.1/DTD/svg11.dtd">
<svg xmlns="http://www.w3.org/2000/svg"
xmlns:xlink="http://www.w3.org/1999/xlink" xml:space="preserve"
width="1464pt" height="2070pt"
viewBox="0 0 1464 2070">
<g font-family="sans-serif" font-weight="bold">
<g transform="translate(0,0.25624) scale(0.49962) translate(3661.49437,7580.7465)" stroke="#773dde" fill="none">
<path d="M-813.813,-3496.6129 L-2806.5684,-3496.6129 -2806.5684,-7522.7965 -813.813,-7522.7965 z" fill="#773dde" stroke="none"/>
</g><g transform="translate(0,0.25624) scale(0.49962) translate(3661.49437,7580.7465)" stroke="#fff6e8" fill="none">
<path d="M-829.053,-3511.8529 L-829.053,-7507.5565 -2791.3284,-7507.5565 -2791.3284,-6192.7916 -2806.5684,-6192.7916 -2806.5684,-4797.4598 -2791.3284,-4797.4598 -2791.3284,-3511.8529 z" fill="#fff6e8" stroke="none"/>
</g><g transform="translate(0,0.25624) scale(0.49962) translate(3661.49437,7580.7465)" stroke="#773dde" stroke-width="1.80135" fill="none">
<path d="M-1860.9626,-4791.2231 L-2633.0445,-4785.4695 -2633.134,-4797.4712 -1861.052,-4803.2248 z" fill="#773dde" stroke="none"/>

<path d="M-1753.0903,-5154.3091 L-1765.0923,-5154.3091 -1765.0923,-5946.7517 -1753.0903,-5946.7517 z" fill="#773dde" stroke="none"/>

<path d="M-1849.052,-3511.8519 L-1861.054,-3511.8519 -1861.054,-4803.2248 -1849.052,-4803.2248 z" fill="#773dde" stroke="none"/>

<path d="M-1466.8446,-6928.0568 L-1478.8466,-6928.0568 -1478.8466,-7120.0393 -1466.8446,-7120.0393 z M-1466.8446,-7218.0578 L-1478.8466,-7218.0578 -1478.8466,-7508.0588 -1466.8446,-7508.0588 z" fill="#773dde" stroke="none"/>

<path d="M-829.0427,-6939.5575 L-829.052,-6927.5555 -1478.8466,-6928.0568 -1478.8373,-6940.0588 z" fill="#773dde" stroke="none"/>

<path d="M-829.052,-6194.5079 L-1478.846,-6194.5079 -1478.846,-6244.5099 -829.052,-6244.5099 z" fill="#773dde" stroke="none"/>

<path d="M-1466.8446,-6389.5079 L-1478.8466,-6389.5073 -1478.8745,-6928.8762 -1466.8725,-6928.8768 z" fill="#773dde" stroke="none"/>

<path d="M-1466.844,-5591.5555 L-1478.846,-5591.5555 -1478.846,-5671.5575 -1466.844,-5671.5575 z" fill="#773dde" stroke="none"/>

<path d="M-1178.844,-6053.5555 L-1478.846,-6053.5555 -1478.846,-6065.5575 -1178.844,-6065.5575 z" fill="#773dde" stroke="none"/>

<path d="M-1318.9519,-6244.5079 L-1330.9539,-6244.5079 -1330.9539,-6261.5208 -1318.9519,-6261.5208 z M-1318.9519,-6359.1313 L-1330.9539,-6359.1313 -1330.9539,-6389.5099 -1318.9519,-6389.5099 z" fill="#773dde" stroke="none"/>

<path d="M-1452.1453,-6377.5079 L-1478.846,-6377.5079 -1478.846,-6389.5099 -1452.1453,-6389.5099 z M-828.8934,-6377.5079 L-1355.8594,-6377.5079 -1355.8594,-6389.5099 -828.8934,-6389.5099 z" fill="#773dde" stroke="none"/>

<path d="M-1178.844,-5671.5555 L-1478.846,-5671.5555 -1478.846,-5683.5575 -1178.844,-5683.5575 z" fill="#773dde" stroke="none"/>

<path d="M-1466.844,-4990.5555 L-1478.846,-4990.5555 -1478.846,-5043.7495 -1466.844,-5043.7495 z M-1466.844,-5143.7493 L-1478.846,-5143.7493 -1478.846,-5355.5575 -1466.844,-5355.5575 z" fill="#773dde" stroke="none"/>

<path d="M-1287.3561,-6065.5555 L-1299.3581,-6065.5555 -1299.3581,-6068.3478 -1287.3561,-6068.3478 z M-1287.3561,-6191.7176 L-1299.3581,-6191.7176 -1299.3581,-6194.5099 -1287.3561,-6194.5099 z" fill="#773dde" stroke="none"/>

<path d="M-1466.844,-5683.5555 L-1478.846,-5683.5555 -1478.846,-6053.5575 -1466.844,-6053.5575 z" fill="#773dde" stroke="none"/>

<path d="M-1178.844,-5579.5555 L-1478.846,-5579.5555 -1478.846,-5591.5575 -1178.844,-5591.5575 z" fill="#773dde" stroke="none"/>

<path d="M-1178.844,-5591.5555 L-1190.846,-5591.5555 -1190.846,-5671.5575 -1178.844,-5671.5575 z" fill="#773dde" stroke="none"/>

<path d="M-1466.844,-5459.5555 L-1478.846,-5459.5555 -1478.846,-5579.5575 -1466.844,-5579.5575 z" fill="#773dde" stroke="none"/>

<path d="M-1178.844,-5447.5555 L-1478.846,-5447.5555 -1478.846,-5459.5575 -1178.844,-5459.5575 z" fill="#773dde" stroke="none"/>

<path d="M-1178.844,-5355.5555 L-1478.846,-5355.5555 -1478.846,-5367.5575 -1178.844,-5367.5575 z" fill="#773dde" stroke="none"/>

<path d="M-1466.844,-5367.5555 L-1478.846,-5367.5555 -1478.846,-5447.5575 -1466.844,-5447.5575 z" fill="#773dde" stroke="none"/>

<path d="M-1178.844,-5367.5555 L-1190.846,-5367.5555 -1190.846,-5447.5575 -1178.844,-5447.5575 z" fill="#773dde" stroke="none"/>

<path d="M-1378.844,-5142.3091 L-1478.846,-5142.3091 -1478.846,-5154.3111 -1378.844,-5154.3111 z" fill="#773dde" stroke="none"/>

<path d="M-1378.844,-5042.3091 L-1390.846,-5042.3091 -1390.846,-5142.3111 -1378.844,-5142.3111 z" fill="#773dde" stroke="none"/>

<path d="M-1177.9672,-4992.3091 L-1477.9692,-4992.3091 -1477.9692,-5042.3111 -1177.9672,-5042.3111 z" fill="#773dde" stroke="none"/>

<path d="M-1466.844,-4612.301 L-1478.846,-4612.301 -1478.846,-4815.1942 -1466.844,-4815.1942 z" fill="#773dde" stroke="none"/>

<path d="M-1178.844,-4815.1922 L-1478.846,-4815.1922 -1478.846,-4865.1942 -1178.844,-4865.1942 z" fill="#773dde" stroke="none"/>

<path d="M-829.052,-4600.3091 L-1478.846,-4600.3091 -1478.846,-4612.3111 -829.052,-4612.3111 z" fill="#773dde" stroke="none"/>

<path d="M-1469.0328,-3698.6389 L-1469.4803,-3511.8232 -1481.4822,-3511.8519 -1481.0347,-3698.6677 z M-1466.844,-4612.2823 L-1468.699,-3837.9472 -1480.701,-3837.9761 -1478.846,-4612.3111 z" fill="#773dde" stroke="none"/>

<path d="M-1178.844,-5683.5555 L-1190.846,-5683.5555 -1190.846,-6053.5575 -1178.844,-6053.5575 z" fill="#773dde" stroke="none"/>

<path d="M-1177.9672,-5010.5767 L-1189.9692,-5010.5592 -1190.846,-5612.3761 -1178.844,-5612.3935 z" fill="#773dde" stroke="none"/>

<path d="M-816.9275,-3971.0413 L-1466.7214,-3971.0413 -1466.7214,-3983.0433 -816.9275,-3983.0433 z" fill="#773dde" stroke="none"/>

<path d="M-2670.3749,-6192.7976 L-2791.3294,-6192.7976 -2791.3294,-6202.7996 -2670.3749,-6202.7996 z" fill="#773dde" stroke="none"/>

<path d="M-2591.3274,-4787.4692 L-2791.3294,-4787.4692 -2791.3294,-4797.4712 -2591.3274,-4797.4712 z" fill="#773dde" stroke="none"/>

<path d="M-2670.3749,-4797.4692 L-2680.3769,-4797.4692 -2680.3769,-6192.7996 -2670.3749,-6192.7996 z" fill="#773dde" stroke="none"/>

<path d="M-1287.1555,-4868.7517 L-1287.158,-4865.1922 -1297.16,-4865.1992 -1297.1575,-4868.7587 z M-1287.0689,-4992.3111 L-1287.0714,-4988.7516 -1297.0734,-4988.7587 -1297.0709,-4992.3181 z" fill="#773dde" stroke="none"/>

<path d="M-2008.4904,-5414.9093 L-2094.1355,-5414.9093 -2094.1355,-5424.9113 -2008.4904,-5424.9113 z" fill="#773dde" stroke="none"/>

<path d="M-2084.1335,-5414.9093 L-2094.1355,-5414.9093 -2094.1355,-5503.4344 -2084.1335,-5503.4344 z" fill="#773dde" stroke="none"/>

<path d="M-2008.4904,-5493.4324 L-2094.1355,-5493.4324 -2094.1355,-5503.4344 -2008.4904,-5503.4344 z" fill="#773dde" stroke="none"/>

<path d="M-2008.4904,-5414.9093 L-2018.4924,-5414.9093 -2018.4924,-5503.4344 -2008.4904,-5503.4344 z" fill="#773dde" stroke="none"/>

<path d="M-2008.4904,-6073.4324 L-2094.1355,-6073.4324 -2094.1355,-6083.4344 -2008.4904,-6083.4344 z" fill="#773dde" stroke="none"/>

<path d="M-2008.4904,-6073.4324 L-2018.4924,-6073.4324 -2018.4924,-6161.5291 -2008.4904,-6161.5291 z" fill="#773dde" stroke="none"/>

<path d="M-2008.4904,-6151.5271 L-2094.1355,-6151.5271 -2094.1355,-6161.5291 -2008.4904,-6161.5291 z" fill="#773dde" stroke="none"/>

<path d="M-2084.1335,-6073.4324 L-2094.1355,-6073.4324 -2094.1355,-6161.5291 -2084.1335,-6161.5291 z" fill="#773dde" stroke="none"/>

<path d="M-2008.4904,-6653.9247 L-2097.6983,-6653.9247 -2097.6983,-6663.9267 -2008.4904,-6663.9267 z" fill="#773dde" stroke="none"/>

<path d="M-2008.4904,-6653.9247 L-2018.4924,-6653.9247 -2018.4924,-6747.7628 -2008.4904,-6747.7628 z" fill="#773dde" stroke="none"/>

<path d="M-2008.4904,-6737.7608 L-2097.6983,-6737.7608 -2097.6983,-6747.7628 -2008.4904,-6747.7628 z" fill="#773dde" stroke="none"/>

<path d="M-2087.6963,-6653.9247 L-2097.6983,-6653.9247 -2097.6983,-6747.7628 -2087.6963,-6747.7628 z" fill="#773dde" stroke="none"/>

<path d="M-1591.8168,-6308.8306 L-1794.0459,-6236.734 -1797.4046,-6246.1552 -1595.1756,-6318.2518 z" fill="#773dde" stroke="none"/>
</g><g transform="translate(0,0.25624) scale(0.49962) translate(3661.49437,7580.7465)" stroke="#111111" stroke-width="1.80135" fill="none">
<path d="M-813.813,-3496.6129 L-2806.5684,-3496.6129 -2806.5684,-4797.4598 -2791.3294,-4797.4598 -2791.3294,-4797.4712 -2680.3769,-4797.4712 -2680.3769,-6192.7976 -2791.3284,-6192.7976 -2791.3284,-6192.7916 -2806.5684,-6192.7916 -2806.5684,-7522.7965 -813.813,-7522.7965 z M-2633.0445,-4785.4695 L-2633.0594,-4787.4692 -2791.3284,-4787.4692 -2791.3284,-3511.8529 -1861.054,-3511.8529 -1861.054,-4791.2224 z M-2633.134,-4797.4712 L-1861.054,-4803.2248 -1849.052,-4803.2248 -1849.052,-3511.8529 -1481.4822,-3511.8529 -1481.0347,-3698.6677 -1469.0328,-3698.6389 -1469.4802,-3511.8529 -829.053,-3511.8529 -829.053,-3971.0413 -1466.7214,-3971.0413 -1466.7214,-3983.0433 -829.053,-3983.0433 -829.053,-4600.3091 -1466.8727,-4600.3091 -1468.699,-3837.9472 -1480.701,-3837.9761 -1478.846,-4612.3111 -1478.846,-4865.1942 -1290.0157,-4865.1942 -1297.16,-4865.1992 -1297.1575,-4868.7587 -1287.1555,-4868.7517 -1287.158,-4865.1942 -1178.844,-4865.1942 -1178.844,-4815.1922 -1466.844,-4815.1922 -1466.844,-4612.3111 -829.053,-4612.3111 -829.053,-6194.5079 -1287.3561,-6194.5079 -1287.3561,-6191.7176 -1299.3581,-6191.7176 -1299.3581,-6194.5079 -1478.846,-6194.5079 -1478.846,-6244.5099 -1330.9539,-6244.5099 -1330.9539,-6261.5208 -1318.9519,-6261.5208 -1318.9519,-6244.5099 -829.053,-6244.5099 -829.053,-6377.5079 -1318.9519,-6377.5079 -1318.9519,-6359.1313 -1330.9539,-6359.1313 -1330.9539,-6377.5079 -1355.8594,-6377.5079 -1355.8594,-6389.5099 -829.053,-6389.5099 -829.053,-6927.5555 -1466.8725,-6928.0476 -1466.8446,-6389.5099 -1452.1453,-6389.5099 -1452.1453,-6377.5079 -1478.846,-6377.5079 -1478.846,-6389.5073 -1478.8466,-6389.5073 -1478.8745,-6928.8762 -1478.8466,-6928.8762 -1478.8466,-7120.0393 -1466.8446,-7120.0393 -1466.8446,-6940.0495 -829.053,-6939.5575 -829.053,-7507.5565 -1466.8446,-7507.5565 -1466.8446,-7218.0578 -1478.8466,-7218.0578 -1478.8466,-7507.5565 -2791.3284,-7507.5565 -2791.3284,-6202.7996 -2670.3749,-6202.7996 -2670.3749,-4797.4712 z M-1178.0134,-5042.3111 L-1177.9672,-5042.3111 -1177.9672,-4992.3091 -1287.0689,-4992.3091 -1287.0714,-4988.7516 -1297.0734,-4988.7587 -1297.0709,-4992.3091 -1466.844,-4992.3091 -1466.844,-4990.5555 -1478.846,-4990.5555 -1478.846,-5043.7495 -1466.844,-5043.7495 -1466.844,-5042.3111 -1390.846,-5042.3111 -1390.846,-5142.3091 -1478.846,-5142.3091 -1478.846,-6065.5575 -1299.3581,-6065.5575 -1299.3581,-6068.3478 -1287.3561,-6068.3478 -1287.3561,-6065.5575 -1178.844,-6065.5575 -1178.844,-5612.3935 z M-1190.0155,-5042.3111 L-1190.4718,-5355.5555 -1466.844,-5355.5555 -1466.844,-5154.3111 -1378.844,-5154.3111 -1378.844,-5042.3111 z M-1753.0903,-5154.3091 L-1765.0923,-5154.3091 -1765.0923,-5946.7517 -1753.0903,-5946.7517 z M-1466.844,-5447.5555 L-1466.844,-5367.5575 -1190.846,-5367.5575 -1190.846,-5447.5555 z M-2094.1355,-5414.9093 L-2094.1355,-5503.4344 -2008.4904,-5503.4344 -2008.4904,-5414.9093 z M-2084.1335,-5493.4324 L-2084.1335,-5424.9113 -2018.4924,-5424.9113 -2018.4924,-5493.4324 z M-1466.844,-5579.5555 L-1466.844,-5459.5575 -1190.6234,-5459.5575 -1190.7982,-5579.5555 z M-1466.844,-5671.5555 L-1466.844,-5591.5575 -1190.846,-5591.5575 -1190.846,-5671.5555 z M-1466.844,-6053.5555 L-1466.844,-5683.5575 -1190.846,-5683.5575 -1190.846,-6053.5555 z M-2094.1355,-6073.4324 L-2094.1355,-6161.5291 -2008.4904,-6161.5291 -2008.4904,-6073.4324 z M-2084.1335,-6151.5271 L-2084.1335,-6083.4344 -2018.4924,-6083.4344 -2018.4924,-6151.5271 z M-1591.8168,-6308.8306 L-1794.0459,-6236.734 -1797.4046,-6246.1552 -1595.1756,-6318.2518 z M-2097.6983,-6653.9247 L-2097.6983,-6747.7628 -2008.4904,-6747.7628 -2008.4904,-6653.9247 z M-2087.6963,-6737.7608 L-2087.6963,-6663.9267 -2018.4924,-6663.9267 -2018.4924,-6737.7608 z"/>
</g><g transform="translate(0,0.25624) scale(0.49962) translate(3661.49437,7580.7465)" stroke="#000000" stroke-width="0.60045" fill="none">
<path d="M-5039.6826,-3119.6801 L-5179.6826,-3119.6801 -5179.6826,-3057.1801 -5319.6926,-3057.1801 -5319.6926,-3294.6901 -5179.6926,-3294.6901 -5179.6926,-3357.1901 -5039.6826,-3357.1901 z M-5367.9592,-3582.4266 L-5647.9692,-3582.4266 -5647.9692,-3662.4366 -5367.9592,-3662.4366 z M-5372.0455,-3806.4266 L-5647.9692,-3806.4266 -5647.9692,-3886.4366 -5372.0455,-3886.4366 z M-5179.6826,-4217.9366 L-5039.6826,-4217.9366 -5039.6826,-3978.5814 -5179.6926,-3978.5814 -5179.6926,-4041.0814 -5319.6926,-4041.0814 -5319.6926,-4280.4366 -5179.6826,-4280.4366 z"/>
</g><g transform="translate(0,0.25624) scale(0.49962) translate(3661.49437,7580.7465)" stroke="#ffffff" stroke-width="0.60045" opacity="1" fill="none">
<path d="M-1904.13452,-4881.48685 C-1904.13452,-4883.69599 -1905.92538,-4885.48685 -1908.13452,-4885.48685 L-1915.13452,-4885.48685 C-1917.34366,-4885.48685 -1919.13452,-4883.69599 -1919.13452,-4881.48685 L-1919.13452,-4810.48685 C-1919.13452,-4808.27771 -1917.34366,-4806.48685 -1915.13452,-4806.48685 L-1908.13452,-4806.48685 C-1905.92538,-4806.48685 -1904.13452,-4808.27771 -1904.13452,-4810.48685 z" fill="#ffffff" stroke="none"/>

<path d="M-2079.13452,-4881.48685 C-2079.13452,-4883.69599 -2080.92538,-4885.48685 -2083.13452,-4885.48685 L-2090.13452,-4885.48685 C-2092.34366,-4885.48685 -2094.13452,-4883.69599 -2094.13452,-4881.48685 L-2094.13452,-4810.48685 C-2094.13452,-4808.27771 -2092.34366,-4806.48685 -2090.13452,-4806.48685 L-2083.13452,-4806.48685 C-2080.92538,-4806.48685 -2079.13452,-4808.27771 -2079.13452,-4810.48685 z" fill="#ffffff" stroke="none"/>

<path d="M-1919.13452,-4884.48685 C-1919.13452,-4888.35284 -1922.26853,-4891.48685 -1926.13452,-4891.48685 L-2072.13452,-4891.48685 C-2076.00051,-4891.48685 -2079.13452,-4888.35284 -2079.13452,-4884.48685 L-2079.13452,-4801.48685 -1919.13452,-4801.48685 z" fill="#ffffff" stroke="none"/>
</g><g transform="translate(0,0.25624) scale(0.49962) translate(3661.49437,7580.7465)" stroke="#000000" stroke-width="0.60045" opacity="1" fill="none">
<path d="M-1904.13452,-4881.48685 C-1904.13452,-4883.69599 -1905.92538,-4885.48685 -1908.13452,-4885.48685 L-1915.13452,-4885.48685 C-1917.34366,-4885.48685 -1919.13452,-4883.69599 -1919.13452,-4881.48685 L-1919.13452,-4810.48685 C-1919.13452,-4808.27771 -1917.34366,-4806.48685 -1915.13452,-4806.48685 L-1908.13452,-4806.48685 C-1905.92538,-4806.48685 -1904.13452,-4808.27771 -1904.13452,-4810.48685 z"/>

<path d="M-2079.13452,-4881.48685 C-2079.13452,-4883.69599 -2080.92538,-4885.48685 -2083.13452,-4885.48685 L-2090.13452,-4885.48685 C-2092.34366,-4885.48685 -2094.13452,-4883.69599 -2094.13452,-4881.48685 L-2094.13452,-4810.48685 C-2094.13452,-4808.27771 -2092.34366,-4806.48685 -2090.13452,-4806.48685 L-2083.13452,-4806.48685 C-2080.92538,-4806.48685 -2079.13452,-4808.27771 -2079.13452,-4810.48685 z"/>

<path d="M-1919.13452,-4884.48685 C-1919.13452,-4888.35284 -1922.26853,-4891.48685 -1926.13452,-4891.48685 L-2072.13452,-4891.48685 C-2076.00051,-4891.48685 -2079.13452,-4888.35284 -2079.13452,-4884.48685 L-2079.13452,-4801.48685 -1919.13452,-4801.48685 z"/>

<line x1="-1919.13452" y1="-4826.48685" x2="-2079.13452" y2="-4826.48685"/>

<line x1="-1999.13452" y1="-4826.48685" x2="-1999.13452" y2="-4891.48685"/>
</g><g transform="translate(0,0.25624) scale(0.49962) translate(3661.49437,7580.7465)" stroke="#ffffff" stroke-width="0.60045" opacity="1" fill="none">
<path d="M-2590.37589,-5142.31006 C-2588.16675,-5142.31006 -2586.37589,-5144.10092 -2586.37589,-5146.31006 L-2586.37589,-5153.31006 C-2586.37589,-5155.5192 -2588.16675,-5157.31006 -2590.37589,-5157.31006 L-2661.37589,-5157.31006 C-2663.58503,-5157.31006 -2665.37589,-5155.5192 -2665.37589,-5153.31006 L-2665.37589,-5146.31006 C-2665.37589,-5144.10092 -2663.58503,-5142.31006 -2661.37589,-5142.31006 z" fill="#ffffff" stroke="none"/>

<path d="M-2590.37589,-5317.31006 C-2588.16675,-5317.31006 -2586.37589,-5319.10092 -2586.37589,-5321.31006 L-2586.37589,-5328.31006 C-2586.37589,-5330.5192 -2588.16675,-5332.31006 -2590.37589,-5332.31006 L-2661.37589,-5332.31006 C-2663.58503,-5332.31006 -2665.37589,-5330.5192 -2665.37589,-5328.31006 L-2665.37589,-5321.31006 C-2665.37589,-5319.10092 -2663.58503,-5317.31006 -2661.37589,-5317.31006 z" fill="#ffffff" stroke="none"/>

<path d="M-2587.37589,-5157.31006 C-2583.5099,-5157.31006 -2580.37589,-5160.44407 -2580.37589,-5164.31006 L-2580.37589,-5310.31006 C-2580.37589,-5314.17605 -2583.5099,-5317.31006 -2587.37589,-5317.31006 L-2670.37589,-5317.31006 -2670.37589,-5157.31006 z" fill="#ffffff" stroke="none"/>
</g><g transform="translate(0,0.25624) scale(0.49962) translate(3661.49437,7580.7465)" stroke="#000000" stroke-width="0.60045" opacity="1" fill="none">
<path d="M-2590.37589,-5142.31006 C-2588.16675,-5142.31006 -2586.37589,-5144.10092 -2586.37589,-5146.31006 L-2586.37589,-5153.31006 C-2586.37589,-5155.5192 -2588.16675,-5157.31006 -2590.37589,-5157.31006 L-2661.37589,-5157.31006 C-2663.58503,-5157.31006 -2665.37589,-5155.5192 -2665.37589,-5153.31006 L-2665.37589,-5146.31006 C-2665.37589,-5144.10092 -2663.58503,-5142.31006 -2661.37589,-5142.31006 z"/>

<path d="M-2590.37589,-5317.31006 C-2588.16675,-5317.31006 -2586.37589,-5319.10092 -2586.37589,-5321.31006 L-2586.37589,-5328.31006 C-2586.37589,-5330.5192 -2588.16675,-5332.31006 -2590.37589,-5332.31006 L-2661.37589,-5332.31006 C-2663.58503,-5332.31006 -2665.37589,-5330.5192 -2665.37589,-5328.31006 L-2665.37589,-5321.31006 C-2665.37589,-5319.10092 -2663.58503,-5317.31006 -2661.37589,-5317.31006 z"/>

<path d="M-2587.37589,-5157.31006 C-2583.5099,-5157.31006 -2580.37589,-5160.44407 -2580.37589,-5164.31006 L-2580.37589,-5310.31006 C-2580.37589,-5314.17605 -2583.5099,-5317.31006 -2587.37589,-5317.31006 L-2670.37589,-5317.31006 -2670.37589,-5157.31006 z"/>

<line x1="-2645.37589" y1="-5157.31006" x2="-2645.37589" y2="-5317.31006"/>

<line x1="-2645.37589" y1="-5237.31006" x2="-2580.37589" y2="-5237.31006"/>
</g><g transform="translate(0,0.25624) scale(0.49962) translate(3661.49437,7580.7465)" stroke="#ffffff" stroke-width="0.60045" opacity="1" fill="none">
<path d="M-2015.09127,-5668.43343 C-2015.09127,-5666.22429 -2013.30041,-5664.43343 -2011.09127,-5664.43343 L-2004.09127,-5664.43343 C-2001.88213,-5664.43343 -2000.09127,-5666.22429 -2000.09127,-5668.43343 L-2000.09127,-5734.43343 C-2000.09127,-5736.64257 -2001.88213,-5738.43343 -2004.09127,-5738.43343 L-2011.09127,-5738.43343 C-2013.30041,-5738.43343 -2015.09127,-5736.64257 -2015.09127,-5734.43343 z" fill="#ffffff" stroke="none"/>

<path d="M-1844.09127,-5497.43343 C-1844.09127,-5495.22429 -1842.30041,-5493.43343 -1840.09127,-5493.43343 L-1774.09127,-5493.43343 C-1771.88213,-5493.43343 -1770.09127,-5495.22429 -1770.09127,-5497.43343 L-1770.09127,-5504.43343 C-1770.09127,-5506.64257 -1771.88213,-5508.43343 -1774.09127,-5508.43343 L-1840.09127,-5508.43343 C-1842.30041,-5508.43343 -1844.09127,-5506.64257 -1844.09127,-5504.43343 z" fill="#ffffff" stroke="none"/>

<path d="M-2000.09127,-5743.43343 L-1765.09127,-5743.43343 -1765.09127,-5508.43343 -1843.09127,-5508.43343 C-1846.95726,-5508.43343 -1850.09127,-5511.56744 -1850.09127,-5515.43343 L-1850.09127,-5658.43343 -1993.09127,-5658.43343 C-1996.95726,-5658.43343 -2000.09127,-5661.56744 -2000.09127,-5665.43343 z" fill="#ffffff" stroke="none"/>
</g><g transform="translate(0,0.25624) scale(0.49962) translate(3661.49437,7580.7465)" stroke="#000000" stroke-width="0.60045" opacity="1" fill="none">
<path d="M-2000.09127,-5743.43343 L-1765.09127,-5743.43343 -1765.09127,-5508.43343 -1843.09127,-5508.43343 C-1846.95726,-5508.43343 -1850.09127,-5511.56744 -1850.09127,-5515.43343 L-1850.09127,-5658.43343 -1993.09127,-5658.43343 C-1996.95726,-5658.43343 -2000.09127,-5661.56744 -2000.09127,-5665.43343 z"/>

<path d="M-2015.09127,-5668.43343 C-2015.09127,-5666.22429 -2013.30041,-5664.43343 -2011.09127,-5664.43343 L-2004.09127,-5664.43343 C-2001.88213,-5664.43343 -2000.09127,-5666.22429 -2000.09127,-5668.43343 L-2000.09127,-5734.43343 C-2000.09127,-5736.64257 -2001.88213,-5738.43343 -2004.09127,-5738.43343 L-2011.09127,-5738.43343 C-2013.30041,-5738.43343 -2015.09127,-5736.64257 -2015.09127,-5734.43343 z"/>

<path d="M-1844.09127,-5497.43343 C-1844.09127,-5495.22429 -1842.30041,-5493.43343 -1840.09127,-5493.43343 L-1774.09127,-5493.43343 C-1771.88213,-5493.43343 -1770.09127,-5495.22429 -1770.09127,-5497.43343 L-1770.09127,-5504.43343 C-1770.09127,-5506.64257 -1771.88213,-5508.43343 -1774.09127,-5508.43343 L-1840.09127,-5508.43343 C-1842.30041,-5508.43343 -1844.09127,-5506.64257 -1844.09127,-5504.43343 z"/>

<path d="M-2000.09127,-5718.43343 L-1790.09127,-5718.43343 -1790.09127,-5508.43343"/>

<line x1="-1850.09127" y1="-5658.43343" x2="-1790.09127" y2="-5658.43343"/>

<line x1="-1850.09127" y1="-5658.43343" x2="-1850.09127" y2="-5718.43343"/>

<line x1="-1925.09127" y1="-5718.43343" x2="-1925.09127" y2="-5658.43343"/>

<line x1="-1850.09127" y1="-5583.43343" x2="-1790.09127" y2="-5583.43343"/>
</g><g transform="translate(0,0.25624) scale(0.49962) translate(3661.49437,7580.7465)" stroke="#ffffff" stroke-width="0.60045" opacity="1" fill="none">
<path d="M-2680.37589,-6389.50892 C-2678.16675,-6389.50892 -2676.37589,-6391.29978 -2676.37589,-6393.50892 L-2676.37589,-6400.50892 C-2676.37589,-6402.71806 -2678.16675,-6404.50892 -2680.37589,-6404.50892 L-2751.37589,-6404.50892 C-2753.58503,-6404.50892 -2755.37589,-6402.71806 -2755.37589,-6400.50892 L-2755.37589,-6393.50892 C-2755.37589,-6391.29978 -2753.58503,-6389.50892 -2751.37589,-6389.50892 z" fill="#ffffff" stroke="none"/>

<path d="M-2680.37589,-6564.50892 C-2678.16675,-6564.50892 -2676.37589,-6566.29978 -2676.37589,-6568.50892 L-2676.37589,-6575.50892 C-2676.37589,-6577.71806 -2678.16675,-6579.50892 -2680.37589,-6579.50892 L-2751.37589,-6579.50892 C-2753.58503,-6579.50892 -2755.37589,-6577.71806 -2755.37589,-6575.50892 L-2755.37589,-6568.50892 C-2755.37589,-6566.29978 -2753.58503,-6564.50892 -2751.37589,-6564.50892 z" fill="#ffffff" stroke="none"/>

<path d="M-2677.37589,-6404.50892 C-2673.5099,-6404.50892 -2670.37589,-6407.64293 -2670.37589,-6411.50892 L-2670.37589,-6557.50892 C-2670.37589,-6561.37491 -2673.5099,-6564.50892 -2677.37589,-6564.50892 L-2760.37589,-6564.50892 -2760.37589,-6404.50892 z" fill="#ffffff" stroke="none"/>
</g><g transform="translate(0,0.25624) scale(0.49962) translate(3661.49437,7580.7465)" stroke="#000000" stroke-width="0.60045" opacity="1" fill="none">
<path d="M-2680.37589,-6389.50892 C-2678.16675,-6389.50892 -2676.37589,-6391.29978 -2676.37589,-6393.50892 L-2676.37589,-6400.50892 C-2676.37589,-6402.71806 -2678.16675,-6404.50892 -2680.37589,-6404.50892 L-2751.37589,-6404.50892 C-2753.58503,-6404.50892 -2755.37589,-6402.71806 -2755.37589,-6400.50892 L-2755.37589,-6393.50892 C-2755.37589,-6391.29978 -2753.58503,-6389.50892 -2751.37589,-6389.50892 z"/>

<path d="M-2680.37589,-6564.50892 C-2678.16675,-6564.50892 -2676.37589,-6566.29978 -2676.37589,-6568.50892 L-2676.37589,-6575.50892 C-2676.37589,-6577.71806 -2678.16675,-6579.50892 -2680.37589,-6579.50892 L-2751.37589,-6579.50892 C-2753.58503,-6579.50892 -2755.37589,-6577.71806 -2755.37589,-6575.50892 L-2755.37589,-6568.50892 C-2755.37589,-6566.29978 -2753.58503,-6564.50892 -2751.37589,-6564.50892 z"/>

<path d="M-2677.37589,-6404.50892 C-2673.5099,-6404.50892 -2670.37589,-6407.64293 -2670.37589,-6411.50892 L-2670.37589,-6557.50892 C-2670.37589,-6561.37491 -2673.5099,-6564.50892 -2677.37589,-6564.50892 L-2760.37589,-6564.50892 -2760.37589,-6404.50892 z"/>

<line x1="-2735.37589" y1="-6404.50892" x2="-2735.37589" y2="-6564.50892"/>

<line x1="-2735.37589" y1="-6484.50892" x2="-2670.37589" y2="-6484.50892"/>
</g><g transform="translate(0,0.25624) scale(0.49962) translate(3661.49437,7580.7465)" stroke="#ffffff" stroke-width="0.60045" opacity="1" fill="none">
<path d="M-2198.49143,-7003.21975 C-2198.49143,-7001.01061 -2196.70057,-6999.21975 -2194.49143,-6999.21975 L-2187.49143,-6999.21975 C-2185.28229,-6999.21975 -2183.49143,-7001.01061 -2183.49143,-7003.21975 L-2183.49143,-7074.21975 C-2183.49143,-7076.42889 -2185.28229,-7078.21975 -2187.49143,-7078.21975 L-2194.49143,-7078.21975 C-2196.70057,-7078.21975 -2198.49143,-7076.42889 -2198.49143,-7074.21975 z" fill="#ffffff" stroke="none"/>

<path d="M-2023.49143,-7003.21975 C-2023.49143,-7001.01061 -2021.70057,-6999.21975 -2019.49143,-6999.21975 L-2012.49143,-6999.21975 C-2010.28229,-6999.21975 -2008.49143,-7001.01061 -2008.49143,-7003.21975 L-2008.49143,-7074.21975 C-2008.49143,-7076.42889 -2010.28229,-7078.21975 -2012.49143,-7078.21975 L-2019.49143,-7078.21975 C-2021.70057,-7078.21975 -2023.49143,-7076.42889 -2023.49143,-7074.21975 z" fill="#ffffff" stroke="none"/>

<path d="M-2183.49143,-7000.21975 C-2183.49143,-6996.35376 -2180.35742,-6993.21975 -2176.49143,-6993.21975 L-2030.49143,-6993.21975 C-2026.62544,-6993.21975 -2023.49143,-6996.35376 -2023.49143,-7000.21975 L-2023.49143,-7083.21975 -2183.49143,-7083.21975 z" fill="#ffffff" stroke="none"/>
</g><g transform="translate(0,0.25624) scale(0.49962) translate(3661.49437,7580.7465)" stroke="#000000" stroke-width="0.60045" opacity="1" fill="none">
<path d="M-2198.49143,-7003.21975 C-2198.49143,-7001.01061 -2196.70057,-6999.21975 -2194.49143,-6999.21975 L-2187.49143,-6999.21975 C-2185.28229,-6999.21975 -2183.49143,-7001.01061 -2183.49143,-7003.21975 L-2183.49143,-7074.21975 C-2183.49143,-7076.42889 -2185.28229,-7078.21975 -2187.49143,-7078.21975 L-2194.49143,-7078.21975 C-2196.70057,-7078.21975 -2198.49143,-7076.42889 -2198.49143,-7074.21975 z"/>

<path d="M-2023.49143,-7003.21975 C-2023.49143,-7001.01061 -2021.70057,-6999.21975 -2019.49143,-6999.21975 L-2012.49143,-6999.21975 C-2010.28229,-6999.21975 -2008.49143,-7001.01061 -2008.49143,-7003.21975 L-2008.49143,-7074.21975 C-2008.49143,-7076.42889 -2010.28229,-7078.21975 -2012.49143,-7078.21975 L-2019.49143,-7078.21975 C-2021.70057,-7078.21975 -2023.49143,-7076.42889 -2023.49143,-7074.21975 z"/>

<path d="M-2183.49143,-7000.21975 C-2183.49143,-6996.35376 -2180.35742,-6993.21975 -2176.49143,-6993.21975 L-2030.49143,-6993.21975 C-2026.62544,-6993.21975 -2023.49143,-6996.35376 -2023.49143,-7000.21975 L-2023.49143,-7083.21975 -2183.49143,-7083.21975 z"/>

<line x1="-2183.49143" y1="-7058.21975" x2="-2023.49143" y2="-7058.21975"/>

<line x1="-2103.49143" y1="-7058.21975" x2="-2103.49143" y2="-6993.21975"/>
</g><g transform="translate(0,0.25624) scale(0.49962) translate(3661.49437,7580.7465)" stroke="#ffffff" stroke-width="0.60045" opacity="1" fill="none">
<path d="M-2008.49143,-6898.10596 C-2008.49143,-6900.3151 -2010.28229,-6902.10596 -2012.49143,-6902.10596 L-2019.49143,-6902.10596 C-2021.70057,-6902.10596 -2023.49143,-6900.3151 -2023.49143,-6898.10596 L-2023.49143,-6827.10596 C-2023.49143,-6824.89682 -2021.70057,-6823.10596 -2019.49143,-6823.10596 L-2012.49143,-6823.10596 C-2010.28229,-6823.10596 -2008.49143,-6824.89682 -2008.49143,-6827.10596 z" fill="#ffffff" stroke="none"/>

<path d="M-2183.49143,-6898.10596 C-2183.49143,-6900.3151 -2185.28229,-6902.10596 -2187.49143,-6902.10596 L-2194.49143,-6902.10596 C-2196.70057,-6902.10596 -2198.49143,-6900.3151 -2198.49143,-6898.10596 L-2198.49143,-6827.10596 C-2198.49143,-6824.89682 -2196.70057,-6823.10596 -2194.49143,-6823.10596 L-2187.49143,-6823.10596 C-2185.28229,-6823.10596 -2183.49143,-6824.89682 -2183.49143,-6827.10596 z" fill="#ffffff" stroke="none"/>

<path d="M-2023.49143,-6901.10596 C-2023.49143,-6904.97195 -2026.62544,-6908.10596 -2030.49143,-6908.10596 L-2176.49143,-6908.10596 C-2180.35742,-6908.10596 -2183.49143,-6904.97195 -2183.49143,-6901.10596 L-2183.49143,-6818.10596 -2023.49143,-6818.10596 z" fill="#ffffff" stroke="none"/>
</g><g transform="translate(0,0.25624) scale(0.49962) translate(3661.49437,7580.7465)" stroke="#000000" stroke-width="0.60045" opacity="1" fill="none">
<path d="M-2008.49143,-6898.10596 C-2008.49143,-6900.3151 -2010.28229,-6902.10596 -2012.49143,-6902.10596 L-2019.49143,-6902.10596 C-2021.70057,-6902.10596 -2023.49143,-6900.3151 -2023.49143,-6898.10596 L-2023.49143,-6827.10596 C-2023.49143,-6824.89682 -2021.70057,-6823.10596 -2019.49143,-6823.10596 L-2012.49143,-6823.10596 C-2010.28229,-6823.10596 -2008.49143,-6824.89682 -2008.49143,-6827.10596 z"/>

<path d="M-2183.49143,-6898.10596 C-2183.49143,-6900.3151 -2185.28229,-6902.10596 -2187.49143,-6902.10596 L-2194.49143,-6902.10596 C-2196.70057,-6902.10596 -2198.49143,-6900.3151 -2198.49143,-6898.10596 L-2198.49143,-6827.10596 C-2198.49143,-6824.89682 -2196.70057,-6823.10596 -2194.49143,-6823.10596 L-2187.49143,-6823.10596 C-2185.28229,-6823.10596 -2183.49143,-6824.89682 -2183.49143,-6827.10596 z"/>

<path d="M-2023.49143,-6901.10596 C-2023.49143,-6904.97195 -2026.62544,-6908.10596 -2030.49143,-6908.10596 L-2176.49143,-6908.10596 C-2180.35742,-6908.10596 -2183.49143,-6904.97195 -2183.49143,-6901.10596 L-2183.49143,-6818.10596 -2023.49143,-6818.10596 z"/>

<line x1="-2023.49143" y1="-6843.10596" x2="-2183.49143" y2="-6843.10596"/>

<line x1="-2103.49143" y1="-6843.10596" x2="-2103.49143" y2="-6908.10596"/>
</g><g transform="translate(0,0.25624) scale(0.49962) translate(3661.49437,7580.7465)" stroke="#ffffff" stroke-width="0.60045" opacity="1" fill="none">
<path d="M-1682.17394,-6128.46278 C-1680.75393,-6130.15508 -1680.97467,-6132.6781 -1682.66697,-6134.09811 L-1688.02928,-6138.59762 C-1689.72157,-6140.01763 -1692.2446,-6139.79689 -1693.6646,-6138.10459 L-1739.30252,-6083.71544 C-1740.72253,-6082.02314 -1740.5018,-6079.50012 -1738.8095,-6078.08011 L-1733.44719,-6073.5806 C-1731.75489,-6072.16059 -1729.23187,-6072.38132 -1727.81186,-6074.07362 z" fill="#ffffff" stroke="none"/>

<path d="M-1745.72908,-6181.79188 C-1744.30908,-6183.48418 -1744.52981,-6186.0072 -1746.22211,-6187.42721 L-1751.58442,-6191.92672 C-1753.27672,-6193.34673 -1755.79974,-6193.12599 -1757.21975,-6191.43369 L-1802.85767,-6137.04454 C-1804.27768,-6135.35224 -1804.05694,-6132.82922 -1802.36464,-6131.40921 L-1797.00233,-6126.9097 C-1795.31003,-6125.48969 -1792.78701,-6125.71042 -1791.367,-6127.40272 z" fill="#ffffff" stroke="none"/>

<path d="M-1691.73624,-6140.40273 C-1689.25123,-6143.36425 -1689.63752,-6147.77954 -1692.59904,-6150.26455 L-1733.9389,-6184.95281 C-1736.90042,-6187.43782 -1741.31571,-6187.05153 -1743.80072,-6184.09001 L-1797.15209,-6120.50832 -1745.08761,-6076.82104 z" fill="#ffffff" stroke="none"/>
</g><g transform="translate(0,0.25624) scale(0.49962) translate(3661.49437,7580.7465)" stroke="#000000" stroke-width="0.60045" opacity="1" fill="none">
<path d="M-1682.17394,-6128.46278 C-1680.75393,-6130.15508 -1680.97467,-6132.6781 -1682.66697,-6134.09811 L-1688.02928,-6138.59762 C-1689.72157,-6140.01763 -1692.2446,-6139.79689 -1693.6646,-6138.10459 L-1739.30252,-6083.71544 C-1740.72253,-6082.02314 -1740.5018,-6079.50012 -1738.8095,-6078.08011 L-1733.44719,-6073.5806 C-1731.75489,-6072.16059 -1729.23187,-6072.38132 -1727.81186,-6074.07362 z"/>

<path d="M-1745.72908,-6181.79188 C-1744.30908,-6183.48418 -1744.52981,-6186.0072 -1746.22211,-6187.42721 L-1751.58442,-6191.92672 C-1753.27672,-6193.34673 -1755.79974,-6193.12599 -1757.21975,-6191.43369 L-1802.85767,-6137.04454 C-1804.27768,-6135.35224 -1804.05694,-6132.82922 -1802.36464,-6131.40921 L-1797.00233,-6126.9097 C-1795.31003,-6125.48969 -1792.78701,-6125.71042 -1791.367,-6127.40272 z"/>

<path d="M-1691.73624,-6140.40273 C-1689.25123,-6143.36425 -1689.63752,-6147.77954 -1692.59904,-6150.26455 L-1733.9389,-6184.95281 C-1736.90042,-6187.43782 -1741.31571,-6187.05153 -1743.80072,-6184.09001 L-1797.15209,-6120.50832 -1745.08761,-6076.82104 z"/>

<line x1="-1729.01792" y1="-6095.97215" x2="-1781.0824" y2="-6139.65943"/>
</g><g transform="translate(0,0.25624) scale(0.49962) translate(3661.49437,7580.7465)" stroke="#ffffff" stroke-width="0.60045" opacity="1" fill="none">
<path d="M-1564.3146,-6222.31943 C-1565.8767,-6223.88153 -1568.40936,-6223.88153 -1569.97146,-6222.31943 L-1574.92121,-6217.36968 C-1576.4833,-6215.80759 -1576.4833,-6213.27493 -1574.92121,-6211.71283 L-1524.71662,-6161.50825 C-1523.15453,-6159.94615 -1520.62187,-6159.94615 -1519.05977,-6161.50825 L-1514.11002,-6166.45799 C-1512.54793,-6168.02009 -1512.54793,-6170.55275 -1514.11002,-6172.11485 z" fill="#ffffff" stroke="none"/>

<path d="M-1636.77463,-6149.85941 C-1638.33673,-6151.4215 -1640.86939,-6151.4215 -1642.43148,-6149.85941 L-1647.38123,-6144.90966 C-1648.94333,-6143.34756 -1648.94333,-6140.8149 -1647.38123,-6139.2528 L-1597.17665,-6089.04822 C-1595.61455,-6087.48613 -1593.08189,-6087.48613 -1591.51979,-6089.04822 L-1586.57005,-6093.99797 C-1585.00795,-6095.56007 -1585.00795,-6098.09273 -1586.57005,-6099.65482 z" fill="#ffffff" stroke="none"/>

<path d="M-1577.04253,-6213.83415 C-1579.7762,-6216.56782 -1584.20835,-6216.56782 -1586.94202,-6213.83415 L-1638.89595,-6161.88022 C-1641.62962,-6159.14655 -1641.62962,-6154.7144 -1638.89595,-6151.98073 L-1580.20609,-6093.29086 -1518.35266,-6155.14429 z" fill="#ffffff" stroke="none"/>
</g><g transform="translate(0,0.25624) scale(0.49962) translate(3661.49437,7580.7465)" stroke="#000000" stroke-width="0.60045" opacity="1" fill="none">
<path d="M-1564.3146,-6222.31943 C-1565.8767,-6223.88153 -1568.40936,-6223.88153 -1569.97146,-6222.31943 L-1574.92121,-6217.36968 C-1576.4833,-6215.80759 -1576.4833,-6213.27493 -1574.92121,-6211.71283 L-1524.71662,-6161.50825 C-1523.15453,-6159.94615 -1520.62187,-6159.94615 -1519.05977,-6161.50825 L-1514.11002,-6166.45799 C-1512.54793,-6168.02009 -1512.54793,-6170.55275 -1514.11002,-6172.11485 z"/>

<path d="M-1636.77463,-6149.85941 C-1638.33673,-6151.4215 -1640.86939,-6151.4215 -1642.43148,-6149.85941 L-1647.38123,-6144.90966 C-1648.94333,-6143.34756 -1648.94333,-6140.8149 -1647.38123,-6139.2528 L-1597.17665,-6089.04822 C-1595.61455,-6087.48613 -1593.08189,-6087.48613 -1591.51979,-6089.04822 L-1586.57005,-6093.99797 C-1585.00795,-6095.56007 -1585.00795,-6098.09273 -1586.57005,-6099.65482 z"/>

<path d="M-1577.04253,-6213.83415 C-1579.7762,-6216.56782 -1584.20835,-6216.56782 -1586.94202,-6213.83415 L-1638.89595,-6161.88022 C-1641.62962,-6159.14655 -1641.62962,-6154.7144 -1638.89595,-6151.98073 L-1580.20609,-6093.29086 -1518.35266,-6155.14429 z"/>

<line x1="-1536.03033" y1="-6172.82196" x2="-1597.88376" y2="-6110.96853"/>
</g><g transform="translate(0,0.25624) scale(0.49962) translate(3661.49437,7580.7465)" stroke="#ffffff" stroke-width="0.60045" opacity="1" fill="none">
<path d="M-1565.35441,-6818.10596 C-1567.56355,-6818.10596 -1569.35441,-6816.3151 -1569.35441,-6814.10596 L-1569.35441,-6807.10596 C-1569.35441,-6804.89682 -1567.56355,-6803.10596 -1565.35441,-6803.10596 L-1487.93042,-6803.10596 C-1485.72129,-6803.10596 -1483.93042,-6804.89682 -1483.93042,-6807.10596 L-1483.93042,-6814.10596 C-1483.93042,-6816.3151 -1485.72129,-6818.10596 -1487.93042,-6818.10596 z" fill="#ffffff" stroke="none"/>

<path d="M-1565.35441,-6582.85866 C-1567.56355,-6582.85866 -1569.35441,-6581.0678 -1569.35441,-6578.85866 L-1569.35441,-6571.85866 C-1569.35441,-6569.64952 -1567.56355,-6567.85866 -1565.35441,-6567.85866 L-1487.93042,-6567.85866 C-1485.72129,-6567.85866 -1483.93042,-6569.64952 -1483.93042,-6571.85866 L-1483.93042,-6578.85866 C-1483.93042,-6581.0678 -1485.72129,-6582.85866 -1487.93042,-6582.85866 z" fill="#ffffff" stroke="none"/>

<path d="M-1568.35441,-6803.10596 C-1572.22041,-6803.10596 -1575.35441,-6799.97195 -1575.35441,-6796.10596 L-1575.35441,-6589.85866 C-1575.35441,-6585.99267 -1572.22041,-6582.85866 -1568.35441,-6582.85866 L-1478.93042,-6582.85866 -1478.93042,-6803.10596 z" fill="#ffffff" stroke="none"/>
</g><g transform="translate(0,0.25624) scale(0.49962) translate(3661.49437,7580.7465)" stroke="#000000" stroke-width="0.60045" opacity="1" fill="none">
<path d="M-1565.35441,-6818.10596 C-1567.56355,-6818.10596 -1569.35441,-6816.3151 -1569.35441,-6814.10596 L-1569.35441,-6807.10596 C-1569.35441,-6804.89682 -1567.56355,-6803.10596 -1565.35441,-6803.10596 L-1487.93042,-6803.10596 C-1485.72129,-6803.10596 -1483.93042,-6804.89682 -1483.93042,-6807.10596 L-1483.93042,-6814.10596 C-1483.93042,-6816.3151 -1485.72129,-6818.10596 -1487.93042,-6818.10596 z"/>

<path d="M-1565.35441,-6582.85866 C-1567.56355,-6582.85866 -1569.35441,-6581.0678 -1569.35441,-6578.85866 L-1569.35441,-6571.85866 C-1569.35441,-6569.64952 -1567.56355,-6567.85866 -1565.35441,-6567.85866 L-1487.93042,-6567.85866 C-1485.72129,-6567.85866 -1483.93042,-6569.64952 -1483.93042,-6571.85866 L-1483.93042,-6578.85866 C-1483.93042,-6581.0678 -1485.72129,-6582.85866 -1487.93042,-6582.85866 z"/>

<path d="M-1568.35441,-6803.10596 C-1572.22041,-6803.10596 -1575.35441,-6799.97195 -1575.35441,-6796.10596 L-1575.35441,-6589.85866 C-1575.35441,-6585.99267 -1572.22041,-6582.85866 -1568.35441,-6582.85866 L-1478.93042,-6582.85866 -1478.93042,-6803.10596 z"/>

<line x1="-1503.93042" y1="-6803.10596" x2="-1503.93042" y2="-6582.85866"/>

<line x1="-1503.93042" y1="-6692.98231" x2="-1575.35441" y2="-6692.98231"/>
</g><g transform="translate(0,0.25624) scale(0.49962) translate(3661.49437,7580.7465)" stroke="#ffffff" stroke-width="0.60045" opacity="1" fill="none">
<path d="M-1961.05299,-6928.85538 L-1774.02667,-6928.85538 -1774.02667,-6970.43904 -1961.05299,-6970.43904 z" fill="#ffffff" stroke="none"/>
</g><g transform="translate(0,0.25624) scale(0.49962) translate(3661.49437,7580.7465)" stroke="#000000" stroke-width="0.60045" opacity="1" fill="none">
<path d="M-1961.05299,-6928.85538 L-1774.02667,-6928.85538 -1774.02667,-6970.43904 -1961.05299,-6970.43904 z"/>
</g><g transform="translate(0,0.25624) scale(0.49962) translate(3661.49437,7580.7465)" stroke="#ffffff" stroke-width="0.60045" opacity="1" fill="none">
<path d="M-1831.7916,-6970.43904 L-1831.7916,-7070.43904 -1880.45284,-7070.43904 -1880.45284,-6970.43904 z" fill="#ffffff" stroke="none"/>
</g><g transform="translate(0,0.25624) scale(0.49962) translate(3661.49437,7580.7465)" stroke="#000000" stroke-width="0.60045" opacity="1" fill="none">
<path d="M-1831.7916,-6970.43904 L-1831.7916,-7070.43904 -1880.45284,-7070.43904 -1880.45284,-6970.43904 z"/>
</g><g transform="translate(0,0.25624) scale(0.49962) translate(3661.49437,7580.7465)" stroke="#ffffff" stroke-width="0.60045" opacity="1" fill="none">
<path d="M-2008.49143,-7438.05782 L-1908.49143,-7438.05782 -1908.49143,-7508.05782 -2008.49143,-7508.05782 z" fill="#ffffff" stroke="none"/>
</g><g transform="translate(0,0.25624) scale(0.49962) translate(3661.49437,7580.7465)" stroke="#000000" stroke-width="0.60045" opacity="1" fill="none">
<path d="M-2008.49143,-7438.05782 L-1908.49143,-7438.05782 -1908.49143,-7508.05782 -2008.49143,-7508.05782 z"/>
</g><g transform="translate(0,0.25624) scale(0.49962) translate(3661.49437,7580.7465)" stroke="#ffffff" stroke-width="0.60045" opacity="1" fill="none">
<path d="M-2197.6973,-7437.5565 L-2097.6973,-7437.5565 -2097.6973,-7507.5565 -2197.6973,-7507.5565 z" fill="#ffffff" stroke="none"/>
</g><g transform="translate(0,0.25624) scale(0.49962) translate(3661.49437,7580.7465)" stroke="#000000" stroke-width="0.60045" opacity="1" fill="none">
<path d="M-2197.6973,-7437.5565 L-2097.6973,-7437.5565 -2097.6973,-7507.5565 -2197.6973,-7507.5565 z"/>
</g><g transform="translate(0,0.25624) scale(0.49962) translate(3661.49437,7580.7465)" stroke="#ffffff" stroke-width="0.60045" opacity="1" fill="none">
<path d="M-2265.78246,-7273.82057 L-2265.78246,-7373.82057 -2335.78246,-7373.82057 -2335.78246,-7273.82057 z" fill="#ffffff" stroke="none"/>
</g><g transform="translate(0,0.25624) scale(0.49962) translate(3661.49437,7580.7465)" stroke="#000000" stroke-width="0.60045" opacity="1" fill="none">
<path d="M-2265.78246,-7273.82057 L-2265.78246,-7373.82057 -2335.78246,-7373.82057 -2335.78246,-7273.82057 z"/>
</g><g transform="translate(0,0.25624) scale(0.49962) translate(3661.49437,7580.7465)" stroke="#ffffff" stroke-width="0.60045" opacity="1" fill="none">
<path d="M-2265.78246,-7173.82057 L-2265.78246,-7273.82057 -2335.78246,-7273.82057 -2335.78246,-7173.82057 z" fill="#ffffff" stroke="none"/>
</g><g transform="translate(0,0.25624) scale(0.49962) translate(3661.49437,7580.7465)" stroke="#000000" stroke-width="0.60045" opacity="1" fill="none">
<path d="M-2265.78246,-7173.82057 L-2265.78246,-7273.82057 -2335.78246,-7273.82057 -2335.78246,-7173.82057 z"/>
</g><g transform="translate(0,0.25624) scale(0.49962) translate(3661.49437,7580.7465)" stroke="#ffffff" stroke-width="0.60045" opacity="1" fill="none">
<path d="M-2721.32845,-6747.76183 L-2721.32845,-6847.76183 -2791.32845,-6847.76183 -2791.32845,-6747.76183 z" fill="#ffffff" stroke="none"/>
</g><g transform="translate(0,0.25624) scale(0.49962) translate(3661.49437,7580.7465)" stroke="#000000" stroke-width="0.60045" opacity="1" fill="none">
<path d="M-2721.32845,-6747.76183 L-2721.32845,-6847.76183 -2791.32845,-6847.76183 -2791.32845,-6747.76183 z"/>
</g><g transform="translate(0,0.25624) scale(0.49962) translate(3661.49437,7580.7465)" stroke="#ffffff" stroke-width="0.60045" opacity="1" fill="none">
<path d="M-2365.78246,-6583.92575 L-2265.78246,-6583.92575 -2265.78246,-6653.92575 -2365.78246,-6653.92575 z" fill="#ffffff" stroke="none"/>
</g><g transform="translate(0,0.25624) scale(0.49962) translate(3661.49437,7580.7465)" stroke="#000000" stroke-width="0.60045" opacity="1" fill="none">
<path d="M-2365.78246,-6583.92575 L-2265.78246,-6583.92575 -2265.78246,-6653.92575 -2365.78246,-6653.92575 z"/>
</g><g transform="translate(0,0.25624) scale(0.49962) translate(3661.49437,7580.7465)" stroke="#ffffff" stroke-width="0.60045" opacity="1" fill="none">
<path d="M-2465.78246,-6583.92575 L-2365.78246,-6583.92575 -2365.78246,-6653.92575 -2465.78246,-6653.92575 z" fill="#ffffff" stroke="none"/>
</g><g transform="translate(0,0.25624) scale(0.49962) translate(3661.49437,7580.7465)" stroke="#000000" stroke-width="0.60045" opacity="1" fill="none">
<path d="M-2465.78246,-6583.92575 L-2365.78246,-6583.92575 -2365.78246,-6653.92575 -2465.78246,-6653.92575 z"/>
</g><g transform="translate(0,0.25624) scale(0.49962) translate(3661.49437,7580.7465)" stroke="#ffffff" stroke-width="0.60045" opacity="1" fill="none">
<path d="M-1961.05299,-6513.92575 L-1861.05299,-6513.92575 -1861.05299,-6583.92575 -1961.05299,-6583.92575 z" fill="#ffffff" stroke="none"/>
</g><g transform="translate(0,0.25624) scale(0.49962) translate(3661.49437,7580.7465)" stroke="#000000" stroke-width="0.60045" opacity="1" fill="none">
<path d="M-1961.05299,-6513.92575 L-1861.05299,-6513.92575 -1861.05299,-6583.92575 -1961.05299,-6583.92575 z"/>
</g><g transform="translate(0,0.25624) scale(0.49962) translate(3661.49437,7580.7465)" stroke="#ffffff" stroke-width="0.60045" opacity="1" fill="none">
<path d="M-1865.09127,-6513.92575 L-1765.09127,-6513.92575 -1765.09127,-6583.92575 -1865.09127,-6583.92575 z" fill="#ffffff" stroke="none"/>
</g><g transform="translate(0,0.25624) scale(0.49962) translate(3661.49437,7580.7465)" stroke="#000000" stroke-width="0.60045" opacity="1" fill="none">
<path d="M-1865.09127,-6513.92575 L-1765.09127,-6513.92575 -1765.09127,-6583.92575 -1865.09127,-6583.92575 z"/>
</g><g transform="translate(0,0.25624) scale(0.49962) translate(3661.49437,7580.7465)" stroke="#ffffff" stroke-width="0.60045" opacity="1" fill="none">
<path d="M-1765.09127,-6513.92575 L-1665.09127,-6513.92575 -1665.09127,-6583.92575 -1765.09127,-6583.92575 z" fill="#ffffff" stroke="none"/>
</g><g transform="translate(0,0.25624) scale(0.49962) translate(3661.49437,7580.7465)" stroke="#000000" stroke-width="0.60045" opacity="1" fill="none">
<path d="M-1765.09127,-6513.92575 L-1665.09127,-6513.92575 -1665.09127,-6583.92575 -1765.09127,-6583.92575 z"/>
</g><g transform="translate(0,0.25624) scale(0.49962) translate(3661.49437,7580.7465)" stroke="#ffffff" stroke-width="0.60045" opacity="1" fill="none">
<path d="M-1704.02667,-6413.92575 L-1704.02667,-6513.92575 -1774.02667,-6513.92575 -1774.02667,-6413.92575 z" fill="#ffffff" stroke="none"/>
</g><g transform="translate(0,0.25624) scale(0.49962) translate(3661.49437,7580.7465)" stroke="#000000" stroke-width="0.60045" opacity="1" fill="none">
<path d="M-1704.02667,-6413.92575 L-1704.02667,-6513.92575 -1774.02667,-6513.92575 -1774.02667,-6413.92575 z"/>
</g><g transform="translate(0,0.25624) scale(0.49962) translate(3661.49437,7580.7465)" stroke="#ffffff" stroke-width="0.60045" opacity="1" fill="none">
<path d="M-2435.78246,-6389.46396 L-2335.78246,-6389.46396 -2335.78246,-6459.46396 -2435.78246,-6459.46396 z" fill="#ffffff" stroke="none"/>
</g><g transform="translate(0,0.25624) scale(0.49962) translate(3661.49437,7580.7465)" stroke="#000000" stroke-width="0.60045" opacity="1" fill="none">
<path d="M-2435.78246,-6389.46396 L-2335.78246,-6389.46396 -2335.78246,-6459.46396 -2435.78246,-6459.46396 z"/>
</g><g transform="translate(0,0.25624) scale(0.49962) translate(3661.49437,7580.7465)" stroke="#ffffff" stroke-width="0.60045" opacity="1" fill="none">
<path d="M-2335.78246,-6389.46396 L-2235.78246,-6389.46396 -2235.78246,-6459.46396 -2335.78246,-6459.46396 z" fill="#ffffff" stroke="none"/>
</g><g transform="translate(0,0.25624) scale(0.49962) translate(3661.49437,7580.7465)" stroke="#000000" stroke-width="0.60045" opacity="1" fill="none">
<path d="M-2335.78246,-6389.46396 L-2235.78246,-6389.46396 -2235.78246,-6459.46396 -2335.78246,-6459.46396 z"/>
</g><g transform="translate(0,0.25624) scale(0.49962) translate(3661.49437,7580.7465)" stroke="#ffffff" stroke-width="0.60045" opacity="1" fill="none">
<path d="M-2165.78246,-6359.46396 L-2165.78246,-6459.46396 -2235.78246,-6459.46396 -2235.78246,-6359.46396 z" fill="#ffffff" stroke="none"/>
</g><g transform="translate(0,0.25624) scale(0.49962) translate(3661.49437,7580.7465)" stroke="#000000" stroke-width="0.60045" opacity="1" fill="none">
<path d="M-2165.78246,-6359.46396 L-2165.78246,-6459.46396 -2235.78246,-6459.46396 -2235.78246,-6359.46396 z"/>
</g><g transform="translate(0,0.25624) scale(0.49962) translate(3661.49437,7580.7465)" stroke="#ffffff" stroke-width="0.60045" opacity="1" fill="none">
<path d="M-2600.37589,-6051.52809 L-2600.37589,-6151.52809 -2670.37589,-6151.52809 -2670.37589,-6051.52809 z" fill="#ffffff" stroke="none"/>
</g><g transform="translate(0,0.25624) scale(0.49962) translate(3661.49437,7580.7465)" stroke="#000000" stroke-width="0.60045" opacity="1" fill="none">
<path d="M-2600.37589,-6051.52809 L-2600.37589,-6151.52809 -2670.37589,-6151.52809 -2670.37589,-6051.52809 z"/>
</g><g transform="translate(0,0.25624) scale(0.49962) translate(3661.49437,7580.7465)" stroke="#ffffff" stroke-width="0.60045" opacity="1" fill="none">
<path d="M-2600.37589,-5946.7507 L-2600.37589,-6046.7507 -2670.37589,-6046.7507 -2670.37589,-5946.7507 z" fill="#ffffff" stroke="none"/>
</g><g transform="translate(0,0.25624) scale(0.49962) translate(3661.49437,7580.7465)" stroke="#000000" stroke-width="0.60045" opacity="1" fill="none">
<path d="M-2600.37589,-5946.7507 L-2600.37589,-6046.7507 -2670.37589,-6046.7507 -2670.37589,-5946.7507 z"/>
</g><g transform="translate(0,0.25624) scale(0.49962) translate(3661.49437,7580.7465)" stroke="#ffffff" stroke-width="0.60045" opacity="1" fill="none">
<path d="M-2429.83558,-5628.89636 L-2429.83558,-5876.861 -2197.6973,-5876.861 -2197.6973,-5854.06426 -2404.84426,-5854.06426 -2404.84426,-5628.89636 z" fill="#ffffff" stroke="none"/>
</g><g transform="translate(0,0.25624) scale(0.49962) translate(3661.49437,7580.7465)" stroke="#000000" stroke-width="0.60045" opacity="1" fill="none">
<path d="M-2429.83558,-5628.89636 L-2429.83558,-5876.861 -2197.6973,-5876.861 -2197.6973,-5854.06426 -2404.84426,-5854.06426 -2404.84426,-5628.89636 z"/>
</g><g transform="translate(0,0.25624) scale(0.49962) translate(3661.49437,7580.7465)" stroke="#ffffff" stroke-width="0.60045" opacity="1" fill="none">
<path d="M-2397.92073,-5042.31006 L-2397.92073,-5290.2747 -2165.78245,-5290.2747 -2165.78245,-5267.47796 -2372.92941,-5267.47796 -2372.92941,-5042.31006 z" fill="#ffffff" stroke="none"/>
</g><g transform="translate(0,0.25624) scale(0.49962) translate(3661.49437,7580.7465)" stroke="#000000" stroke-width="0.60045" opacity="1" fill="none">
<path d="M-2397.92073,-5042.31006 L-2397.92073,-5290.2747 -2165.78245,-5290.2747 -2165.78245,-5267.47796 -2372.92941,-5267.47796 -2372.92941,-5042.31006 z"/>
</g><g transform="translate(0,0.25624) scale(0.49962) translate(3661.49437,7580.7465)" stroke="#ffffff" stroke-width="0.60045" opacity="1" fill="none">
<path d="M-2094.13452,-5154.31006 L-1994.13452,-5154.31006 -1994.13452,-5224.31006 -2094.13452,-5224.31006 z" fill="#ffffff" stroke="none"/>
</g><g transform="translate(0,0.25624) scale(0.49962) translate(3661.49437,7580.7465)" stroke="#000000" stroke-width="0.60045" opacity="1" fill="none">
<path d="M-2094.13452,-5154.31006 L-1994.13452,-5154.31006 -1994.13452,-5224.31006 -2094.13452,-5224.31006 z"/>
</g><g transform="translate(0,0.25624) scale(0.49962) translate(3661.49437,7580.7465)" stroke="#ffffff" stroke-width="0.60045" opacity="1" fill="none">
<path d="M-2529.83558,-4815.19324 L-2429.83558,-4815.19324 -2429.83558,-4885.19324 -2529.83558,-4885.19324 z" fill="#ffffff" stroke="none"/>
</g><g transform="translate(0,0.25624) scale(0.49962) translate(3661.49437,7580.7465)" stroke="#000000" stroke-width="0.60045" opacity="1" fill="none">
<path d="M-2529.83558,-4815.19324 L-2429.83558,-4815.19324 -2429.83558,-4885.19324 -2529.83558,-4885.19324 z"/>
</g><g transform="translate(0,0.25624) scale(0.49962) translate(3661.49437,7580.7465)" stroke="#ffffff" stroke-width="0.60045" opacity="1" fill="none">
<path d="M-1736.7933,-6247.95205 L-1642.82404,-6282.15407 -1643.9185,-6285.16108 -1653.31543,-6281.74088 -1657.7762,-6285.22535 -1727.31346,-6259.91586 -1728.49084,-6254.37927 -1737.88776,-6250.95907" fill="#ffffff" stroke="none"/>
</g><g transform="translate(0,0.25624) scale(0.49962) translate(3661.49437,7580.7465)" stroke="#000000" stroke-width="0.60045" opacity="1" fill="none">
<path d="M-1736.7933,-6247.95205 L-1642.82404,-6282.15407 -1643.9185,-6285.16108 -1653.31543,-6281.74088 -1657.7762,-6285.22535 -1727.31346,-6259.91586 -1728.49084,-6254.37927 -1737.88776,-6250.95907 z"/>

<path d="M-1653.31543,-6281.74088 L-1728.49084,-6254.37927"/>
</g><g transform="translate(0,0.25624) scale(0.49962) translate(3661.49437,7580.7465)" stroke="#ffffff" stroke-width="0.60045" opacity="1" fill="none">
<path d="M-1468.23995,-5671.5565 L-1468.23995,-5591.5565 -1190.81465,-5591.5565 -1190.81465,-5671.5565 z" fill="#ffffff" stroke="none"/>
</g><g transform="translate(0,0.25624) scale(0.49962) translate(3661.49437,7580.7465)" stroke="#000000" stroke-width="0.60045" opacity="1" fill="none">
<path d="M-1468.23995,-5671.5565 L-1468.23995,-5591.5565 -1190.81465,-5591.5565 -1190.81465,-5671.5565 z"/>

<path d="M-1468.23995,-5667.5565 L-1190.81465,-5667.5565"/>

<path d="M-1468.23995,-5595.5565 L-1190.81465,-5595.5565"/>

<line x1="-1468.23995" y1="-5631.5565" x2="-1190.81465" y2="-5631.5565"/>

<line x1="-1205.81465" y1="-5641.5565" x2="-1190.81465" y2="-5631.5565"/>

<line x1="-1205.81465" y1="-5621.5565" x2="-1190.81465" y2="-5631.5565"/>
</g><g transform="translate(0,0.25624) scale(0.49962) translate(3661.49437,7580.7465)" stroke="#ffffff" stroke-width="0.60045" opacity="1" fill="none">
<path d="M-1461.28399,-5446.50174 L-1461.28399,-5367.55649 -1190.48831,-5367.55649 -1190.48831,-5446.50174 z" fill="#ffffff" stroke="none"/>
</g><g transform="translate(0,0.25624) scale(0.49962) translate(3661.49437,7580.7465)" stroke="#000000" stroke-width="0.60045" opacity="1" fill="none">
<path d="M-1461.28399,-5446.50174 L-1461.28399,-5367.55649 -1190.48831,-5367.55649 -1190.48831,-5446.50174 z"/>

<path d="M-1461.28399,-5442.50174 L-1190.48831,-5442.50174"/>

<path d="M-1461.28399,-5371.55649 L-1190.48831,-5371.55649"/>

<line x1="-1461.28399" y1="-5407.02912" x2="-1190.48831" y2="-5407.02912"/>

<line x1="-1205.48831" y1="-5417.02912" x2="-1190.48831" y2="-5407.02912"/>

<line x1="-1205.48831" y1="-5397.02912" x2="-1190.48831" y2="-5407.02912"/>

<path d="M-1467.8456,-7218.05782 L-1467.8456,-7120.03929"/>

<path d="M-1477.8456,-7120.03929 L-1477.8456,-7125.03929 -1467.8456,-7125.03929"/>

<path d="M-1477.8456,-7218.05782 L-1477.8456,-7213.05782 -1467.8456,-7213.05782 -1379.82707,-7213.05782 C-1379.82707,-7164.44653 -1419.23431,-7125.03929 -1467.8456,-7125.03929"/>

<line x1="-1467.8456" y1="-7208.05782" x2="-1379.9692" y2="-7208.05782"/>

<path d="M-1319.95292,-6261.52082 L-1319.95292,-6359.13127"/>

<path d="M-1329.95292,-6359.13127 L-1329.95292,-6354.13127 -1319.95292,-6354.13127"/>

<path d="M-1329.95292,-6261.52082 L-1329.95292,-6266.52082 -1319.95292,-6266.52082 -1232.34247,-6266.52082 C-1232.34247,-6314.90674 -1271.567,-6354.13127 -1319.95292,-6354.13127"/>

<line x1="-1319.95292" y1="-6271.52082" x2="-1232.48526" y2="-6271.52082"/>

<path d="M-1452.14535,-6388.50892 L-1355.85941,-6388.50892"/>

<path d="M-1355.85941,-6378.50892 L-1360.85941,-6378.50892 -1360.85941,-6388.50892"/>

<path d="M-1452.14535,-6378.50892 L-1447.14535,-6378.50892 -1447.14535,-6388.50892 -1447.14535,-6474.79486 C-1399.49094,-6474.79486 -1360.85941,-6436.16333 -1360.85941,-6388.50892"/>

<line x1="-1442.14535" y1="-6388.50892" x2="-1442.14535" y2="-6474.64987"/>

<path d="M-1477.84498,-5043.74954 L-1477.84498,-5048.74954 -1427.84508,-5048.74954 C-1427.84508,-5073.6023 -1445.75365,-5093.74944 -1467.84498,-5093.74944 -1445.75365,-5093.74944 -1427.84508,-5113.89658 -1427.84508,-5138.74934 L-1477.84498,-5138.74934 -1477.84498,-5143.74934"/>

<line x1="-1467.84498" y1="-5043.74954" x2="-1467.84498" y2="-5143.74934"/>

<line x1="-1467.84498" y1="-5053.74954" x2="-1428.15881" y2="-5053.74954"/>

<line x1="-1467.84498" y1="-5133.74934" x2="-1428.15881" y2="-5133.74934"/>

<path d="M-1288.35714,-6068.34781 L-1288.35714,-6073.34781 -1350.04204,-6073.34781 C-1350.04204,-6104.65402 -1326.90192,-6130.03271 -1298.35714,-6130.03271 -1326.90192,-6130.03271 -1350.04204,-6155.4114 -1350.04204,-6186.71761 L-1288.35714,-6186.71761 -1288.35714,-6191.71761"/>

<line x1="-1298.35714" y1="-6068.34781" x2="-1298.35714" y2="-6191.71761"/>

<line x1="-1298.35714" y1="-6078.34781" x2="-1349.79962" y2="-6078.34781"/>

<line x1="-1298.35714" y1="-6181.71761" x2="-1349.79962" y2="-6181.71761"/>

<path d="M-1470.03372,-3698.64135 L-1469.7,-3837.94969"/>

<path d="M-1479.69997,-3837.97364 L-1479.71194,-3832.97366 -1469.71197,-3832.9497"/>

<path d="M-1480.03369,-3698.6653 L-1480.02172,-3703.66529 -1470.02174,-3703.64133 -1340.71337,-3703.33156 C-1340.54229,-3774.7466 -1398.29693,-3832.77862 -1469.71197,-3832.9497"/>

<line x1="-1470.00977" y1="-3708.64132" x2="-1340.7981" y2="-3708.33178"/>

<path d="M-1287.15655,-4868.75166 L-1287.15304,-4873.75166 -1347.15303,-4873.79372 C-1347.13173,-4904.16938 -1324.72871,-4928.77802 -1297.11448,-4928.75866 -1324.72871,-4928.77802 -1347.09721,-4953.41804 -1347.07592,-4983.7937 L-1287.07593,-4983.75164 -1287.07243,-4988.75163"/>

<line x1="-1297.15654" y1="-4868.75867" x2="-1297.07242" y2="-4988.75864"/>

<line x1="-1297.14953" y1="-4878.75867" x2="-1346.89889" y2="-4878.79355"/>

<line x1="-1297.07943" y1="-4978.75865" x2="-1346.82879" y2="-4978.79352"/>
</g><g transform="translate(0,0.25624) scale(0.49962) translate(3661.49437,7580.7465)" stroke="#ffffff" stroke-width="0.60045" opacity="1" fill="none">
<path d="M-998.56833,-5142.31006 L-1138.56833,-5142.31006 -1138.56833,-4842.31006 -998.56833,-4842.31006 z" fill="#ffffff" stroke="none"/>
</g><g transform="translate(0,0.25624) scale(0.49962) translate(3661.49437,7580.7465)" stroke="#000000" stroke-width="0.60045" opacity="1" fill="none">
<path d="M-998.56833,-5142.31006 L-1138.56833,-5142.31006 -1138.56833,-4842.31006 -998.56833,-4842.31006 z"/>

<path d="M-1002.56833,-5142.31006 L-1002.56833,-4842.31006"/>

<path d="M-1134.56833,-5142.31006 L-1134.56833,-4842.31006"/>

<line x1="-998.56833" y1="-4867.31006" x2="-1138.56833" y2="-4867.31006"/>

<line x1="-998.56833" y1="-4892.31006" x2="-1138.56833" y2="-4892.31006"/>

<line x1="-998.56833" y1="-4917.31006" x2="-1138.56833" y2="-4917.31006"/>

<line x1="-998.56833" y1="-4942.31006" x2="-1138.56833" y2="-4942.31006"/>

<line x1="-998.56833" y1="-4967.31006" x2="-1138.56833" y2="-4967.31006"/>

<line x1="-998.56833" y1="-4992.31006" x2="-1138.56833" y2="-4992.31006"/>

<line x1="-998.56833" y1="-5017.31006" x2="-1138.56833" y2="-5017.31006"/>

<line x1="-998.56833" y1="-5042.31006" x2="-1138.56833" y2="-5042.31006"/>

<line x1="-998.56833" y1="-5067.31006" x2="-1138.56833" y2="-5067.31006"/>

<line x1="-998.56833" y1="-5092.31006" x2="-1138.56833" y2="-5092.31006"/>

<line x1="-998.56833" y1="-5117.31006" x2="-1138.56833" y2="-5117.31006"/>

<line x1="-1068.56833" y1="-5142.31006" x2="-1068.56833" y2="-4842.31006"/>

<line x1="-1058.56833" y1="-4857.31006" x2="-1068.56833" y2="-4842.31006"/>

<line x1="-1078.56833" y1="-4857.31006" x2="-1068.56833" y2="-4842.31006"/>
</g><g transform="translate(0,0.25624) scale(0.49962) translate(3661.49437,7580.7465)" stroke="#ffffff" stroke-width="0.60045" opacity="1" fill="none">
<path d="M-858.56833,-6065.5565 L-998.56833,-6065.5565 -998.56833,-5763.71128 -858.56833,-5763.71128 z" fill="#ffffff" stroke="none"/>
</g><g transform="translate(0,0.25624) scale(0.49962) translate(3661.49437,7580.7465)" stroke="#000000" stroke-width="0.60045" opacity="1" fill="none">
<path d="M-858.56833,-6065.5565 L-998.56833,-6065.5565 -998.56833,-5763.71128 -858.56833,-5763.71128 z"/>

<path d="M-862.56833,-6065.5565 L-862.56833,-5763.71128"/>

<path d="M-994.56833,-6065.5565 L-994.56833,-5763.71128"/>

<line x1="-858.56833" y1="-5788.86505" x2="-998.56833" y2="-5788.86505"/>

<line x1="-858.56833" y1="-5814.01882" x2="-998.56833" y2="-5814.01882"/>

<line x1="-858.56833" y1="-5839.17258" x2="-998.56833" y2="-5839.17258"/>

<line x1="-858.56833" y1="-5864.32635" x2="-998.56833" y2="-5864.32635"/>

<line x1="-858.56833" y1="-5889.48012" x2="-998.56833" y2="-5889.48012"/>

<line x1="-858.56833" y1="-5914.63389" x2="-998.56833" y2="-5914.63389"/>

<line x1="-858.56833" y1="-5939.78766" x2="-998.56833" y2="-5939.78766"/>

<line x1="-858.56833" y1="-5964.94143" x2="-998.56833" y2="-5964.94143"/>

<line x1="-858.56833" y1="-5990.09519" x2="-998.56833" y2="-5990.09519"/>

<line x1="-858.56833" y1="-6015.24896" x2="-998.56833" y2="-6015.24896"/>

<line x1="-858.56833" y1="-6040.40273" x2="-998.56833" y2="-6040.40273"/>

<line x1="-928.56833" y1="-6065.5565" x2="-928.56833" y2="-5763.71128"/>

<line x1="-918.56833" y1="-5778.71128" x2="-928.56833" y2="-5763.71128"/>

<line x1="-938.56833" y1="-5778.71128" x2="-928.56833" y2="-5763.71128"/>
</g><g transform="translate(0,0.25624) scale(0.49962) translate(3661.49437,7580.7465)" stroke="#ffffff" stroke-width="0.60045" opacity="1" fill="none">
<path d="M-1138.56833,-5763.71128 L-998.56833,-5763.71128 -998.56833,-6065.5565 -1138.56833,-6065.5565 z" fill="#ffffff" stroke="none"/>
</g><g transform="translate(0,0.25624) scale(0.49962) translate(3661.49437,7580.7465)" stroke="#000000" stroke-width="0.60045" opacity="1" fill="none">
<path d="M-1138.56833,-5763.71128 L-998.56833,-5763.71128 -998.56833,-6065.5565 -1138.56833,-6065.5565 z"/>

<path d="M-1134.56833,-5763.71128 L-1134.56833,-6065.5565"/>

<path d="M-1002.56833,-5763.71128 L-1002.56833,-6065.5565"/>

<line x1="-1138.56833" y1="-6040.40273" x2="-998.56833" y2="-6040.40273"/>

<line x1="-1138.56833" y1="-6015.24896" x2="-998.56833" y2="-6015.24896"/>

<line x1="-1138.56833" y1="-5990.09519" x2="-998.56833" y2="-5990.09519"/>

<line x1="-1138.56833" y1="-5964.94143" x2="-998.56833" y2="-5964.94143"/>

<line x1="-1138.56833" y1="-5939.78766" x2="-998.56833" y2="-5939.78766"/>

<line x1="-1138.56833" y1="-5914.63389" x2="-998.56833" y2="-5914.63389"/>

<line x1="-1138.56833" y1="-5889.48012" x2="-998.56833" y2="-5889.48012"/>

<line x1="-1138.56833" y1="-5864.32635" x2="-998.56833" y2="-5864.32635"/>

<line x1="-1138.56833" y1="-5839.17258" x2="-998.56833" y2="-5839.17258"/>

<line x1="-1138.56833" y1="-5814.01882" x2="-998.56833" y2="-5814.01882"/>

<line x1="-1138.56833" y1="-5788.86505" x2="-998.56833" y2="-5788.86505"/>

<line x1="-1068.56833" y1="-5763.71128" x2="-1068.56833" y2="-6065.5565"/>

<line x1="-1078.56833" y1="-6050.5565" x2="-1068.56833" y2="-6065.5565"/>

<line x1="-1058.56833" y1="-6050.5565" x2="-1068.56833" y2="-6065.5565"/>
</g><g transform="translate(0,0.25624) scale(0.49962) translate(3661.49437,7580.7465)" stroke="#ffffff" stroke-width="0.60045" opacity="1" fill="none">
<path d="M-998.56833,-4842.31006 L-858.56833,-4842.31006 -858.56833,-5142.31006 -998.56833,-5142.31006 z" fill="#ffffff" stroke="none"/>
</g><g transform="translate(0,0.25624) scale(0.49962) translate(3661.49437,7580.7465)" stroke="#000000" stroke-width="0.60045" opacity="1" fill="none">
<path d="M-998.56833,-4842.31006 L-858.56833,-4842.31006 -858.56833,-5142.31006 -998.56833,-5142.31006 z"/>

<path d="M-994.56833,-4842.31006 L-994.56833,-5142.31006"/>

<path d="M-862.56833,-4842.31006 L-862.56833,-5142.31006"/>

<line x1="-998.56833" y1="-5117.31006" x2="-858.56833" y2="-5117.31006"/>

<line x1="-998.56833" y1="-5092.31006" x2="-858.56833" y2="-5092.31006"/>

<line x1="-998.56833" y1="-5067.31006" x2="-858.56833" y2="-5067.31006"/>

<line x1="-998.56833" y1="-5042.31006" x2="-858.56833" y2="-5042.31006"/>

<line x1="-998.56833" y1="-5017.31006" x2="-858.56833" y2="-5017.31006"/>

<line x1="-998.56833" y1="-4992.31006" x2="-858.56833" y2="-4992.31006"/>

<line x1="-998.56833" y1="-4967.31006" x2="-858.56833" y2="-4967.31006"/>

<line x1="-998.56833" y1="-4942.31006" x2="-858.56833" y2="-4942.31006"/>

<line x1="-998.56833" y1="-4917.31006" x2="-858.56833" y2="-4917.31006"/>

<line x1="-998.56833" y1="-4892.31006" x2="-858.56833" y2="-4892.31006"/>

<line x1="-998.56833" y1="-4867.31006" x2="-858.56833" y2="-4867.31006"/>

<line x1="-928.56833" y1="-4842.31006" x2="-928.56833" y2="-5142.31006"/>

<line x1="-938.56833" y1="-5127.31006" x2="-928.56833" y2="-5142.31006"/>

<line x1="-918.56833" y1="-5127.31006" x2="-928.56833" y2="-5142.31006"/>
</g><g transform="translate(0,0.25624) scale(0.49962) translate(3661.49437,7580.7465)" stroke="#ffffff" stroke-width="0.60045" opacity="1" fill="none">
<path d="M-1378.84498,-4875.16484 L-1378.84498,-4971.8163 -1348.84498,-4971.8163 -1348.84498,-4875.16484 -1377.34498,-4875.16484 -1377.34498,-4876.66484 -1350.34498,-4876.66484 -1350.34498,-4970.3163 -1377.34498,-4970.3163 -1377.34498,-4875.16484 z" fill="#ffffff" stroke="none"/>
</g><g transform="translate(0,0.25624) scale(0.49962) translate(3661.49437,7580.7465)" stroke="#138f49" stroke-width="0.60045" opacity="1" fill="none">
<path d="M-1377.34498,-4876.66484 L-1377.34498,-4970.3163 -1350.34498,-4970.3163 -1350.34498,-4876.66484 z" fill="#138f49" stroke="none"/>
</g><g transform="translate(0,0.25624) scale(0.49962) translate(3661.49437,7580.7465)" stroke="#ffffff" stroke-width="0.60045" opacity="1" fill="none">
<path d="M-1374.34498,-4906.40211 L-1360.67398,-4906.40211 -1360.67398,-4905.05169 -1357.79698,-4903.39357 -1357.79698,-4906.40211 -1355.23498,-4906.40211 -1353.34498,-4904.23118 -1353.34498,-4914.33373 -1354.77298,-4915.59869 -1354.77298,-4917.53031 -1353.34498,-4916.06022 -1353.34498,-4918.48757 -1355.27698,-4920.48757 -1374.34498,-4920.48757 z" fill="#ffffff" stroke="none"/>
</g><g transform="translate(0,0.25624) scale(0.49962) translate(3661.49437,7580.7465)" stroke="#138f49" stroke-width="0.60045" opacity="1" fill="none">
<path d="M-1369.64098,-4915.44484 L-1369.64098,-4909.27391 -1366.21798,-4907.23972 -1365.50398,-4908.40211 -1368.29698,-4910.07732 -1368.29698,-4912.72689 -1364.51698,-4910.7269 -1360.10698,-4909.90638 -1360.10698,-4905.44485 -1358.40598,-4904.41921 -1358.40598,-4911.34228 -1363.19398,-4912.31664 -1355.31898,-4916.16279 -1355.31898,-4918.09441 -1363.99198,-4913.90638 -1367.20498,-4915.73544 -1365.04198,-4917.78672 -1365.04198,-4920.48757 -1366.42798,-4920.48757 -1366.42798,-4918.36791 z" fill="#138f49" stroke="none"/>

<ellipse cx="-1371.59399" cy="-4915.66699" rx="1.638" ry="1.638" fill="#138f49"/>
</g><g transform="translate(0,0.25624) scale(0.49962) translate(3661.49437,7580.7465)" stroke="#ffffff" stroke-width="0.60045" opacity="1" fill="none">
<path d="M-1355.44503,-4931.75652 L-1355.44498,-4943.58757 -1367.27603,-4943.58752 -1372.24498,-4938.61857 -1363.80522,-4938.54001 -1372.03205,-4930.31319 -1368.71936,-4927.0005 -1360.49254,-4935.22733 -1360.41398,-4926.78757 z" fill="#ffffff" stroke="none"/>
</g><g transform="translate(0,0.25624) scale(0.49962) translate(2180.36189,2490.36656) rotate(90) translate(0,6.5)" stroke="#000000" stroke-width="0.60045" opacity="1" fill="none">
<text y="-2" font-size="13" stroke="none" fill="#8800cc" text-anchor="middle">Fire hose door</text>
</g><g transform="translate(0,0.25624) scale(0.49962) translate(2552.01365,3865.404)" stroke="#000000" stroke-width="0.60045" opacity="1" fill="none">
<text y="-12" font-size="63" stroke="none" fill="#8800cc" text-anchor="middle">Dialog Box 2</text>
</g><g transform="translate(0,0.25624) scale(0.49962) translate(1941.1764,2022.8469) rotate(90) translate(0,18.5)" stroke="#000000" stroke-width="0.60045" opacity="1" fill="none">
<text y="-7" font-size="37" stroke="none" fill="#8800cc" text-anchor="middle">Auditorium Reception</text>
</g><g transform="translate(0,0.25624) scale(0.49962) translate(2531.13132,938.19143)" stroke="#000000" stroke-width="0.60045" opacity="1" fill="none">
<text y="-12" font-size="63" stroke="none" fill="#8800cc" text-anchor="middle">Male facility</text>
</g><g transform="translate(0,0.25624) scale(0.49962) translate(2567.69907,1316.33519)" stroke="#000000" stroke-width="0.60045" opacity="1" fill="none">
<text y="-12" font-size="63" stroke="none" fill="#8800cc" text-anchor="middle">Female facility</text>
</g><g transform="translate(0,0.25624) scale(0.49962) translate(2593.69907,1475.90355)" stroke="#000000" stroke-width="0.60045" opacity="1" fill="none">
<text y="-12" font-size="63" stroke="none" fill="#8800cc" text-anchor="middle">Way to stairs</text>
</g><g transform="translate(0,0.25624) scale(0.49962) translate(2241.06615,2651.4796) rotate(90) translate(0,7.5)" stroke="#000000" stroke-width="0.60045" opacity="1" fill="none">
<text y="-3" font-size="15" stroke="none" fill="#8800cc" text-anchor="middle">Fire Exit</text>
</g><g transform="translate(0,0.25624) scale(0.49962) translate(2553.36514,391.16183)" stroke="#000000" stroke-width="0.60045" opacity="1" fill="none">
<text y="-12" font-size="63" stroke="none" fill="#8800cc" text-anchor="middle">Tapan Kumar</text>

<text y="-75" font-size="63" stroke="none" fill="#8800cc" text-anchor="middle">Director</text>
</g><g transform="translate(0,0.25624) scale(0.49962) translate(1359.31581,3413.02199)" stroke="#000000" stroke-width="0.60045" opacity="1" fill="none">
<text y="-20" font-size="100" stroke="none" fill="#8800cc" text-anchor="middle">Auditorium</text>
</g><g transform="translate(0,0.25624) scale(0.49962) translate(2313.98837,1981.34003)" stroke="#000000" stroke-width="0.60045" opacity="1" fill="none">
<text y="-12" font-size="63" stroke="none" fill="#8800cc" text-anchor="middle">Lift 1</text>
</g><g transform="translate(0,0.25624) scale(0.49962) translate(2296.89216,2202.9725)" stroke="#000000" stroke-width="0.60045" opacity="1" fill="none">
<text y="-12" font-size="63" stroke="none" fill="#8800cc" text-anchor="middle">Lift 2</text>
</g><g transform="translate(0,0.25624) scale(0.49962) translate(200.75,2485.07246) rotate(90) translate(0,100)" stroke="#000000" stroke-width="0.60045" opacity="1" fill="none">
<text y="-40" font-size="200" stroke="none" fill="#8800cc" text-anchor="middle">Startups</text>
</g><g transform="translate(0,0.25624) scale(0.49962) translate(3661.49437,7580.7465)" stroke="#006600" stroke-width="1.80135" opacity="1" fill="none">
<line x1="-2813.0684" y1="-7560.4965" x2="-807.313" y2="-7560.4965"/>
</g><g transform="translate(0,0.25624) scale(0.49962) translate(3661.49437,7580.7465)" stroke="#ffffff" stroke-width="0.60045" opacity="1" fill="none">
<line x1="-2813.0684" y1="-7560.4965" x2="-807.313" y2="-7560.4965"/>
</g><g transform="translate(0,0.25624) scale(0.49962) translate(3661.49437,7580.7465)" stroke="#006600" stroke-width="1.80135" opacity="1" fill="none">
<line x1="-2806.5684" y1="-7534.4965" x2="-2806.5684" y2="-7566.9965"/>
</g><g transform="translate(0,0.25624) scale(0.49962) translate(3661.49437,7580.7465)" stroke="#ffffff" stroke-width="0.60045" opacity="1" fill="none">
<line x1="-2806.5684" y1="-7534.4965" x2="-2806.5684" y2="-7566.9965"/>
</g><g transform="translate(0,0.25624) scale(0.49962) translate(3661.49437,7580.7465)" stroke="#006600" stroke-width="1.80135" opacity="1" fill="none">
<line x1="-2809.8184" y1="-7563.7465" x2="-2803.3184" y2="-7557.2465"/>
</g><g transform="translate(0,0.25624) scale(0.49962) translate(3661.49437,7580.7465)" stroke="#ffffff" stroke-width="0.60045" opacity="1" fill="none">
<line x1="-2809.8184" y1="-7563.7465" x2="-2803.3184" y2="-7557.2465"/>
</g><g transform="translate(0,0.25624) scale(0.49962) translate(3661.49437,7580.7465)" stroke="#006600" stroke-width="1.80135" opacity="1" fill="none">
<line x1="-2791.32845" y1="-7534.4965" x2="-2791.32845" y2="-7566.9965"/>
</g><g transform="translate(0,0.25624) scale(0.49962) translate(3661.49437,7580.7465)" stroke="#ffffff" stroke-width="0.60045" opacity="1" fill="none">
<line x1="-2791.32845" y1="-7534.4965" x2="-2791.32845" y2="-7566.9965"/>
</g><g transform="translate(0,0.25624) scale(0.49962) translate(3661.49437,7580.7465)" stroke="#006600" stroke-width="1.80135" opacity="1" fill="none">
<line x1="-2794.57845" y1="-7563.7465" x2="-2788.07845" y2="-7557.2465"/>
</g><g transform="translate(0,0.25624) scale(0.49962) translate(3661.49437,7580.7465)" stroke="#ffffff" stroke-width="0.60045" opacity="1" fill="none">
<line x1="-2794.57845" y1="-7563.7465" x2="-2788.07845" y2="-7557.2465"/>
</g><g transform="translate(0,0.25624) scale(0.49962) translate(862.54595,17)" stroke="#ffffff" stroke-width="0.60045" opacity="1" fill="none">
<text y="-2" font-size="13" stroke="black" stroke-width="0.30023" fill="white" text-anchor="middle">0.2</text>
</g><g transform="translate(0,0.25624) scale(0.49962) translate(3661.49437,7580.7465)" stroke="#006600" stroke-width="1.80135" opacity="1" fill="none">
<line x1="-829.053" y1="-7534.4965" x2="-829.053" y2="-7566.9965"/>
</g><g transform="translate(0,0.25624) scale(0.49962) translate(3661.49437,7580.7465)" stroke="#ffffff" stroke-width="0.60045" opacity="1" fill="none">
<line x1="-829.053" y1="-7534.4965" x2="-829.053" y2="-7566.9965"/>
</g><g transform="translate(0,0.25624) scale(0.49962) translate(3661.49437,7580.7465)" stroke="#006600" stroke-width="1.80135" opacity="1" fill="none">
<line x1="-832.303" y1="-7563.7465" x2="-825.803" y2="-7557.2465"/>
</g><g transform="translate(0,0.25624) scale(0.49962) translate(3661.49437,7580.7465)" stroke="#ffffff" stroke-width="0.60045" opacity="1" fill="none">
<line x1="-832.303" y1="-7563.7465" x2="-825.803" y2="-7557.2465"/>
</g><g transform="translate(0,0.25624) scale(0.49962) translate(1851.30365,17)" stroke="#ffffff" stroke-width="0.60045" opacity="1" fill="none">
<text y="-2" font-size="13" stroke="black" stroke-width="0.30023" fill="white" text-anchor="middle">19.6</text>
</g><g transform="translate(0,0.25624) scale(0.49962) translate(3661.49437,7580.7465)" stroke="#006600" stroke-width="1.80135" opacity="1" fill="none">
<line x1="-813.813" y1="-7534.4965" x2="-813.813" y2="-7566.9965"/>
</g><g transform="translate(0,0.25624) scale(0.49962) translate(3661.49437,7580.7465)" stroke="#ffffff" stroke-width="0.60045" opacity="1" fill="none">
<line x1="-813.813" y1="-7534.4965" x2="-813.813" y2="-7566.9965"/>
</g><g transform="translate(0,0.25624) scale(0.49962) translate(3661.49437,7580.7465)" stroke="#006600" stroke-width="1.80135" opacity="1" fill="none">
<line x1="-817.063" y1="-7563.7465" x2="-810.563" y2="-7557.2465"/>
</g><g transform="translate(0,0.25624) scale(0.49962) translate(3661.49437,7580.7465)" stroke="#ffffff" stroke-width="0.60045" opacity="1" fill="none">
<line x1="-817.063" y1="-7563.7465" x2="-810.563" y2="-7557.2465"/>
</g><g transform="translate(0,0.25624) scale(0.49962) translate(2840.06137,17)" stroke="#ffffff" stroke-width="0.60045" opacity="1" fill="none">
<text y="-2" font-size="13" stroke="black" stroke-width="0.30023" fill="white" text-anchor="middle">0.2</text>
</g><g transform="translate(0,0.25624) scale(0.49962) translate(3661.49437,7580.7465)" stroke="#006600" stroke-width="1.80135" opacity="1" fill="none">
<line x1="-2813.0684" y1="-3458.9129" x2="-807.313" y2="-3458.9129"/>
</g><g transform="translate(0,0.25624) scale(0.49962) translate(3661.49437,7580.7465)" stroke="#ffffff" stroke-width="0.60045" opacity="1" fill="none">
<line x1="-2813.0684" y1="-3458.9129" x2="-807.313" y2="-3458.9129"/>
</g><g transform="translate(0,0.25624) scale(0.49962) translate(3661.49437,7580.7465)" stroke="#006600" stroke-width="1.80135" opacity="1" fill="none">
<line x1="-2806.5684" y1="-3484.9129" x2="-2806.5684" y2="-3452.4129"/>
</g><g transform="translate(0,0.25624) scale(0.49962) translate(3661.49437,7580.7465)" stroke="#ffffff" stroke-width="0.60045" opacity="1" fill="none">
<line x1="-2806.5684" y1="-3484.9129" x2="-2806.5684" y2="-3452.4129"/>
</g><g transform="translate(0,0.25624) scale(0.49962) translate(3661.49437,7580.7465)" stroke="#006600" stroke-width="1.80135" opacity="1" fill="none">
<line x1="-2809.8184" y1="-3462.1629" x2="-2803.3184" y2="-3455.6629"/>
</g><g transform="translate(0,0.25624) scale(0.49962) translate(3661.49437,7580.7465)" stroke="#ffffff" stroke-width="0.60045" opacity="1" fill="none">
<line x1="-2809.8184" y1="-3462.1629" x2="-2803.3184" y2="-3455.6629"/>
</g><g transform="translate(0,0.25624) scale(0.49962) translate(3661.49437,7580.7465)" stroke="#006600" stroke-width="1.80135" opacity="1" fill="none">
<line x1="-2791.32845" y1="-3484.9129" x2="-2791.32845" y2="-3452.4129"/>
</g><g transform="translate(0,0.25624) scale(0.49962) translate(3661.49437,7580.7465)" stroke="#ffffff" stroke-width="0.60045" opacity="1" fill="none">
<line x1="-2791.32845" y1="-3484.9129" x2="-2791.32845" y2="-3452.4129"/>
</g><g transform="translate(0,0.25624) scale(0.49962) translate(3661.49437,7580.7465)" stroke="#006600" stroke-width="1.80135" opacity="1" fill="none">
<line x1="-2794.57845" y1="-3462.1629" x2="-2788.07845" y2="-3455.6629"/>
</g><g transform="translate(0,0.25624) scale(0.49962) translate(3661.49437,7580.7465)" stroke="#ffffff" stroke-width="0.60045" opacity="1" fill="none">
<line x1="-2794.57845" y1="-3462.1629" x2="-2788.07845" y2="-3455.6629"/>
</g><g transform="translate(0,0.25624) scale(0.49962) translate(862.54595,4118.5836)" stroke="#ffffff" stroke-width="0.60045" opacity="1" fill="none">
<text y="-2" font-size="13" stroke="black" stroke-width="0.30023" fill="white" text-anchor="middle">0.2</text>
</g><g transform="translate(0,0.25624) scale(0.49962) translate(3661.49437,7580.7465)" stroke="#006600" stroke-width="1.80135" opacity="1" fill="none">
<line x1="-829.053" y1="-3484.9129" x2="-829.053" y2="-3452.4129"/>
</g><g transform="translate(0,0.25624) scale(0.49962) translate(3661.49437,7580.7465)" stroke="#ffffff" stroke-width="0.60045" opacity="1" fill="none">
<line x1="-829.053" y1="-3484.9129" x2="-829.053" y2="-3452.4129"/>
</g><g transform="translate(0,0.25624) scale(0.49962) translate(3661.49437,7580.7465)" stroke="#006600" stroke-width="1.80135" opacity="1" fill="none">
<line x1="-832.303" y1="-3462.1629" x2="-825.803" y2="-3455.6629"/>
</g><g transform="translate(0,0.25624) scale(0.49962) translate(3661.49437,7580.7465)" stroke="#ffffff" stroke-width="0.60045" opacity="1" fill="none">
<line x1="-832.303" y1="-3462.1629" x2="-825.803" y2="-3455.6629"/>
</g><g transform="translate(0,0.25624) scale(0.49962) translate(1851.30365,4118.5836)" stroke="#ffffff" stroke-width="0.60045" opacity="1" fill="none">
<text y="-2" font-size="13" stroke="black" stroke-width="0.30023" fill="white" text-anchor="middle">19.6</text>
</g><g transform="translate(0,0.25624) scale(0.49962) translate(3661.49437,7580.7465)" stroke="#006600" stroke-width="1.80135" opacity="1" fill="none">
<line x1="-813.813" y1="-3484.9129" x2="-813.813" y2="-3452.4129"/>
</g><g transform="translate(0,0.25624) scale(0.49962) translate(3661.49437,7580.7465)" stroke="#ffffff" stroke-width="0.60045" opacity="1" fill="none">
<line x1="-813.813" y1="-3484.9129" x2="-813.813" y2="-3452.4129"/>
</g><g transform="translate(0,0.25624) scale(0.49962) translate(3661.49437,7580.7465)" stroke="#006600" stroke-width="1.80135" opacity="1" fill="none">
<line x1="-817.063" y1="-3462.1629" x2="-810.563" y2="-3455.6629"/>
</g><g transform="translate(0,0.25624) scale(0.49962) translate(3661.49437,7580.7465)" stroke="#ffffff" stroke-width="0.60045" opacity="1" fill="none">
<line x1="-817.063" y1="-3462.1629" x2="-810.563" y2="-3455.6629"/>
</g><g transform="translate(0,0.25624) scale(0.49962) translate(2840.06137,4118.5836)" stroke="#ffffff" stroke-width="0.60045" opacity="1" fill="none">
<text y="-2" font-size="13" stroke="black" stroke-width="0.30023" fill="white" text-anchor="middle">0.2</text>
</g><g transform="translate(0,0.25624) scale(0.49962) translate(3661.49437,7580.7465)" stroke="#006600" stroke-width="1.80135" opacity="1" fill="none">
<line x1="-2844.2684" y1="-7529.2965" x2="-2844.2684" y2="-3490.1129"/>
</g><g transform="translate(0,0.25624) scale(0.49962) translate(3661.49437,7580.7465)" stroke="#ffffff" stroke-width="0.60045" opacity="1" fill="none">
<line x1="-2844.2684" y1="-7529.2965" x2="-2844.2684" y2="-3490.1129"/>
</g><g transform="translate(0,0.25624) scale(0.49962) translate(3661.49437,7580.7465)" stroke="#006600" stroke-width="1.80135" opacity="1" fill="none">
<line x1="-2818.2684" y1="-7522.7965" x2="-2850.7684" y2="-7522.7965"/>
</g><g transform="translate(0,0.25624) scale(0.49962) translate(3661.49437,7580.7465)" stroke="#ffffff" stroke-width="0.60045" opacity="1" fill="none">
<line x1="-2818.2684" y1="-7522.7965" x2="-2850.7684" y2="-7522.7965"/>
</g><g transform="translate(0,0.25624) scale(0.49962) translate(3661.49437,7580.7465)" stroke="#006600" stroke-width="1.80135" opacity="1" fill="none">
<line x1="-2841.0184" y1="-7526.0465" x2="-2847.5184" y2="-7519.5465"/>
</g><g transform="translate(0,0.25624) scale(0.49962) translate(3661.49437,7580.7465)" stroke="#ffffff" stroke-width="0.60045" opacity="1" fill="none">
<line x1="-2841.0184" y1="-7526.0465" x2="-2847.5184" y2="-7519.5465"/>
</g><g transform="translate(0,0.25624) scale(0.49962) translate(3661.49437,7580.7465)" stroke="#006600" stroke-width="1.80135" opacity="1" fill="none">
<line x1="-2818.2684" y1="-7507.5565" x2="-2850.7684" y2="-7507.5565"/>
</g><g transform="translate(0,0.25624) scale(0.49962) translate(3661.49437,7580.7465)" stroke="#ffffff" stroke-width="0.60045" opacity="1" fill="none">
<line x1="-2818.2684" y1="-7507.5565" x2="-2850.7684" y2="-7507.5565"/>
</g><g transform="translate(0,0.25624) scale(0.49962) translate(3661.49437,7580.7465)" stroke="#006600" stroke-width="1.80135" opacity="1" fill="none">
<line x1="-2841.0184" y1="-7510.8065" x2="-2847.5184" y2="-7504.3065"/>
</g><g transform="translate(0,0.25624) scale(0.49962) translate(3661.49437,7580.7465)" stroke="#ffffff" stroke-width="0.60045" opacity="1" fill="none">
<line x1="-2841.0184" y1="-7510.8065" x2="-2847.5184" y2="-7504.3065"/>
</g><g transform="translate(0,0.25624) scale(0.49962) translate(800.97597,65.57) rotate(270) translate(0,13)" stroke="#ffffff" stroke-width="0.60045" opacity="1" fill="none">
<text y="-2" font-size="13" stroke="black" stroke-width="0.30023" fill="white" text-anchor="middle">0.2</text>
</g><g transform="translate(0,0.25624) scale(0.49962) translate(3661.49437,7580.7465)" stroke="#006600" stroke-width="1.80135" opacity="1" fill="none">
<line x1="-2818.2684" y1="-3511.85294" x2="-2850.7684" y2="-3511.85294"/>
</g><g transform="translate(0,0.25624) scale(0.49962) translate(3661.49437,7580.7465)" stroke="#ffffff" stroke-width="0.60045" opacity="1" fill="none">
<line x1="-2818.2684" y1="-3511.85294" x2="-2850.7684" y2="-3511.85294"/>
</g><g transform="translate(0,0.25624) scale(0.49962) translate(3661.49437,7580.7465)" stroke="#006600" stroke-width="1.80135" opacity="1" fill="none">
<line x1="-2841.0184" y1="-3515.10294" x2="-2847.5184" y2="-3508.60294"/>
</g><g transform="translate(0,0.25624) scale(0.49962) translate(3661.49437,7580.7465)" stroke="#ffffff" stroke-width="0.60045" opacity="1" fill="none">
<line x1="-2841.0184" y1="-3515.10294" x2="-2847.5184" y2="-3508.60294"/>
</g><g transform="translate(0,0.25624) scale(0.49962) translate(800.97597,2071.04178) rotate(270) translate(0,13)" stroke="#ffffff" stroke-width="0.60045" opacity="1" fill="none">
<text y="-2" font-size="13" stroke="black" stroke-width="0.30023" fill="white" text-anchor="middle">40</text>
</g><g transform="translate(0,0.25624) scale(0.49962) translate(3661.49437,7580.7465)" stroke="#006600" stroke-width="1.80135" opacity="1" fill="none">
<line x1="-2818.2684" y1="-3496.6129" x2="-2850.7684" y2="-3496.6129"/>
</g><g transform="translate(0,0.25624) scale(0.49962) translate(3661.49437,7580.7465)" stroke="#ffffff" stroke-width="0.60045" opacity="1" fill="none">
<line x1="-2818.2684" y1="-3496.6129" x2="-2850.7684" y2="-3496.6129"/>
</g><g transform="translate(0,0.25624) scale(0.49962) translate(3661.49437,7580.7465)" stroke="#006600" stroke-width="1.80135" opacity="1" fill="none">
<line x1="-2841.0184" y1="-3499.8629" x2="-2847.5184" y2="-3493.3629"/>
</g><g transform="translate(0,0.25624) scale(0.49962) translate(3661.49437,7580.7465)" stroke="#ffffff" stroke-width="0.60045" opacity="1" fill="none">
<line x1="-2841.0184" y1="-3499.8629" x2="-2847.5184" y2="-3493.3629"/>
</g><g transform="translate(0,0.25624) scale(0.49962) translate(800.97597,4076.51358) rotate(270) translate(0,13)" stroke="#ffffff" stroke-width="0.60045" opacity="1" fill="none">
<text y="-2" font-size="13" stroke="black" stroke-width="0.30023" fill="white" text-anchor="middle">0.2</text>
</g><g transform="translate(0,0.25624) scale(0.49962) translate(3661.49437,7580.7465)" stroke="#006600" stroke-width="1.80135" opacity="1" fill="none">
<line x1="-776.113" y1="-7529.2965" x2="-776.113" y2="-3490.1129"/>
</g><g transform="translate(0,0.25624) scale(0.49962) translate(3661.49437,7580.7465)" stroke="#ffffff" stroke-width="0.60045" opacity="1" fill="none">
<line x1="-776.113" y1="-7529.2965" x2="-776.113" y2="-3490.1129"/>
</g><g transform="translate(0,0.25624) scale(0.49962) translate(3661.49437,7580.7465)" stroke="#006600" stroke-width="1.80135" opacity="1" fill="none">
<line x1="-802.113" y1="-7522.7965" x2="-769.613" y2="-7522.7965"/>
</g><g transform="translate(0,0.25624) scale(0.49962) translate(3661.49437,7580.7465)" stroke="#ffffff" stroke-width="0.60045" opacity="1" fill="none">
<line x1="-802.113" y1="-7522.7965" x2="-769.613" y2="-7522.7965"/>
</g><g transform="translate(0,0.25624) scale(0.49962) translate(3661.49437,7580.7465)" stroke="#006600" stroke-width="1.80135" opacity="1" fill="none">
<line x1="-772.863" y1="-7526.0465" x2="-779.363" y2="-7519.5465"/>
</g><g transform="translate(0,0.25624) scale(0.49962) translate(3661.49437,7580.7465)" stroke="#ffffff" stroke-width="0.60045" opacity="1" fill="none">
<line x1="-772.863" y1="-7526.0465" x2="-779.363" y2="-7519.5465"/>
</g><g transform="translate(0,0.25624) scale(0.49962) translate(3661.49437,7580.7465)" stroke="#006600" stroke-width="1.80135" opacity="1" fill="none">
<line x1="-802.113" y1="-7507.5565" x2="-769.613" y2="-7507.5565"/>
</g><g transform="translate(0,0.25624) scale(0.49962) translate(3661.49437,7580.7465)" stroke="#ffffff" stroke-width="0.60045" opacity="1" fill="none">
<line x1="-802.113" y1="-7507.5565" x2="-769.613" y2="-7507.5565"/>
</g><g transform="translate(0,0.25624) scale(0.49962) translate(3661.49437,7580.7465)" stroke="#006600" stroke-width="1.80135" opacity="1" fill="none">
<line x1="-772.863" y1="-7510.8065" x2="-779.363" y2="-7504.3065"/>
</g><g transform="translate(0,0.25624) scale(0.49962) translate(3661.49437,7580.7465)" stroke="#ffffff" stroke-width="0.60045" opacity="1" fill="none">
<line x1="-772.863" y1="-7510.8065" x2="-779.363" y2="-7504.3065"/>
</g><g transform="translate(0,0.25624) scale(0.49962) translate(2869.13137,65.57) rotate(270) translate(0,13)" stroke="#ffffff" stroke-width="0.60045" opacity="1" fill="none">
<text y="-2" font-size="13" stroke="black" stroke-width="0.30023" fill="white" text-anchor="middle">0.2</text>
</g><g transform="translate(0,0.25624) scale(0.49962) translate(3661.49437,7580.7465)" stroke="#006600" stroke-width="1.80135" opacity="1" fill="none">
<line x1="-802.113" y1="-3511.85294" x2="-769.613" y2="-3511.85294"/>
</g><g transform="translate(0,0.25624) scale(0.49962) translate(3661.49437,7580.7465)" stroke="#ffffff" stroke-width="0.60045" opacity="1" fill="none">
<line x1="-802.113" y1="-3511.85294" x2="-769.613" y2="-3511.85294"/>
</g><g transform="translate(0,0.25624) scale(0.49962) translate(3661.49437,7580.7465)" stroke="#006600" stroke-width="1.80135" opacity="1" fill="none">
<line x1="-772.863" y1="-3515.10294" x2="-779.363" y2="-3508.60294"/>
</g><g transform="translate(0,0.25624) scale(0.49962) translate(3661.49437,7580.7465)" stroke="#ffffff" stroke-width="0.60045" opacity="1" fill="none">
<line x1="-772.863" y1="-3515.10294" x2="-779.363" y2="-3508.60294"/>
</g><g transform="translate(0,0.25624) scale(0.49962) translate(2869.13137,2071.04178) rotate(270) translate(0,13)" stroke="#ffffff" stroke-width="0.60045" opacity="1" fill="none">
<text y="-2" font-size="13" stroke="black" stroke-width="0.30023" fill="white" text-anchor="middle">40</text>
</g><g transform="translate(0,0.25624) scale(0.49962) translate(3661.49437,7580.7465)" stroke="#006600" stroke-width="1.80135" opacity="1" fill="none">
<line x1="-802.113" y1="-3496.6129" x2="-769.613" y2="-3496.6129"/>
</g><g transform="translate(0,0.25624) scale(0.49962) translate(3661.49437,7580.7465)" stroke="#ffffff" stroke-width="0.60045" opacity="1" fill="none">
<line x1="-802.113" y1="-3496.6129" x2="-769.613" y2="-3496.6129"/>
</g><g transform="translate(0,0.25624) scale(0.49962) translate(3661.49437,7580.7465)" stroke="#006600" stroke-width="1.80135" opacity="1" fill="none">
<line x1="-772.863" y1="-3499.8629" x2="-779.363" y2="-3493.3629"/>
</g><g transform="translate(0,0.25624) scale(0.49962) translate(3661.49437,7580.7465)" stroke="#ffffff" stroke-width="0.60045" opacity="1" fill="none">
<line x1="-772.863" y1="-3499.8629" x2="-779.363" y2="-3493.3629"/>
</g><g transform="translate(0,0.25624) scale(0.49962) translate(2869.13137,4076.51358) rotate(270) translate(0,13)" stroke="#ffffff" stroke-width="0.60045" opacity="1" fill="none">
<text y="-2" font-size="13" stroke="black" stroke-width="0.30023" fill="white" text-anchor="middle">0.2</text></g></g>
</svg>