<?xml version="1.0" encoding="UTF-8" standalone="no"?>
<!DOCTYPE svg PUBLIC "-//W3C//DTD SVG 1.1//EN"
"http://www.w3.org/Graphics/SVG/1.1/DTD/svg11.dtd">
<svg xmlns="http://www.w3.org/2000/svg"
xmlns:xlink="http://www.w3.org/1999/xlink" xml:space="preserve"
width="1049pt" height="2199pt"
viewBox="0 0 1049 2199">
<g font-family="sans-serif" font-weight="bold">
<g transform="translate(0,1.07832) scale(0.49925) translate(7033.53,5912.65857)" stroke="#773dde" fill="none">
<path d="M-4994.9323,-1711.488 L-6975.58,-1711.488 -6975.58,-5737.6716 -4994.9323,-5737.6716 z" fill="#773dde" stroke="none"/>
</g><g transform="translate(0,1.07832) scale(0.49925) translate(7033.53,5912.65857)" stroke="#fff6e8" fill="none">
<path d="M-5010.1723,-1726.728 L-5010.1723,-5722.4316 -6960.34,-5722.4316 -6960.34,-4407.6378 -6975.58,-4407.6378 -6975.58,-3011.4917 -6960.34,-3011.4917 -6960.34,-1726.728 z" fill="#fff6e8" stroke="none"/>
</g><g transform="translate(0,1.07832) scale(0.49925) translate(7033.53,5912.65857)" stroke="#773dde" stroke-width="1.8027" fill="none">
<path d="M-6073.0653,-3066.575 L-6085.0673,-3066.575 -6085.0673,-4326.9189 -6073.0653,-4326.9189 z" fill="#773dde" stroke="none"/>

<path d="M-6416.9238,-4326.5801 L-6420.9686,-3066.575 -6432.9706,-3066.6135 -6428.9257,-4326.6186 z" fill="#773dde" stroke="none"/>

<path d="M-5647.9639,-5142.9319 L-5659.9659,-5142.9319 -5659.9659,-5334.9144 -5647.9639,-5334.9144 z M-5647.9639,-5432.9329 L-5659.9659,-5432.9329 -5659.9659,-5722.9339 -5647.9639,-5722.9339 z" fill="#773dde" stroke="none"/>

<path d="M-5010.162,-5154.4326 L-5010.1713,-5142.4306 -5659.9659,-5142.9319 -5659.9566,-5154.9339 z" fill="#773dde" stroke="none"/>

<path d="M-5010.1713,-4409.383 L-5659.9652,-4409.383 -5659.9652,-4459.385 -5010.1713,-4459.385 z" fill="#773dde" stroke="none"/>

<path d="M-5647.9639,-4604.383 L-5659.9659,-4604.3824 -5659.9938,-5143.7512 -5647.9918,-5143.7519 z" fill="#773dde" stroke="none"/>

<path d="M-5647.9632,-3806.4306 L-5659.9652,-3806.4306 -5659.9652,-3886.4326 -5647.9632,-3886.4326 z" fill="#773dde" stroke="none"/>

<path d="M-5359.9632,-4268.4306 L-5659.9652,-4268.4306 -5659.9652,-4280.4326 -5359.9632,-4280.4326 z" fill="#773dde" stroke="none"/>

<path d="M-5500.0712,-4459.383 L-5512.0732,-4459.383 -5512.0732,-4476.3959 -5500.0712,-4476.3959 z M-5500.0712,-4574.0064 L-5512.0732,-4574.0064 -5512.0732,-4604.385 -5500.0712,-4604.385 z" fill="#773dde" stroke="none"/>

<path d="M-5633.2646,-4592.383 L-5659.9652,-4592.383 -5659.9652,-4604.385 -5633.2646,-4604.385 z M-5010.0127,-4592.383 L-5536.9787,-4592.383 -5536.9787,-4604.385 -5010.0127,-4604.385 z" fill="#773dde" stroke="none"/>

<path d="M-5359.9632,-3886.4306 L-5659.9652,-3886.4306 -5659.9652,-3898.4326 -5359.9632,-3898.4326 z" fill="#773dde" stroke="none"/>

<path d="M-5647.9632,-3205.4306 L-5659.9652,-3205.4306 -5659.9652,-3258.6246 -5647.9632,-3258.6246 z M-5647.9632,-3358.6244 L-5659.9652,-3358.6244 -5659.9652,-3570.4326 -5647.9632,-3570.4326 z" fill="#773dde" stroke="none"/>

<path d="M-5468.4754,-4280.4306 L-5480.4774,-4280.4306 -5480.4774,-4283.2229 -5468.4754,-4283.2229 z M-5468.4754,-4406.5927 L-5480.4774,-4406.5927 -5480.4774,-4409.385 -5468.4754,-4409.385 z" fill="#773dde" stroke="none"/>

<path d="M-5647.9632,-3898.4306 L-5659.9652,-3898.4306 -5659.9652,-4268.4326 -5647.9632,-4268.4326 z" fill="#773dde" stroke="none"/>

<path d="M-5359.9632,-3794.4306 L-5659.9652,-3794.4306 -5659.9652,-3806.4326 -5359.9632,-3806.4326 z" fill="#773dde" stroke="none"/>

<path d="M-5359.9329,-3806.4306 L-5371.9349,-3806.4306 -5371.9349,-3886.4326 -5359.9329,-3886.4326 z" fill="#773dde" stroke="none"/>

<path d="M-5647.9632,-3674.4306 L-5659.9652,-3674.4306 -5659.9652,-3794.4326 -5647.9632,-3794.4326 z" fill="#773dde" stroke="none"/>

<path d="M-5359.9632,-3662.4306 L-5659.9652,-3662.4306 -5659.9652,-3674.4326 -5359.9632,-3674.4326 z" fill="#773dde" stroke="none"/>

<path d="M-5359.9632,-3570.4306 L-5659.9652,-3570.4306 -5659.9652,-3582.4326 -5359.9632,-3582.4326 z" fill="#773dde" stroke="none"/>

<path d="M-5647.9632,-3582.4306 L-5659.9652,-3582.4306 -5659.9652,-3662.4326 -5647.9632,-3662.4326 z" fill="#773dde" stroke="none"/>

<path d="M-5359.9632,-3582.4306 L-5371.9652,-3582.4306 -5371.9652,-3662.4326 -5359.9632,-3662.4326 z" fill="#773dde" stroke="none"/>

<path d="M-5559.9632,-3357.1841 L-5659.9652,-3357.1841 -5659.9652,-3369.1861 -5559.9632,-3369.1861 z" fill="#773dde" stroke="none"/>

<path d="M-5559.9632,-3257.1841 L-5571.9652,-3257.1841 -5571.9652,-3357.1861 -5559.9632,-3357.1861 z" fill="#773dde" stroke="none"/>

<path d="M-5359.0865,-3207.1841 L-5659.0885,-3207.1841 -5659.0885,-3257.1861 -5359.0865,-3257.1861 z" fill="#773dde" stroke="none"/>

<path d="M-5647.9632,-2827.176 L-5659.9652,-2827.176 -5659.9652,-3030.0693 -5647.9632,-3030.0693 z" fill="#773dde" stroke="none"/>

<path d="M-5359.9632,-3030.0673 L-5659.9652,-3030.0673 -5659.9652,-3080.0693 -5359.9632,-3080.0693 z" fill="#773dde" stroke="none"/>

<path d="M-5010.1713,-2815.1841 L-5659.9652,-2815.1841 -5659.9652,-2827.1861 -5010.1713,-2827.1861 z" fill="#773dde" stroke="none"/>

<path d="M-5650.152,-1913.514 L-5650.5995,-1726.6983 -5662.6015,-1726.727 -5662.154,-1913.5428 z M-5647.9633,-2827.1574 L-5649.8183,-2052.8223 -5661.8202,-2052.8512 -5659.9652,-2827.1861 z" fill="#773dde" stroke="none"/>

<path d="M-5359.9632,-3898.4306 L-5371.9652,-3898.4306 -5371.9652,-4268.4326 -5359.9632,-4268.4326 z" fill="#773dde" stroke="none"/>

<path d="M-5359.0865,-3225.4518 L-5371.0885,-3225.4343 -5371.9652,-3827.2511 -5359.9633,-3827.2686 z" fill="#773dde" stroke="none"/>

<path d="M-4998.0467,-2185.9164 L-5647.8407,-2185.9164 -5647.8407,-2197.9184 -4998.0467,-2197.9184 z" fill="#773dde" stroke="none"/>

<path d="M-6085.0653,-3066.575 L-6420.9368,-3066.575 -6420.9368,-3078.577 -6085.0653,-3078.577 z" fill="#773dde" stroke="none"/>

<path d="M-6083.5946,-4314.917 L-6427.1873,-4314.5879 -6427.1988,-4326.5899 -6083.6061,-4326.919 z" fill="#773dde" stroke="none"/>

<path d="M-6822.3198,-3011.485 L-6832.3218,-3011.485 -6832.3218,-4407.6873 -6822.3198,-4407.6873 z" fill="#773dde" stroke="none"/>

<path d="M-6822.3198,-3001.485 L-6974.9049,-3001.485 -6974.9049,-3011.487 -6822.3198,-3011.487 z" fill="#773dde" stroke="none"/>

<path d="M-6822.3198,-4407.6853 L-6960.341,-4407.6853 -6960.341,-4417.6873 -6822.3198,-4417.6873 z" fill="#773dde" stroke="none"/>

<path d="M-6085.0653,-3682.5854 L-6419.2751,-3682.5854 -6419.2751,-3692.5874 -6085.0653,-3692.5874 z" fill="#773dde" stroke="none"/>

<path d="M-6085.0653,-3376.0275 L-6419.9451,-3376.0275 -6419.9451,-3386.0295 -6085.0653,-3386.0295 z" fill="#773dde" stroke="none"/>

<path d="M-6085.0653,-3999.1433 L-6417.9448,-3999.1433 -6417.9448,-4009.1453 -6085.0653,-4009.1453 z" fill="#773dde" stroke="none"/>

<path d="M-5468.0218,-3068.3285 L-5478.0238,-3068.3285 -5478.0238,-3082.8201 -5468.0218,-3082.8201 z M-5468.0218,-3204.9711 L-5478.0238,-3204.9711 -5478.0238,-3207.1861 -5468.0218,-3207.1861 z" fill="#773dde" stroke="none"/>

<path d="M-6274.0898,-4402.2905 L-6362.848,-4402.2905 -6362.848,-4412.2925 -6274.0898,-4412.2925 z" fill="#773dde" stroke="none"/>

<path d="M-6352.846,-4317.5555 L-6362.848,-4317.5555 -6362.848,-4412.2925 -6352.846,-4412.2925 z" fill="#773dde" stroke="none"/>

<path d="M-6274.0898,-4326.1196 L-6284.0918,-4326.1196 -6284.0918,-4412.2926 -6274.0898,-4412.2926 z" fill="#773dde" stroke="none"/>

<path d="M-6274.0898,-5071.1723 L-6364.4472,-5071.1723 -6364.4472,-5081.1743 -6274.0898,-5081.1743 z" fill="#773dde" stroke="none"/>

<path d="M-6354.4452,-4990.2187 L-6364.4472,-4990.2187 -6364.4472,-5081.1743 -6354.4452,-5081.1743 z" fill="#773dde" stroke="none"/>

<path d="M-6275.4021,-4990.2187 L-6364.4472,-4990.2187 -6364.4472,-5000.2207 -6275.4021,-5000.2207 z" fill="#773dde" stroke="none"/>

<path d="M-6274.5138,-5081.1743 L-6275.4021,-4990.2187 -6285.4036,-4990.3163 -6284.5153,-5081.272 z" fill="#773dde" stroke="none"/>

<path d="M-6690.1973,-4990.2187 L-6780.1993,-4990.2187 -6780.1993,-5000.2207 -6690.1973,-5000.2207 z" fill="#773dde" stroke="none"/>

<path d="M-6690.1973,-5075.2318 L-6780.1993,-5075.2318 -6780.1993,-5085.2338 -6690.1973,-5085.2338 z" fill="#773dde" stroke="none"/>

<path d="M-6690.1973,-4995.2318 L-6700.1993,-4995.2318 -6700.1993,-5085.2338 -6690.1973,-5085.2338 z" fill="#773dde" stroke="none"/>

<path d="M-6770.1973,-4995.2318 L-6780.1993,-4995.2318 -6780.1993,-5085.2338 -6770.1973,-5085.2338 z" fill="#773dde" stroke="none"/>

<path d="M-6274.0898,-2977.8743 L-6284.0918,-2977.8743 -6284.0918,-3066.1055 -6274.0898,-3066.1055 z" fill="#773dde" stroke="none"/>

<path d="M-6352.846,-2977.8743 L-6362.848,-2977.8743 -6362.848,-3066.1055 -6352.846,-3066.1055 z" fill="#773dde" stroke="none"/>

<path d="M-6274.0898,-2977.8743 L-6362.848,-2977.8743 -6362.848,-2987.8763 -6274.0898,-2987.8763 z" fill="#773dde" stroke="none"/>

<path d="M-6273.9758,-2230.1266 L-6283.9778,-2230.1266 -6283.9778,-2320.1286 -6273.9758,-2320.1286 z" fill="#773dde" stroke="none"/>

<path d="M-6352.846,-2230.1266 L-6362.848,-2230.1266 -6362.848,-2320.1286 -6352.846,-2320.1286 z" fill="#773dde" stroke="none"/>

<path d="M-6273.9758,-2310.1266 L-6362.848,-2310.1266 -6362.848,-2320.1286 -6273.9758,-2320.1286 z" fill="#773dde" stroke="none"/>

<path d="M-6273.9758,-2230.1266 L-6362.848,-2230.1266 -6362.848,-2240.1286 -6273.9758,-2240.1286 z" fill="#773dde" stroke="none"/>

<path d="M-6693.5918,-2230.1266 L-6780.1993,-2230.1266 -6780.1993,-2240.1286 -6693.5918,-2240.1286 z" fill="#773dde" stroke="none"/>

<path d="M-6693.5918,-2305.7501 L-6780.1993,-2305.7501 -6780.1993,-2315.7521 -6693.5918,-2315.7521 z" fill="#773dde" stroke="none"/>

<path d="M-6693.5918,-2230.1266 L-6703.5938,-2230.1266 -6703.5938,-2315.7521 -6693.5918,-2315.7521 z" fill="#773dde" stroke="none"/>

<path d="M-6770.1973,-2230.1266 L-6780.1993,-2230.1266 -6780.1993,-2315.7521 -6770.1973,-2315.7521 z" fill="#773dde" stroke="none"/>
</g><g transform="translate(0,1.07832) scale(0.49925) translate(7033.53,5912.65857)" stroke="#111111" stroke-width="1.8027" fill="none">
<path d="M-4994.9323,-1711.488 L-6975.58,-1711.488 -6975.58,-3011.4917 -6960.34,-3011.4917 -6960.34,-3011.487 -6832.3218,-3011.487 -6832.3218,-4407.6853 -6960.34,-4407.6853 -6960.34,-4407.6378 -6975.58,-4407.6378 -6975.58,-5737.6716 -4994.9323,-5737.6716 z M-6960.34,-3001.485 L-6960.34,-1726.728 -5662.6015,-1726.728 -5662.154,-1913.5428 -5650.152,-1913.514 -5650.5994,-1726.728 -5010.1723,-1726.728 -5010.1723,-2185.9164 -5647.8407,-2185.9164 -5647.8407,-2197.9184 -5010.1723,-2197.9184 -5010.1723,-2815.1841 -5647.992,-2815.1841 -5649.8183,-2052.8223 -5661.8202,-2052.8512 -5659.9652,-2827.1861 -5659.9652,-3080.0693 -5478.0238,-3080.0693 -5478.0238,-3082.8201 -5468.0218,-3082.8201 -5468.0218,-3080.0693 -5359.9632,-3080.0693 -5359.9632,-3030.0673 -5647.9632,-3030.0673 -5647.9632,-2827.1861 -5010.1723,-2827.1861 -5010.1723,-4409.383 -5468.4754,-4409.383 -5468.4754,-4406.5927 -5480.4774,-4406.5927 -5480.4774,-4409.383 -5659.9652,-4409.383 -5659.9652,-4459.385 -5512.0732,-4459.385 -5512.0732,-4476.3959 -5500.0712,-4476.3959 -5500.0712,-4459.385 -5010.1723,-4459.385 -5010.1723,-4592.383 -5500.0712,-4592.383 -5500.0712,-4574.0064 -5512.0732,-4574.0064 -5512.0732,-4592.383 -5536.9787,-4592.383 -5536.9787,-4604.385 -5010.1723,-4604.385 -5010.1723,-5142.4306 -5647.9918,-5142.9227 -5647.9639,-4604.385 -5633.2646,-4604.385 -5633.2646,-4592.383 -5659.9652,-4592.383 -5659.9652,-4604.3824 -5659.9659,-4604.3824 -5659.9938,-5143.7512 -5659.9659,-5143.7512 -5659.9659,-5334.9144 -5647.9639,-5334.9144 -5647.9639,-5154.9246 -5010.1723,-5154.4326 -5010.1723,-5722.4316 -5647.9639,-5722.4316 -5647.9639,-5432.9329 -5659.9659,-5432.9329 -5659.9659,-5722.4316 -6960.34,-5722.4316 -6960.34,-4417.6873 -6822.3198,-4417.6873 -6822.3198,-3001.485 z M-6780.1993,-2230.1266 L-6780.1993,-2315.7521 -6693.5918,-2315.7521 -6693.5918,-2230.1266 z M-6362.848,-2230.1266 L-6362.848,-2320.1286 -6273.9758,-2320.1286 -6273.9758,-2230.1266 z M-6352.846,-2310.1266 L-6352.846,-2240.1286 -6283.9778,-2240.1286 -6283.9778,-2310.1266 z M-6770.1973,-2305.7501 L-6770.1973,-2240.1286 -6703.5938,-2240.1286 -6703.5938,-2305.7501 z M-6362.848,-2977.8743 L-6362.848,-3066.1055 -6352.846,-3066.1055 -6352.846,-2987.8763 -6284.0918,-2987.8763 -6284.0918,-3066.1055 -6274.0898,-3066.1055 -6274.0898,-2977.8743 z M-6085.0673,-4326.9176 L-6085.0673,-4326.9189 -6083.7105,-4326.9189 -6083.6061,-4326.919 -6083.6061,-4326.9189 -6073.0653,-4326.9189 -6073.0653,-3066.575 -6420.9368,-3066.575 -6420.9368,-3076.4811 -6420.9686,-3066.575 -6432.9706,-3066.6135 -6428.9257,-4326.6186 -6421.6389,-4326.5952 -6362.848,-4326.6515 -6362.848,-4412.2925 -6284.0918,-4412.2925 -6284.0918,-4412.2926 -6274.0898,-4412.2926 -6274.0898,-4326.7366 z M-6420.9301,-3078.577 L-6085.0673,-3078.577 -6085.0673,-3376.0275 -6419.9451,-3376.0275 -6419.9451,-3385.4079 z M-5359.9329,-3886.4326 L-5359.9329,-3806.4306 -5359.1327,-3257.1861 -5359.0865,-3257.1861 -5359.0865,-3207.1841 -5468.0218,-3207.1841 -5468.0218,-3204.9711 -5478.0238,-3204.9711 -5478.0238,-3207.1841 -5647.9632,-3207.1841 -5647.9632,-3205.4306 -5659.9652,-3205.4306 -5659.9652,-3258.6246 -5647.9632,-3258.6246 -5647.9632,-3257.1861 -5571.9652,-3257.1861 -5571.9652,-3357.1841 -5659.9652,-3357.1841 -5659.9652,-4280.4326 -5480.4774,-4280.4326 -5480.4774,-4283.2229 -5468.4754,-4283.2229 -5468.4754,-4280.4326 -5359.9632,-4280.4326 -5359.9632,-3886.4326 z M-5371.1348,-3257.1861 L-5371.5911,-3570.4306 -5647.9632,-3570.4306 -5647.9632,-3369.1861 -5559.9632,-3369.1861 -5559.9632,-3257.1861 z M-6418.9911,-3682.5854 L-6419.9431,-3386.0295 -6085.0673,-3386.0295 -6085.0673,-3682.5854 z M-5647.9632,-3662.4306 L-5647.9632,-3582.4326 -5371.9652,-3582.4326 -5371.9652,-3662.4306 z M-5647.9632,-3794.4306 L-5647.9632,-3674.4326 -5371.7426,-3674.4326 -5371.9174,-3794.4306 z M-6418.959,-3692.5874 L-6085.0673,-3692.5874 -6085.0673,-3999.1433 -6417.9448,-3999.1433 -6417.9448,-4008.526 z M-5647.9632,-3886.4306 L-5647.9632,-3806.4326 -5371.9349,-3806.4326 -5371.9652,-3827.2511 -5371.9349,-3827.2511 -5371.9349,-3886.4306 z M-5647.9632,-4268.4306 L-5647.9632,-3898.4326 -5371.9652,-3898.4326 -5371.9652,-4268.4306 z M-6416.9623,-4314.5977 L-6417.9428,-4009.1453 -6085.0673,-4009.1453 -6085.0673,-4314.9156 z M-6352.846,-4402.2905 L-6352.846,-4326.6611 -6284.0918,-4326.727 -6284.0918,-4402.2905 z M-6780.1993,-4990.2187 L-6780.1993,-5085.2338 -6690.1973,-5085.2338 -6690.1973,-4990.2187 z M-6364.4472,-5081.1743 L-6284.5163,-5081.1743 -6284.5153,-5081.272 -6274.5138,-5081.1743 -6274.0898,-5081.1743 -6274.0898,-5071.1723 -6274.6115,-5071.1723 -6275.4021,-4990.2187 -6364.4472,-4990.2187 z M-6354.4452,-5071.1723 L-6354.4452,-5000.2207 -6285.3069,-5000.2207 -6284.6139,-5071.1723 z M-6770.1973,-5075.2318 L-6770.1973,-5000.2207 -6700.1993,-5000.2207 -6700.1993,-5075.2318 z"/>
</g><g transform="translate(0,1.07832) scale(0.49925) translate(7033.53,5912.65857)" stroke="#000000" stroke-width="0.6009" fill="none">
<path d="M-1757.3191,-5484.4555 L-1897.3191,-5484.4555 -1897.3191,-5421.9555 -2037.3291,-5421.9555 -2037.3291,-5659.4655 -1897.3291,-5659.4655 -1897.3291,-5721.9655 -1757.3191,-5721.9655 z M-2107.558,-5947.202 L-2382.9081,-5947.202 -2382.9081,-6027.212 -2107.558,-6027.212 z M-2107.558,-6171.202 L-2382.9081,-6171.202 -2382.9081,-6251.212 -2107.558,-6251.212 z M-1775.1951,-6343.3567 L-1915.2051,-6343.3567 -1915.2051,-6582.712 -1775.1951,-6582.712 z M-1934.9478,-6407.702 L-2074.9578,-6407.702 -2074.9578,-6645.212 -1934.9478,-6645.212 z"/>
</g><g transform="translate(0,1.07832) scale(0.49925) translate(7033.53,5912.65857)" stroke="#ffffff" stroke-width="0.6009" opacity="1" fill="none">
<path d="M-6427.91069,-2375.91739 C-6430.11982,-2375.91739 -6431.91069,-2374.12653 -6431.91069,-2371.91739 L-6431.91069,-2364.91739 C-6431.91069,-2362.70825 -6430.11982,-2360.91739 -6427.91069,-2360.91739 L-6371.84704,-2360.91739 C-6369.6379,-2360.91739 -6367.84704,-2362.70825 -6367.84704,-2364.91739 L-6367.84704,-2371.91739 C-6367.84704,-2374.12653 -6369.6379,-2375.91739 -6371.84704,-2375.91739 z" fill="#ffffff" stroke="none"/>

<path d="M-6427.91069,-2200.91739 C-6430.11982,-2200.91739 -6431.91069,-2199.12653 -6431.91069,-2196.91739 L-6431.91069,-2189.91739 C-6431.91069,-2187.70825 -6430.11982,-2185.91739 -6427.91069,-2185.91739 L-6371.84704,-2185.91739 C-6369.6379,-2185.91739 -6367.84704,-2187.70825 -6367.84704,-2189.91739 L-6367.84704,-2196.91739 C-6367.84704,-2199.12653 -6369.6379,-2200.91739 -6371.84704,-2200.91739 z" fill="#ffffff" stroke="none"/>

<path d="M-6430.91069,-2360.91739 C-6434.77668,-2360.91739 -6437.91069,-2357.78338 -6437.91069,-2353.91739 L-6437.91069,-2207.91739 C-6437.91069,-2204.0514 -6434.77668,-2200.91739 -6430.91069,-2200.91739 L-6362.84704,-2200.91739 -6362.84704,-2360.91739 z" fill="#ffffff" stroke="none"/>
</g><g transform="translate(0,1.07832) scale(0.49925) translate(7033.53,5912.65857)" stroke="#000000" stroke-width="0.6009" opacity="1" fill="none">
<path d="M-6427.91069,-2375.91739 C-6430.11982,-2375.91739 -6431.91069,-2374.12653 -6431.91069,-2371.91739 L-6431.91069,-2364.91739 C-6431.91069,-2362.70825 -6430.11982,-2360.91739 -6427.91069,-2360.91739 L-6371.84704,-2360.91739 C-6369.6379,-2360.91739 -6367.84704,-2362.70825 -6367.84704,-2364.91739 L-6367.84704,-2371.91739 C-6367.84704,-2374.12653 -6369.6379,-2375.91739 -6371.84704,-2375.91739 z"/>

<path d="M-6427.91069,-2200.91739 C-6430.11982,-2200.91739 -6431.91069,-2199.12653 -6431.91069,-2196.91739 L-6431.91069,-2189.91739 C-6431.91069,-2187.70825 -6430.11982,-2185.91739 -6427.91069,-2185.91739 L-6371.84704,-2185.91739 C-6369.6379,-2185.91739 -6367.84704,-2187.70825 -6367.84704,-2189.91739 L-6367.84704,-2196.91739 C-6367.84704,-2199.12653 -6369.6379,-2200.91739 -6371.84704,-2200.91739 z"/>

<path d="M-6430.91069,-2360.91739 C-6434.77668,-2360.91739 -6437.91069,-2357.78338 -6437.91069,-2353.91739 L-6437.91069,-2207.91739 C-6437.91069,-2204.0514 -6434.77668,-2200.91739 -6430.91069,-2200.91739 L-6362.84704,-2200.91739 -6362.84704,-2360.91739 z"/>

<line x1="-6387.84704" y1="-2360.91739" x2="-6387.84704" y2="-2200.91739"/>

<line x1="-6387.84704" y1="-2280.91739" x2="-6437.91069" y2="-2280.91739"/>
</g><g transform="translate(0,1.07832) scale(0.49925) translate(7033.53,5912.65857)" stroke="#ffffff" stroke-width="0.6009" opacity="1" fill="none">
<path d="M-6538.96105,-2168.35489 C-6536.75191,-2168.35489 -6534.96105,-2170.14575 -6534.96105,-2172.35489 L-6534.96105,-2179.35489 C-6534.96105,-2181.56403 -6536.75191,-2183.35489 -6538.96105,-2183.35489 L-6584.59283,-2183.35489 C-6586.80197,-2183.35489 -6588.59283,-2181.56403 -6588.59283,-2179.35489 L-6588.59283,-2172.35489 C-6588.59283,-2170.14575 -6586.80197,-2168.35489 -6584.59283,-2168.35489 z" fill="#ffffff" stroke="none"/>

<path d="M-6538.96105,-2360.91739 C-6536.75191,-2360.91739 -6534.96105,-2362.70825 -6534.96105,-2364.91739 L-6534.96105,-2371.91739 C-6534.96105,-2374.12653 -6536.75191,-2375.91739 -6538.96105,-2375.91739 L-6584.59283,-2375.91739 C-6586.80197,-2375.91739 -6588.59283,-2374.12653 -6588.59283,-2371.91739 L-6588.59283,-2364.91739 C-6588.59283,-2362.70825 -6586.80197,-2360.91739 -6584.59283,-2360.91739 z" fill="#ffffff" stroke="none"/>

<path d="M-6535.96105,-2183.35489 C-6532.09506,-2183.35489 -6528.96105,-2186.4889 -6528.96105,-2190.35489 L-6528.96105,-2353.91739 C-6528.96105,-2357.78338 -6532.09506,-2360.91739 -6535.96105,-2360.91739 L-6593.59283,-2360.91739 -6593.59283,-2183.35489 z" fill="#ffffff" stroke="none"/>
</g><g transform="translate(0,1.07832) scale(0.49925) translate(7033.53,5912.65857)" stroke="#000000" stroke-width="0.6009" opacity="1" fill="none">
<path d="M-6538.96105,-2168.35489 C-6536.75191,-2168.35489 -6534.96105,-2170.14575 -6534.96105,-2172.35489 L-6534.96105,-2179.35489 C-6534.96105,-2181.56403 -6536.75191,-2183.35489 -6538.96105,-2183.35489 L-6584.59283,-2183.35489 C-6586.80197,-2183.35489 -6588.59283,-2181.56403 -6588.59283,-2179.35489 L-6588.59283,-2172.35489 C-6588.59283,-2170.14575 -6586.80197,-2168.35489 -6584.59283,-2168.35489 z"/>

<path d="M-6538.96105,-2360.91739 C-6536.75191,-2360.91739 -6534.96105,-2362.70825 -6534.96105,-2364.91739 L-6534.96105,-2371.91739 C-6534.96105,-2374.12653 -6536.75191,-2375.91739 -6538.96105,-2375.91739 L-6584.59283,-2375.91739 C-6586.80197,-2375.91739 -6588.59283,-2374.12653 -6588.59283,-2371.91739 L-6588.59283,-2364.91739 C-6588.59283,-2362.70825 -6586.80197,-2360.91739 -6584.59283,-2360.91739 z"/>

<path d="M-6535.96105,-2183.35489 C-6532.09506,-2183.35489 -6528.96105,-2186.4889 -6528.96105,-2190.35489 L-6528.96105,-2353.91739 C-6528.96105,-2357.78338 -6532.09506,-2360.91739 -6535.96105,-2360.91739 L-6593.59283,-2360.91739 -6593.59283,-2183.35489 z"/>

<line x1="-6568.59283" y1="-2183.35489" x2="-6568.59283" y2="-2360.91739"/>

<line x1="-6568.59283" y1="-2272.13614" x2="-6528.96105" y2="-2272.13614"/>
</g><g transform="translate(0,1.07832) scale(0.49925) translate(7033.53,5912.65857)" stroke="#ffffff" stroke-width="0.6009" opacity="1" fill="none">
<path d="M-6418.80722,-5125.27923 C-6421.01636,-5125.27923 -6422.80722,-5123.48837 -6422.80722,-5121.27923 L-6422.80722,-5114.27923 C-6422.80722,-5112.07009 -6421.01636,-5110.27923 -6418.80722,-5110.27923 L-6373.44619,-5110.27923 C-6371.23706,-5110.27923 -6369.44619,-5112.07009 -6369.44619,-5114.27923 L-6369.44619,-5121.27923 C-6369.44619,-5123.48837 -6371.23706,-5125.27923 -6373.44619,-5125.27923 z" fill="#ffffff" stroke="none"/>

<path d="M-6418.80722,-4950.27923 C-6421.01636,-4950.27923 -6422.80722,-4948.48837 -6422.80722,-4946.27923 L-6422.80722,-4939.27923 C-6422.80722,-4937.07009 -6421.01636,-4935.27923 -6418.80722,-4935.27923 L-6373.44619,-4935.27923 C-6371.23706,-4935.27923 -6369.44619,-4937.07009 -6369.44619,-4939.27923 L-6369.44619,-4946.27923 C-6369.44619,-4948.48837 -6371.23706,-4950.27923 -6373.44619,-4950.27923 z" fill="#ffffff" stroke="none"/>

<path d="M-6421.80722,-5110.27923 C-6425.67322,-5110.27923 -6428.80722,-5107.14522 -6428.80722,-5103.27923 L-6428.80722,-4957.27923 C-6428.80722,-4953.41324 -6425.67322,-4950.27923 -6421.80722,-4950.27923 L-6364.44619,-4950.27923 -6364.44619,-5110.27923 z" fill="#ffffff" stroke="none"/>
</g><g transform="translate(0,1.07832) scale(0.49925) translate(7033.53,5912.65857)" stroke="#000000" stroke-width="0.6009" opacity="1" fill="none">
<path d="M-6418.80722,-5125.27923 C-6421.01636,-5125.27923 -6422.80722,-5123.48837 -6422.80722,-5121.27923 L-6422.80722,-5114.27923 C-6422.80722,-5112.07009 -6421.01636,-5110.27923 -6418.80722,-5110.27923 L-6373.44619,-5110.27923 C-6371.23706,-5110.27923 -6369.44619,-5112.07009 -6369.44619,-5114.27923 L-6369.44619,-5121.27923 C-6369.44619,-5123.48837 -6371.23706,-5125.27923 -6373.44619,-5125.27923 z"/>

<path d="M-6418.80722,-4950.27923 C-6421.01636,-4950.27923 -6422.80722,-4948.48837 -6422.80722,-4946.27923 L-6422.80722,-4939.27923 C-6422.80722,-4937.07009 -6421.01636,-4935.27923 -6418.80722,-4935.27923 L-6373.44619,-4935.27923 C-6371.23706,-4935.27923 -6369.44619,-4937.07009 -6369.44619,-4939.27923 L-6369.44619,-4946.27923 C-6369.44619,-4948.48837 -6371.23706,-4950.27923 -6373.44619,-4950.27923 z"/>

<path d="M-6421.80722,-5110.27923 C-6425.67322,-5110.27923 -6428.80722,-5107.14522 -6428.80722,-5103.27923 L-6428.80722,-4957.27923 C-6428.80722,-4953.41324 -6425.67322,-4950.27923 -6421.80722,-4950.27923 L-6364.44619,-4950.27923 -6364.44619,-5110.27923 z"/>

<line x1="-6389.44619" y1="-5110.27923" x2="-6389.44619" y2="-4950.27923"/>

<line x1="-6389.44619" y1="-5030.27923" x2="-6428.80722" y2="-5030.27923"/>
</g><g transform="translate(0,1.07832) scale(0.49925) translate(7033.53,5912.65857)" stroke="#ffffff" stroke-width="0.6009" opacity="1" fill="none">
<path d="M-6538.96152,-4946.2421 C-6536.75238,-4946.2421 -6534.96152,-4948.03296 -6534.96152,-4950.2421 L-6534.96152,-4957.2421 C-6534.96152,-4959.45124 -6536.75238,-4961.2421 -6538.96152,-4961.2421 L-6581.19828,-4961.2421 C-6583.40742,-4961.2421 -6585.19828,-4959.45124 -6585.19828,-4957.2421 L-6585.19828,-4950.2421 C-6585.19828,-4948.03296 -6583.40742,-4946.2421 -6581.19828,-4946.2421 z" fill="#ffffff" stroke="none"/>

<path d="M-6538.96152,-5121.2421 C-6536.75238,-5121.2421 -6534.96152,-5123.03296 -6534.96152,-5125.2421 L-6534.96152,-5132.2421 C-6534.96152,-5134.45124 -6536.75238,-5136.2421 -6538.96152,-5136.2421 L-6581.19828,-5136.2421 C-6583.40742,-5136.2421 -6585.19828,-5134.45124 -6585.19828,-5132.2421 L-6585.19828,-5125.2421 C-6585.19828,-5123.03296 -6583.40742,-5121.2421 -6581.19828,-5121.2421 z" fill="#ffffff" stroke="none"/>

<path d="M-6535.96152,-4961.2421 C-6532.09553,-4961.2421 -6528.96152,-4964.37611 -6528.96152,-4968.2421 L-6528.96152,-5114.2421 C-6528.96152,-5118.10809 -6532.09553,-5121.2421 -6535.96152,-5121.2421 L-6590.19828,-5121.2421 -6590.19828,-4961.2421 z" fill="#ffffff" stroke="none"/>
</g><g transform="translate(0,1.07832) scale(0.49925) translate(7033.53,5912.65857)" stroke="#000000" stroke-width="0.6009" opacity="1" fill="none">
<path d="M-6538.96152,-4946.2421 C-6536.75238,-4946.2421 -6534.96152,-4948.03296 -6534.96152,-4950.2421 L-6534.96152,-4957.2421 C-6534.96152,-4959.45124 -6536.75238,-4961.2421 -6538.96152,-4961.2421 L-6581.19828,-4961.2421 C-6583.40742,-4961.2421 -6585.19828,-4959.45124 -6585.19828,-4957.2421 L-6585.19828,-4950.2421 C-6585.19828,-4948.03296 -6583.40742,-4946.2421 -6581.19828,-4946.2421 z"/>

<path d="M-6538.96152,-5121.2421 C-6536.75238,-5121.2421 -6534.96152,-5123.03296 -6534.96152,-5125.2421 L-6534.96152,-5132.2421 C-6534.96152,-5134.45124 -6536.75238,-5136.2421 -6538.96152,-5136.2421 L-6581.19828,-5136.2421 C-6583.40742,-5136.2421 -6585.19828,-5134.45124 -6585.19828,-5132.2421 L-6585.19828,-5125.2421 C-6585.19828,-5123.03296 -6583.40742,-5121.2421 -6581.19828,-5121.2421 z"/>

<path d="M-6535.96152,-4961.2421 C-6532.09553,-4961.2421 -6528.96152,-4964.37611 -6528.96152,-4968.2421 L-6528.96152,-5114.2421 C-6528.96152,-5118.10809 -6532.09553,-5121.2421 -6535.96152,-5121.2421 L-6590.19828,-5121.2421 -6590.19828,-4961.2421 z"/>

<line x1="-6565.19828" y1="-4961.2421" x2="-6565.19828" y2="-5121.2421"/>

<line x1="-6565.19828" y1="-5041.2421" x2="-6528.96152" y2="-5041.2421"/>
</g><g transform="translate(0,1.07832) scale(0.49925) translate(7033.53,5912.65857)" stroke="#ffffff" stroke-width="0.6009" opacity="1" fill="none">
<path d="M-6109.95004,-5233.25543 L-6109.95004,-5418.62618 -6179.95004,-5418.62618 -6179.95004,-5233.25543 z" fill="#ffffff" stroke="none"/>
</g><g transform="translate(0,1.07832) scale(0.49925) translate(7033.53,5912.65857)" stroke="#000000" stroke-width="0.6009" opacity="1" fill="none">
<path d="M-6109.95004,-5233.25543 L-6109.95004,-5418.62618 -6179.95004,-5418.62618 -6179.95004,-5233.25543 z"/>
</g><g transform="translate(0,1.07832) scale(0.49925) translate(7033.53,5912.65857)" stroke="#ffffff" stroke-width="0.6009" opacity="1" fill="none">
<path d="M-6109.95004,-5071.17331 L-6109.95004,-5233.25543 -6179.95004,-5233.25543 -6179.95004,-5071.17331 z" fill="#ffffff" stroke="none"/>
</g><g transform="translate(0,1.07832) scale(0.49925) translate(7033.53,5912.65857)" stroke="#000000" stroke-width="0.6009" opacity="1" fill="none">
<path d="M-6109.95004,-5071.17331 L-6109.95004,-5233.25543 -6179.95004,-5233.25543 -6179.95004,-5071.17331 z"/>
</g><g transform="translate(0,1.07832) scale(0.49925) translate(7033.53,5912.65857)" stroke="#ffffff" stroke-width="0.6009" opacity="1" fill="none">
<path d="M-6109.95004,-4859.39203 L-6109.95004,-5071.17331 -6179.95004,-5071.17331 -6179.95004,-4859.39203 z" fill="#ffffff" stroke="none"/>
</g><g transform="translate(0,1.07832) scale(0.49925) translate(7033.53,5912.65857)" stroke="#000000" stroke-width="0.6009" opacity="1" fill="none">
<path d="M-6109.95004,-4859.39203 L-6109.95004,-5071.17331 -6179.95004,-5071.17331 -6179.95004,-4859.39203 z"/>
</g><g transform="translate(0,1.07832) scale(0.49925) translate(7033.53,5912.65857)" stroke="#ffffff" stroke-width="0.6009" opacity="1" fill="none">
<path d="M-6109.95004,-4673.34677 L-6109.95004,-4859.39203 -6179.95004,-4859.39203 -6179.95004,-4673.34677 z" fill="#ffffff" stroke="none"/>
</g><g transform="translate(0,1.07832) scale(0.49925) translate(7033.53,5912.65857)" stroke="#000000" stroke-width="0.6009" opacity="1" fill="none">
<path d="M-6109.95004,-4673.34677 L-6109.95004,-4859.39203 -6179.95004,-4859.39203 -6179.95004,-4673.34677 z"/>
</g><g transform="translate(0,1.07832) scale(0.49925) translate(7033.53,5912.65857)" stroke="#ffffff" stroke-width="0.6009" opacity="1" fill="none">
<path d="M-6443.09965,-5253.22193 L-6443.09965,-5353.22193 -6513.09965,-5353.22193 -6513.09965,-5253.22193 z" fill="#ffffff" stroke="none"/>
</g><g transform="translate(0,1.07832) scale(0.49925) translate(7033.53,5912.65857)" stroke="#000000" stroke-width="0.6009" opacity="1" fill="none">
<path d="M-6443.09965,-5253.22193 L-6443.09965,-5353.22193 -6513.09965,-5353.22193 -6513.09965,-5253.22193 z"/>
</g><g transform="translate(0,1.07832) scale(0.49925) translate(7033.53,5912.65857)" stroke="#ffffff" stroke-width="0.6009" opacity="1" fill="none">
<path d="M-6443.09965,-5153.22193 L-6443.09965,-5253.22193 -6513.09965,-5253.22193 -6513.09965,-5153.22193 z" fill="#ffffff" stroke="none"/>
</g><g transform="translate(0,1.07832) scale(0.49925) translate(7033.53,5912.65857)" stroke="#000000" stroke-width="0.6009" opacity="1" fill="none">
<path d="M-6443.09965,-5153.22193 L-6443.09965,-5253.22193 -6513.09965,-5253.22193 -6513.09965,-5153.22193 z"/>
</g><g transform="translate(0,1.07832) scale(0.49925) translate(7033.53,5912.65857)" stroke="#ffffff" stroke-width="0.6009" opacity="1" fill="none">
<path d="M-6740.56012,-5397.09915 L-6740.56012,-5497.09915 -6810.56012,-5497.09915 -6810.56012,-5397.09915 z" fill="#ffffff" stroke="none"/>
</g><g transform="translate(0,1.07832) scale(0.49925) translate(7033.53,5912.65857)" stroke="#000000" stroke-width="0.6009" opacity="1" fill="none">
<path d="M-6740.56012,-5397.09915 L-6740.56012,-5497.09915 -6810.56012,-5497.09915 -6810.56012,-5397.09915 z"/>
</g><g transform="translate(0,1.07832) scale(0.49925) translate(7033.53,5912.65857)" stroke="#ffffff" stroke-width="0.6009" opacity="1" fill="none">
<path d="M-6740.56012,-5297.09915 L-6740.56012,-5397.09915 -6810.56012,-5397.09915 -6810.56012,-5297.09915 z" fill="#ffffff" stroke="none"/>
</g><g transform="translate(0,1.07832) scale(0.49925) translate(7033.53,5912.65857)" stroke="#000000" stroke-width="0.6009" opacity="1" fill="none">
<path d="M-6740.56012,-5297.09915 L-6740.56012,-5397.09915 -6810.56012,-5397.09915 -6810.56012,-5297.09915 z"/>
</g><g transform="translate(0,1.07832) scale(0.49925) translate(7033.53,5912.65857)" stroke="#ffffff" stroke-width="0.6009" opacity="1" fill="none">
<path d="M-6690.19828,-5000.21968 L-6590.19828,-5000.21968 -6590.19828,-5070.21968 -6690.19828,-5070.21968 z" fill="#ffffff" stroke="none"/>
</g><g transform="translate(0,1.07832) scale(0.49925) translate(7033.53,5912.65857)" stroke="#000000" stroke-width="0.6009" opacity="1" fill="none">
<path d="M-6690.19828,-5000.21968 L-6590.19828,-5000.21968 -6590.19828,-5070.21968 -6690.19828,-5070.21968 z"/>
</g><g transform="translate(0,1.07832) scale(0.49925) translate(7033.53,5912.65857)" stroke="#ffffff" stroke-width="0.6009" opacity="1" fill="none">
<path d="M-6890.33997,-4722.01109 L-6890.33997,-4822.01109 -6960.33997,-4822.01109 -6960.33997,-4722.01109 z" fill="#ffffff" stroke="none"/>
</g><g transform="translate(0,1.07832) scale(0.49925) translate(7033.53,5912.65857)" stroke="#000000" stroke-width="0.6009" opacity="1" fill="none">
<path d="M-6890.33997,-4722.01109 L-6890.33997,-4822.01109 -6960.33997,-4822.01109 -6960.33997,-4722.01109 z"/>
</g><g transform="translate(0,1.07832) scale(0.49925) translate(7033.53,5912.65857)" stroke="#ffffff" stroke-width="0.6009" opacity="1" fill="none">
<path d="M-6890.33997,-4622.01109 L-6890.33997,-4722.01109 -6960.33997,-4722.01109 -6960.33997,-4622.01109 z" fill="#ffffff" stroke="none"/>
</g><g transform="translate(0,1.07832) scale(0.49925) translate(7033.53,5912.65857)" stroke="#000000" stroke-width="0.6009" opacity="1" fill="none">
<path d="M-6890.33997,-4622.01109 L-6890.33997,-4722.01109 -6960.33997,-4722.01109 -6960.33997,-4622.01109 z"/>
</g><g transform="translate(0,1.07832) scale(0.49925) translate(7033.53,5912.65857)" stroke="#ffffff" stroke-width="0.6009" opacity="1" fill="none">
<path d="M-6734.91494,-4417.6863 L-6590.92977,-4417.6863 -6590.92977,-4458.53469 -6734.91494,-4458.53469 z" fill="#ffffff" stroke="none"/>
</g><g transform="translate(0,1.07832) scale(0.49925) translate(7033.53,5912.65857)" stroke="#000000" stroke-width="0.6009" opacity="1" fill="none">
<path d="M-6734.91494,-4417.6863 L-6590.92977,-4417.6863 -6590.92977,-4458.53469 -6734.91494,-4458.53469 z"/>
</g><g transform="translate(0,1.07832) scale(0.49925) translate(7033.53,5912.65857)" stroke="#ffffff" stroke-width="0.6009" opacity="1" fill="none">
<path d="M-6641.42239,-4458.53469 L-6641.42239,-4609.94246 -6688.4075,-4609.94246 -6688.4075,-4458.53469 z" fill="#ffffff" stroke="none"/>
</g><g transform="translate(0,1.07832) scale(0.49925) translate(7033.53,5912.65857)" stroke="#000000" stroke-width="0.6009" opacity="1" fill="none">
<path d="M-6641.42239,-4458.53469 L-6641.42239,-4609.94246 -6688.4075,-4609.94246 -6688.4075,-4458.53469 z"/>
</g><g transform="translate(0,1.07832) scale(0.49925) translate(7033.53,5912.65857)" stroke="#ffffff" stroke-width="0.6009" opacity="1" fill="none">
<path d="M-6518.41054,-4782.81236 L-6468.41054,-4696.20982 -6407.78876,-4731.20982 -6457.78876,-4817.81236 z" fill="#ffffff" stroke="none"/>
</g><g transform="translate(0,1.07832) scale(0.49925) translate(7033.53,5912.65857)" stroke="#000000" stroke-width="0.6009" opacity="1" fill="none">
<path d="M-6518.41054,-4782.81236 L-6468.41054,-4696.20982 -6407.78876,-4731.20982 -6457.78876,-4817.81236 z"/>
</g><g transform="translate(0,1.07832) scale(0.49925) translate(7033.53,5912.65857)" stroke="#ffffff" stroke-width="0.6009" opacity="1" fill="none">
<path d="M-6468.60406,-4696.545 L-6418.60406,-4609.94246 -6357.98228,-4644.94246 -6407.98228,-4731.545 z" fill="#ffffff" stroke="none"/>
</g><g transform="translate(0,1.07832) scale(0.49925) translate(7033.53,5912.65857)" stroke="#000000" stroke-width="0.6009" opacity="1" fill="none">
<path d="M-6468.60406,-4696.545 L-6418.60406,-4609.94246 -6357.98228,-4644.94246 -6407.98228,-4731.545 z"/>
</g><g transform="translate(0,1.07832) scale(0.49925) translate(7033.53,5912.65857)" stroke="#ffffff" stroke-width="0.6009" opacity="1" fill="none">
<path d="M-6700.19828,-4417.6863 L-6700.19828,-4317.6863 -6630.19828,-4317.6863 -6630.19828,-4417.6863 z" fill="#ffffff" stroke="none"/>
</g><g transform="translate(0,1.07832) scale(0.49925) translate(7033.53,5912.65857)" stroke="#000000" stroke-width="0.6009" opacity="1" fill="none">
<path d="M-6700.19828,-4417.6863 L-6700.19828,-4317.6863 -6630.19828,-4317.6863 -6630.19828,-4417.6863 z"/>
</g><g transform="translate(0,1.07832) scale(0.49925) translate(7033.53,5912.65857)" stroke="#ffffff" stroke-width="0.6009" opacity="1" fill="none">
<path d="M-6630.19828,-4217.6863 L-6630.19828,-4317.6863 -6700.19828,-4317.6863 -6700.19828,-4217.6863 z" fill="#ffffff" stroke="none"/>
</g><g transform="translate(0,1.07832) scale(0.49925) translate(7033.53,5912.65857)" stroke="#000000" stroke-width="0.6009" opacity="1" fill="none">
<path d="M-6630.19828,-4217.6863 L-6630.19828,-4317.6863 -6700.19828,-4317.6863 -6700.19828,-4217.6863 z"/>
</g><g transform="translate(0,1.07832) scale(0.49925) translate(7033.53,5912.65857)" stroke="#ffffff" stroke-width="0.6009" opacity="1" fill="none">
<path d="M-6630.19828,-4117.6863 L-6630.19828,-4217.6863 -6700.19828,-4217.6863 -6700.19828,-4117.6863 z" fill="#ffffff" stroke="none"/>
</g><g transform="translate(0,1.07832) scale(0.49925) translate(7033.53,5912.65857)" stroke="#000000" stroke-width="0.6009" opacity="1" fill="none">
<path d="M-6630.19828,-4117.6863 L-6630.19828,-4217.6863 -6700.19828,-4217.6863 -6700.19828,-4117.6863 z"/>
</g><g transform="translate(0,1.07832) scale(0.49925) translate(7033.53,5912.65857)" stroke="#ffffff" stroke-width="0.6009" opacity="1" fill="none">
<path d="M-6755.27212,-3204.96571 L-6552.94372,-3204.96571 -6552.94372,-3243.66745 -6755.27212,-3243.66745 z" fill="#ffffff" stroke="none"/>
</g><g transform="translate(0,1.07832) scale(0.49925) translate(7033.53,5912.65857)" stroke="#000000" stroke-width="0.6009" opacity="1" fill="none">
<path d="M-6755.27212,-3204.96571 L-6552.94372,-3204.96571 -6552.94372,-3243.66745 -6755.27212,-3243.66745 z"/>
</g><g transform="translate(0,1.07832) scale(0.49925) translate(7033.53,5912.65857)" stroke="#ffffff" stroke-width="0.6009" opacity="1" fill="none">
<path d="M-6630.19828,-3057.71114 L-6630.19828,-3204.9657 -6700.19828,-3204.9657 -6700.19828,-3057.71114 z" fill="#ffffff" stroke="none"/>
</g><g transform="translate(0,1.07832) scale(0.49925) translate(7033.53,5912.65857)" stroke="#000000" stroke-width="0.6009" opacity="1" fill="none">
<path d="M-6630.19828,-3057.71114 L-6630.19828,-3204.9657 -6700.19828,-3204.9657 -6700.19828,-3057.71114 z"/>
</g><g transform="translate(0,1.07832) scale(0.49925) translate(7033.53,5912.65857)" stroke="#ffffff" stroke-width="0.6009" opacity="1" fill="none">
<path d="M-6700.19828,-3343.66745 L-6700.19828,-3243.66745 -6630.19828,-3243.66745 -6630.19828,-3343.66745 z" fill="#ffffff" stroke="none"/>
</g><g transform="translate(0,1.07832) scale(0.49925) translate(7033.53,5912.65857)" stroke="#000000" stroke-width="0.6009" opacity="1" fill="none">
<path d="M-6700.19828,-3343.66745 L-6700.19828,-3243.66745 -6630.19828,-3243.66745 -6630.19828,-3343.66745 z"/>
</g><g transform="translate(0,1.07832) scale(0.49925) translate(7033.53,5912.65857)" stroke="#ffffff" stroke-width="0.6009" opacity="1" fill="none">
<path d="M-6700.19828,-3443.66745 L-6700.19828,-3343.66745 -6630.19828,-3343.66745 -6630.19828,-3443.66745 z" fill="#ffffff" stroke="none"/>
</g><g transform="translate(0,1.07832) scale(0.49925) translate(7033.53,5912.65857)" stroke="#000000" stroke-width="0.6009" opacity="1" fill="none">
<path d="M-6700.19828,-3443.66745 L-6700.19828,-3343.66745 -6630.19828,-3343.66745 -6630.19828,-3443.66745 z"/>
</g><g transform="translate(0,1.07832) scale(0.49925) translate(7033.53,5912.65857)" stroke="#ffffff" stroke-width="0.6009" opacity="1" fill="none">
<path d="M-6273.97678,-1726.72802 L-6173.97678,-1726.72802 -6173.97678,-1796.72802 -6273.97678,-1796.72802 z" fill="#ffffff" stroke="none"/>
</g><g transform="translate(0,1.07832) scale(0.49925) translate(7033.53,5912.65857)" stroke="#000000" stroke-width="0.6009" opacity="1" fill="none">
<path d="M-6273.97678,-1726.72802 L-6173.97678,-1726.72802 -6173.97678,-1796.72802 -6273.97678,-1796.72802 z"/>
</g><g transform="translate(0,1.07832) scale(0.49925) translate(7033.53,5912.65857)" stroke="#ffffff" stroke-width="0.6009" opacity="1" fill="none">
<path d="M-6855.49872,-1880.82813 L-6717.66571,-1765.1725 -6697.12144,-1789.65621 -6834.95445,-1905.31184 z" fill="#ffffff" stroke="none"/>
</g><g transform="translate(0,1.07832) scale(0.49925) translate(7033.53,5912.65857)" stroke="#000000" stroke-width="0.6009" opacity="1" fill="none">
<path d="M-6855.49872,-1880.82813 L-6717.66571,-1765.1725 -6697.12144,-1789.65621 -6834.95445,-1905.31184 z"/>
</g><g transform="translate(0,1.07832) scale(0.49925) translate(7033.53,5912.65857)" stroke="#ffffff" stroke-width="0.6009" opacity="1" fill="none">
<path d="M-6743.9156,-1828.92118 L-6656.18477,-1933.47472 -6700.49742,-1970.65744 -6788.22825,-1866.1039 z" fill="#ffffff" stroke="none"/>
</g><g transform="translate(0,1.07832) scale(0.49925) translate(7033.53,5912.65857)" stroke="#000000" stroke-width="0.6009" opacity="1" fill="none">
<path d="M-6743.9156,-1828.92118 L-6656.18477,-1933.47472 -6700.49742,-1970.65744 -6788.22825,-1866.1039 z"/>
</g><g transform="translate(0,1.07832) scale(0.49925) translate(7033.53,5912.65857)" stroke="#ffffff" stroke-width="0.6009" opacity="1" fill="none">
<path d="M-6693.59284,-2235.75108 L-6593.59284,-2235.75108 -6593.59284,-2305.75108 -6693.59284,-2305.75108 z" fill="#ffffff" stroke="none"/>
</g><g transform="translate(0,1.07832) scale(0.49925) translate(7033.53,5912.65857)" stroke="#000000" stroke-width="0.6009" opacity="1" fill="none">
<path d="M-6693.59284,-2235.75108 L-6593.59284,-2235.75108 -6593.59284,-2305.75108 -6693.59284,-2305.75108 z"/>
</g><g transform="translate(0,1.07832) scale(0.49925) translate(7033.53,5912.65857)" stroke="#ffffff" stroke-width="0.6009" opacity="1" fill="none">
<path d="M-6755.27212,-2531.85435 L-6655.27212,-2531.85435 -6655.27212,-2601.85435 -6755.27212,-2601.85435 z" fill="#ffffff" stroke="none"/>
</g><g transform="translate(0,1.07832) scale(0.49925) translate(7033.53,5912.65857)" stroke="#000000" stroke-width="0.6009" opacity="1" fill="none">
<path d="M-6755.27212,-2531.85435 L-6655.27212,-2531.85435 -6655.27212,-2601.85435 -6755.27212,-2601.85435 z"/>
</g><g transform="translate(0,1.07832) scale(0.49925) translate(7033.53,5912.65857)" stroke="#ffffff" stroke-width="0.6009" opacity="1" fill="none">
<path d="M-6855.27212,-2531.85435 L-6755.27212,-2531.85435 -6755.27212,-2601.85435 -6855.27212,-2601.85435 z" fill="#ffffff" stroke="none"/>
</g><g transform="translate(0,1.07832) scale(0.49925) translate(7033.53,5912.65857)" stroke="#000000" stroke-width="0.6009" opacity="1" fill="none">
<path d="M-6855.27212,-2531.85435 L-6755.27212,-2531.85435 -6755.27212,-2601.85435 -6855.27212,-2601.85435 z"/>
</g><g transform="translate(0,1.07832) scale(0.49925) translate(7033.53,5912.65857)" stroke="#ffffff" stroke-width="0.6009" opacity="1" fill="none">
<path d="M-6318.58433,-2494.99472 L-6224.36254,-2589.21651 -6273.86001,-2638.71398 -6368.0818,-2544.49219 z" fill="#ffffff" stroke="none"/>
</g><g transform="translate(0,1.07832) scale(0.49925) translate(7033.53,5912.65857)" stroke="#000000" stroke-width="0.6009" opacity="1" fill="none">
<path d="M-6318.58433,-2494.99472 L-6224.36254,-2589.21651 -6273.86001,-2638.71398 -6368.0818,-2544.49219 z"/>
</g><g transform="translate(0,1.07832) scale(0.49925) translate(7033.53,5912.65857)" stroke="#ffffff" stroke-width="0.6009" opacity="1" fill="none">
<path d="M-6389.295,-2424.28403 L-6318.58432,-2494.99471 -6368.0818,-2544.49219 -6438.79248,-2473.78151 z" fill="#ffffff" stroke="none"/>
</g><g transform="translate(0,1.07832) scale(0.49925) translate(7033.53,5912.65857)" stroke="#000000" stroke-width="0.6009" opacity="1" fill="none">
<path d="M-6389.295,-2424.28403 L-6318.58432,-2494.99471 -6368.0818,-2544.49219 -6438.79248,-2473.78151 z"/>
</g><g transform="translate(0,1.07832) scale(0.49925) translate(7033.53,5912.65857)" stroke="#ffffff" stroke-width="0.6009" opacity="1" fill="none">
<path d="M-6465.93095,-2119.43463 L-6389.3265,-2055.15587 -6344.33137,-2108.77899 -6420.93582,-2173.05775 z" fill="#ffffff" stroke="none"/>
</g><g transform="translate(0,1.07832) scale(0.49925) translate(7033.53,5912.65857)" stroke="#000000" stroke-width="0.6009" opacity="1" fill="none">
<path d="M-6465.93095,-2119.43463 L-6389.3265,-2055.15587 -6344.33137,-2108.77899 -6420.93582,-2173.05775 z"/>
</g><g transform="translate(0,1.07832) scale(0.49925) translate(7033.53,5912.65857)" stroke="#ffffff" stroke-width="0.6009" opacity="1" fill="none">
<path d="M-6389.32651,-2055.15587 L-6312.72206,-1990.87711 -6267.72693,-2044.50023 -6344.33138,-2108.77899 z" fill="#ffffff" stroke="none"/>
</g><g transform="translate(0,1.07832) scale(0.49925) translate(7033.53,5912.65857)" stroke="#000000" stroke-width="0.6009" opacity="1" fill="none">
<path d="M-6389.32651,-2055.15587 L-6312.72206,-1990.87711 -6267.72693,-2044.50023 -6344.33138,-2108.77899 z"/>
</g><g transform="translate(0,1.07832) scale(0.49925) translate(7033.53,5912.65857)" stroke="#ffffff" stroke-width="0.6009" opacity="1" fill="none">
<path d="M-6443.09965,-5040.21968 C-6443.09965,-5067.83392 -6458.76968,-5090.21968 -6478.09965,-5090.21968 -6497.42962,-5090.21968 -6513.09965,-5067.83392 -6513.09965,-5040.21968 -6513.09965,-5012.60544 -6497.42962,-4990.21968 -6478.09965,-4990.21968 -6458.76968,-4990.21968 -6443.09965,-5012.60544 -6443.09965,-5040.21968" fill="#ffffff" stroke="none"/>
</g><g transform="translate(0,1.07832) scale(0.49925) translate(7033.53,5912.65857)" stroke="#000000" stroke-width="0.6009" opacity="1" fill="none">
<path d="M-6443.09965,-5040.21968 C-6443.09965,-5067.83392 -6458.76968,-5090.21968 -6478.09965,-5090.21968 -6497.42962,-5090.21968 -6513.09965,-5067.83392 -6513.09965,-5040.21968 -6513.09965,-5012.60544 -6497.42962,-4990.21968 -6478.09965,-4990.21968 -6458.76968,-4990.21968 -6443.09965,-5012.60544 -6443.09965,-5040.21968"/>
</g><g transform="translate(0,1.07832) scale(0.49925) translate(7033.53,5912.65857)" stroke="#ffffff" stroke-width="0.6009" opacity="1" fill="none">
<path d="M-6446.01589,-2280.12761 C-6446.01589,-2307.74185 -6461.68592,-2330.12761 -6481.01589,-2330.12761 -6500.34586,-2330.12761 -6516.01589,-2307.74185 -6516.01589,-2280.12761 -6516.01589,-2252.51337 -6500.34586,-2230.12761 -6481.01589,-2230.12761 -6461.68592,-2230.12761 -6446.01589,-2252.51337 -6446.01589,-2280.12761" fill="#ffffff" stroke="none"/>
</g><g transform="translate(0,1.07832) scale(0.49925) translate(7033.53,5912.65857)" stroke="#000000" stroke-width="0.6009" opacity="1" fill="none">
<path d="M-6446.01589,-2280.12761 C-6446.01589,-2307.74185 -6461.68592,-2330.12761 -6481.01589,-2330.12761 -6500.34586,-2330.12761 -6516.01589,-2307.74185 -6516.01589,-2280.12761 -6516.01589,-2252.51337 -6500.34586,-2230.12761 -6481.01589,-2230.12761 -6461.68592,-2230.12761 -6446.01589,-2252.51337 -6446.01589,-2280.12761"/>
</g><g transform="translate(0,1.07832) scale(0.49925) translate(7033.53,5912.65857)" stroke="#ffffff" stroke-width="0.6009" opacity="1" fill="none">
<path d="M-5647.96424,-3886.43158 L-5647.96424,-3806.43158 -5372.05046,-3806.43158 -5372.05046,-3886.43158 z" fill="#ffffff" stroke="none"/>
</g><g transform="translate(0,1.07832) scale(0.49925) translate(7033.53,5912.65857)" stroke="#000000" stroke-width="0.6009" opacity="1" fill="none">
<path d="M-5647.96424,-3886.43158 L-5647.96424,-3806.43158 -5372.05046,-3806.43158 -5372.05046,-3886.43158 z"/>

<path d="M-5647.96424,-3882.43158 L-5372.05046,-3882.43158"/>

<path d="M-5647.96424,-3810.43158 L-5372.05046,-3810.43158"/>

<line x1="-5647.96424" y1="-3846.43158" x2="-5372.05046" y2="-3846.43158"/>

<line x1="-5387.05046" y1="-3856.43158" x2="-5372.05046" y2="-3846.43158"/>

<line x1="-5387.05046" y1="-3836.43158" x2="-5372.05046" y2="-3846.43158"/>
</g><g transform="translate(0,1.07832) scale(0.49925) translate(7033.53,5912.65857)" stroke="#ffffff" stroke-width="0.6009" opacity="1" fill="none">
<path d="M-5647.96424,-3662.43158 L-5647.96424,-3582.43158 -5367.96424,-3582.43158 -5367.96424,-3662.43158 z" fill="#ffffff" stroke="none"/>
</g><g transform="translate(0,1.07832) scale(0.49925) translate(7033.53,5912.65857)" stroke="#000000" stroke-width="0.6009" opacity="1" fill="none">
<path d="M-5647.96424,-3662.43158 L-5647.96424,-3582.43158 -5367.96424,-3582.43158 -5367.96424,-3662.43158 z"/>

<path d="M-5647.96424,-3658.43158 L-5367.96424,-3658.43158"/>

<path d="M-5647.96424,-3586.43158 L-5367.96424,-3586.43158"/>

<line x1="-5647.96424" y1="-3622.43158" x2="-5367.96424" y2="-3622.43158"/>

<line x1="-5382.96424" y1="-3632.43158" x2="-5367.96424" y2="-3622.43158"/>

<line x1="-5382.96424" y1="-3612.43158" x2="-5367.96424" y2="-3622.43158"/>

<path d="M-5648.96486,-5432.9329 L-5648.96486,-5334.91437"/>

<path d="M-5658.96486,-5334.91437 L-5658.96486,-5339.91437 -5648.96486,-5339.91437"/>

<path d="M-5658.96486,-5432.9329 L-5658.96486,-5427.9329 -5648.96486,-5427.9329 -5560.94633,-5427.9329 C-5560.94633,-5379.32161 -5600.35357,-5339.91437 -5648.96486,-5339.91437"/>

<line x1="-5648.96486" y1="-5422.9329" x2="-5561.08846" y2="-5422.9329"/>

<path d="M-5501.07218,-4476.3959 L-5501.07218,-4574.00635"/>

<path d="M-5511.07218,-4574.00635 L-5511.07218,-4569.00635 -5501.07218,-4569.00635"/>

<path d="M-5511.07218,-4476.3959 L-5511.07218,-4481.3959 -5501.07218,-4481.3959 -5413.46173,-4481.3959 C-5413.46173,-4529.78182 -5452.68626,-4569.00635 -5501.07218,-4569.00635"/>

<line x1="-5501.07218" y1="-4486.3959" x2="-5413.60452" y2="-4486.3959"/>

<path d="M-5633.26461,-4603.384 L-5536.97867,-4603.384"/>

<path d="M-5536.97867,-4593.384 L-5541.97867,-4593.384 -5541.97867,-4603.384"/>

<path d="M-5633.26461,-4593.384 L-5628.26461,-4593.384 -5628.26461,-4603.384 -5628.26461,-4689.66994 C-5580.6102,-4689.66994 -5541.97867,-4651.03841 -5541.97867,-4603.384"/>

<line x1="-5623.26461" y1="-4603.384" x2="-5623.26461" y2="-4689.52495"/>

<path d="M-5658.96424,-3258.62462 L-5658.96424,-3263.62462 -5608.96434,-3263.62462 C-5608.96434,-3288.47738 -5626.87291,-3308.62452 -5648.96424,-3308.62452 -5626.87291,-3308.62452 -5608.96434,-3328.77166 -5608.96434,-3353.62442 L-5658.96424,-3353.62442 -5658.96424,-3358.62442"/>

<line x1="-5648.96424" y1="-3258.62462" x2="-5648.96424" y2="-3358.62442"/>

<line x1="-5648.96424" y1="-3268.62462" x2="-5609.27807" y2="-3268.62462"/>

<line x1="-5648.96424" y1="-3348.62442" x2="-5609.27807" y2="-3348.62442"/>

<path d="M-5479.4764,-4283.22289 L-5479.4764,-4288.22289 -5417.7915,-4288.22289 C-5417.7915,-4319.5291 -5440.93162,-4344.90779 -5469.4764,-4344.90779 -5440.93162,-4344.90779 -5417.7915,-4370.28648 -5417.7915,-4401.59269 L-5479.4764,-4401.59269 -5479.4764,-4406.59269"/>

<line x1="-5469.4764" y1="-4283.22289" x2="-5469.4764" y2="-4406.59269"/>

<line x1="-5469.4764" y1="-4293.22289" x2="-5418.03392" y2="-4293.22289"/>

<line x1="-5469.4764" y1="-4396.59269" x2="-5418.03392" y2="-4396.59269"/>

<path d="M-5651.15298,-1913.51643 L-5650.81926,-2052.82477"/>

<path d="M-5660.81923,-2052.84872 L-5660.8312,-2047.84874 -5650.83123,-2047.82478"/>

<path d="M-5661.15295,-1913.54038 L-5661.14098,-1918.54037 -5651.141,-1918.51641 -5521.83263,-1918.20664 C-5521.66155,-1989.62168 -5579.41619,-2047.6537 -5650.83123,-2047.82478"/>

<line x1="-5651.12903" y1="-1923.5164" x2="-5521.91736" y2="-1923.20686"/>

<path d="M-5478.02276,-3204.97114 L-5478.02276,-3199.97114 -5416.94725,-3199.97114 C-5416.94725,-3169.00149 -5439.81453,-3143.89563 -5468.02276,-3143.89563 -5439.81453,-3143.89563 -5416.94725,-3118.78977 -5416.94725,-3087.82012 L-5478.02276,-3087.82012 -5478.02276,-3082.82012"/>

<line x1="-5468.02276" y1="-3204.97114" x2="-5468.02276" y2="-3082.82012"/>

<line x1="-5468.02276" y1="-3194.97114" x2="-5417.19257" y2="-3194.97114"/>

<line x1="-5468.02276" y1="-3092.82012" x2="-5417.19257" y2="-3092.82012"/>
</g><g transform="translate(0,1.07832) scale(0.49925) translate(7033.53,5912.65857)" stroke="#ffffff" stroke-width="0.6009" opacity="1" fill="none">
<path d="M-5179.68759,-3357.18514 L-5319.68759,-3357.18514 -5319.68759,-3057.18514 -5179.68759,-3057.18514 z" fill="#ffffff" stroke="none"/>
</g><g transform="translate(0,1.07832) scale(0.49925) translate(7033.53,5912.65857)" stroke="#000000" stroke-width="0.6009" opacity="1" fill="none">
<path d="M-5179.68759,-3357.18514 L-5319.68759,-3357.18514 -5319.68759,-3057.18514 -5179.68759,-3057.18514 z"/>

<path d="M-5183.68759,-3357.18514 L-5183.68759,-3057.18514"/>

<path d="M-5315.68759,-3357.18514 L-5315.68759,-3057.18514"/>

<line x1="-5179.68759" y1="-3082.18514" x2="-5319.68759" y2="-3082.18514"/>

<line x1="-5179.68759" y1="-3107.18514" x2="-5319.68759" y2="-3107.18514"/>

<line x1="-5179.68759" y1="-3132.18514" x2="-5319.68759" y2="-3132.18514"/>

<line x1="-5179.68759" y1="-3157.18514" x2="-5319.68759" y2="-3157.18514"/>

<line x1="-5179.68759" y1="-3182.18514" x2="-5319.68759" y2="-3182.18514"/>

<line x1="-5179.68759" y1="-3207.18514" x2="-5319.68759" y2="-3207.18514"/>

<line x1="-5179.68759" y1="-3232.18514" x2="-5319.68759" y2="-3232.18514"/>

<line x1="-5179.68759" y1="-3257.18514" x2="-5319.68759" y2="-3257.18514"/>

<line x1="-5179.68759" y1="-3282.18514" x2="-5319.68759" y2="-3282.18514"/>

<line x1="-5179.68759" y1="-3307.18514" x2="-5319.68759" y2="-3307.18514"/>

<line x1="-5179.68759" y1="-3332.18514" x2="-5319.68759" y2="-3332.18514"/>

<line x1="-5249.68759" y1="-3357.18514" x2="-5249.68759" y2="-3057.18514"/>

<line x1="-5239.68759" y1="-3072.18514" x2="-5249.68759" y2="-3057.18514"/>

<line x1="-5259.68759" y1="-3072.18514" x2="-5249.68759" y2="-3057.18514"/>
</g><g transform="translate(0,1.07832) scale(0.49925) translate(7033.53,5912.65857)" stroke="#ffffff" stroke-width="0.6009" opacity="1" fill="none">
<path d="M-5039.68759,-4280.43158 L-5179.68759,-4280.43158 -5179.68759,-3978.58636 -5039.68759,-3978.58636 z" fill="#ffffff" stroke="none"/>
</g><g transform="translate(0,1.07832) scale(0.49925) translate(7033.53,5912.65857)" stroke="#000000" stroke-width="0.6009" opacity="1" fill="none">
<path d="M-5039.68759,-4280.43158 L-5179.68759,-4280.43158 -5179.68759,-3978.58636 -5039.68759,-3978.58636 z"/>

<path d="M-5043.68759,-4280.43158 L-5043.68759,-3978.58636"/>

<path d="M-5175.68759,-4280.43158 L-5175.68759,-3978.58636"/>

<line x1="-5039.68759" y1="-4003.74013" x2="-5179.68759" y2="-4003.74013"/>

<line x1="-5039.68759" y1="-4028.8939" x2="-5179.68759" y2="-4028.8939"/>

<line x1="-5039.68759" y1="-4054.04767" x2="-5179.68759" y2="-4054.04767"/>

<line x1="-5039.68759" y1="-4079.20143" x2="-5179.68759" y2="-4079.20143"/>

<line x1="-5039.68759" y1="-4104.3552" x2="-5179.68759" y2="-4104.3552"/>

<line x1="-5039.68759" y1="-4129.50897" x2="-5179.68759" y2="-4129.50897"/>

<line x1="-5039.68759" y1="-4154.66274" x2="-5179.68759" y2="-4154.66274"/>

<line x1="-5039.68759" y1="-4179.81651" x2="-5179.68759" y2="-4179.81651"/>

<line x1="-5039.68759" y1="-4204.97028" x2="-5179.68759" y2="-4204.97028"/>

<line x1="-5039.68759" y1="-4230.12404" x2="-5179.68759" y2="-4230.12404"/>

<line x1="-5039.68759" y1="-4255.27781" x2="-5179.68759" y2="-4255.27781"/>

<line x1="-5109.68759" y1="-4280.43158" x2="-5109.68759" y2="-3978.58636"/>

<line x1="-5099.68759" y1="-3993.58636" x2="-5109.68759" y2="-3978.58636"/>

<line x1="-5119.68759" y1="-3993.58636" x2="-5109.68759" y2="-3978.58636"/>
</g><g transform="translate(0,1.07832) scale(0.49925) translate(7033.53,5912.65857)" stroke="#ffffff" stroke-width="0.6009" opacity="1" fill="none">
<path d="M-5319.68759,-3978.58636 L-5179.68759,-3978.58636 -5179.68759,-4280.43158 -5319.68759,-4280.43158 z" fill="#ffffff" stroke="none"/>
</g><g transform="translate(0,1.07832) scale(0.49925) translate(7033.53,5912.65857)" stroke="#000000" stroke-width="0.6009" opacity="1" fill="none">
<path d="M-5319.68759,-3978.58636 L-5179.68759,-3978.58636 -5179.68759,-4280.43158 -5319.68759,-4280.43158 z"/>

<path d="M-5315.68759,-3978.58636 L-5315.68759,-4280.43158"/>

<path d="M-5183.68759,-3978.58636 L-5183.68759,-4280.43158"/>

<line x1="-5319.68759" y1="-4255.27781" x2="-5179.68759" y2="-4255.27781"/>

<line x1="-5319.68759" y1="-4230.12404" x2="-5179.68759" y2="-4230.12404"/>

<line x1="-5319.68759" y1="-4204.97028" x2="-5179.68759" y2="-4204.97028"/>

<line x1="-5319.68759" y1="-4179.81651" x2="-5179.68759" y2="-4179.81651"/>

<line x1="-5319.68759" y1="-4154.66274" x2="-5179.68759" y2="-4154.66274"/>

<line x1="-5319.68759" y1="-4129.50897" x2="-5179.68759" y2="-4129.50897"/>

<line x1="-5319.68759" y1="-4104.3552" x2="-5179.68759" y2="-4104.3552"/>

<line x1="-5319.68759" y1="-4079.20143" x2="-5179.68759" y2="-4079.20143"/>

<line x1="-5319.68759" y1="-4054.04767" x2="-5179.68759" y2="-4054.04767"/>

<line x1="-5319.68759" y1="-4028.8939" x2="-5179.68759" y2="-4028.8939"/>

<line x1="-5319.68759" y1="-4003.74013" x2="-5179.68759" y2="-4003.74013"/>

<line x1="-5249.68759" y1="-3978.58636" x2="-5249.68759" y2="-4280.43158"/>

<line x1="-5259.68759" y1="-4265.43158" x2="-5249.68759" y2="-4280.43158"/>

<line x1="-5239.68759" y1="-4265.43158" x2="-5249.68759" y2="-4280.43158"/>
</g><g transform="translate(0,1.07832) scale(0.49925) translate(7033.53,5912.65857)" stroke="#ffffff" stroke-width="0.6009" opacity="1" fill="none">
<path d="M-5179.68759,-3057.18514 L-5039.68759,-3057.18514 -5039.68759,-3357.18514 -5179.68759,-3357.18514 z" fill="#ffffff" stroke="none"/>
</g><g transform="translate(0,1.07832) scale(0.49925) translate(7033.53,5912.65857)" stroke="#000000" stroke-width="0.6009" opacity="1" fill="none">
<path d="M-5179.68759,-3057.18514 L-5039.68759,-3057.18514 -5039.68759,-3357.18514 -5179.68759,-3357.18514 z"/>

<path d="M-5175.68759,-3057.18514 L-5175.68759,-3357.18514"/>

<path d="M-5043.68759,-3057.18514 L-5043.68759,-3357.18514"/>

<line x1="-5179.68759" y1="-3332.18514" x2="-5039.68759" y2="-3332.18514"/>

<line x1="-5179.68759" y1="-3307.18514" x2="-5039.68759" y2="-3307.18514"/>

<line x1="-5179.68759" y1="-3282.18514" x2="-5039.68759" y2="-3282.18514"/>

<line x1="-5179.68759" y1="-3257.18514" x2="-5039.68759" y2="-3257.18514"/>

<line x1="-5179.68759" y1="-3232.18514" x2="-5039.68759" y2="-3232.18514"/>

<line x1="-5179.68759" y1="-3207.18514" x2="-5039.68759" y2="-3207.18514"/>

<line x1="-5179.68759" y1="-3182.18514" x2="-5039.68759" y2="-3182.18514"/>

<line x1="-5179.68759" y1="-3157.18514" x2="-5039.68759" y2="-3157.18514"/>

<line x1="-5179.68759" y1="-3132.18514" x2="-5039.68759" y2="-3132.18514"/>

<line x1="-5179.68759" y1="-3107.18514" x2="-5039.68759" y2="-3107.18514"/>

<line x1="-5179.68759" y1="-3082.18514" x2="-5039.68759" y2="-3082.18514"/>

<line x1="-5109.68759" y1="-3057.18514" x2="-5109.68759" y2="-3357.18514"/>

<line x1="-5119.68759" y1="-3342.18514" x2="-5109.68759" y2="-3357.18514"/>

<line x1="-5099.68759" y1="-3342.18514" x2="-5109.68759" y2="-3357.18514"/>
</g><g transform="translate(0,1.07832) scale(0.49925) translate(7033.53,5912.65857)" stroke="#ffffff" stroke-width="0.6009" opacity="1" fill="none">
<path d="M-5498.02276,-3093.59543 L-5498.02276,-3187.1127 -5468.02276,-3187.1127 -5468.02276,-3093.59543 -5496.52276,-3093.59543 -5496.52276,-3095.09543 -5469.52276,-3095.09543 -5469.52276,-3185.6127 -5496.52276,-3185.6127 -5496.52276,-3093.59543 z" fill="#ffffff" stroke="none"/>
</g><g transform="translate(0,1.07832) scale(0.49925) translate(7033.53,5912.65857)" stroke="#138f49" stroke-width="0.6009" opacity="1" fill="none">
<path d="M-5496.52276,-3095.09543 L-5496.52276,-3185.6127 -5469.52276,-3185.6127 -5469.52276,-3095.09543 z" fill="#138f49" stroke="none"/>
</g><g transform="translate(0,1.07832) scale(0.49925) translate(7033.53,5912.65857)" stroke="#ffffff" stroke-width="0.6009" opacity="1" fill="none">
<path d="M-5493.52276,-3123.26561 L-5479.85176,-3123.26561 -5479.85176,-3121.91519 -5476.97476,-3120.25707 -5476.97476,-3123.26561 -5474.41276,-3123.26561 -5472.52276,-3121.09468 -5472.52276,-3131.19723 -5473.95076,-3132.46219 -5473.95076,-3134.39381 -5472.52276,-3132.92372 -5472.52276,-3135.35107 -5474.45476,-3137.35107 -5493.52276,-3137.35107 z" fill="#ffffff" stroke="none"/>
</g><g transform="translate(0,1.07832) scale(0.49925) translate(7033.53,5912.65857)" stroke="#138f49" stroke-width="0.6009" opacity="1" fill="none">
<path d="M-5488.81876,-3132.30834 L-5488.81876,-3126.13741 -5485.39576,-3124.10322 -5484.68176,-3125.26561 -5487.47476,-3126.94082 -5487.47476,-3129.59039 -5483.69476,-3127.5904 -5479.28476,-3126.76988 -5479.28476,-3122.30835 -5477.58376,-3121.28271 -5477.58376,-3128.20578 -5482.37176,-3129.18014 -5474.49676,-3133.02629 -5474.49676,-3134.95791 -5483.16976,-3130.76988 -5486.38276,-3132.59894 -5484.21976,-3134.65022 -5484.21976,-3137.35107 -5485.60576,-3137.35107 -5485.60576,-3135.23141 z" fill="#138f49" stroke="none"/>

<ellipse cx="-5490.77197" cy="-3132.53052" rx="1.638" ry="1.638" fill="#138f49"/>
</g><g transform="translate(0,1.07832) scale(0.49925) translate(7033.53,5912.65857)" stroke="#ffffff" stroke-width="0.6009" opacity="1" fill="none">
<path d="M-5474.62281,-3148.62002 L-5474.62276,-3160.45107 -5486.45381,-3160.45102 -5491.42276,-3155.48207 -5482.983,-3155.40351 -5491.20983,-3147.17669 -5487.89714,-3143.864 -5479.67032,-3152.09083 -5479.59176,-3143.65107 z" fill="#ffffff" stroke="none"/>
</g><g transform="translate(0,1.07832) scale(0.49925) translate(1374.00114,2606.07844) rotate(90) translate(0,6.5)" stroke="#000000" stroke-width="0.6009" opacity="1" fill="none">
<text y="-2" font-size="13" stroke="none" fill="#8800cc" text-anchor="middle">Fire hose door</text>
</g><g transform="translate(0,1.07832) scale(0.49925) translate(1723.96826,3994.22189)" stroke="#000000" stroke-width="0.6009" opacity="1" fill="none">
<text y="-11" font-size="56" stroke="none" fill="#8800cc" text-anchor="middle">Dialog Box 3</text>
</g><g transform="translate(0,1.07832) scale(0.49925) translate(1721.4014,1056.09538)" stroke="#000000" stroke-width="0.6009" opacity="1" fill="none">
<text y="-11" font-size="56" stroke="none" fill="#8800cc" text-anchor="middle">Male Facility</text>
</g><g transform="translate(0,1.07832) scale(0.49925) translate(1778.4014,1406.77344)" stroke="#000000" stroke-width="0.6009" opacity="1" fill="none">
<text y="-11" font-size="56" stroke="none" fill="#8800cc" text-anchor="middle">Female Facility</text>
</g><g transform="translate(0,1.07832) scale(0.49925) translate(1495.05679,2317.15425)" stroke="#000000" stroke-width="0.6009" opacity="1" fill="none">
<text y="-11" font-size="56" stroke="none" fill="#8800cc" text-anchor="middle">Lift 2</text>
</g><g transform="translate(0,1.07832) scale(0.49925) translate(1442.8165,2773.89021) rotate(90) translate(0,9.5)" stroke="#000000" stroke-width="0.6009" opacity="1" fill="none">
<text y="-3" font-size="19" stroke="none" fill="#8800cc" text-anchor="middle">Fire Exit</text>
</g><g transform="translate(0,1.07832) scale(0.49925) translate(1781.55679,1596.21118)" stroke="#000000" stroke-width="0.6009" opacity="1" fill="none">
<text y="-11" font-size="56" stroke="none" fill="#8800cc" text-anchor="middle">Way to Stairs</text>
</g><g transform="translate(0,1.07832) scale(0.49925) translate(1121.00407,825.75) rotate(90) translate(0,125)" stroke="#000000" stroke-width="0.6009" opacity="1" fill="none">
<text y="-50" font-size="250" stroke="none" fill="#8800cc" text-anchor="middle">Startups</text>
</g><g transform="translate(0,1.07832) scale(0.49925) translate(786.18312,1805.96534)" stroke="#000000" stroke-width="0.6009" opacity="1" fill="none">
<text y="-6" font-size="31" stroke="none" fill="#8800cc" text-anchor="middle">Manish Singh</text>

<text y="-37" font-size="31" stroke="none" fill="#8800cc" text-anchor="middle">Mentor </text>
</g><g transform="translate(0,1.07832) scale(0.49925) translate(786.18312,2096.23527)" stroke="#000000" stroke-width="0.6009" opacity="1" fill="none">
<text y="-6" font-size="31" stroke="none" fill="#8800cc" text-anchor="middle">Rakesh Sharma</text>

<text y="-37" font-size="31" stroke="none" fill="#8800cc" text-anchor="middle">Mentor </text>
</g><g transform="translate(0,1.07832) scale(0.49925) translate(773.18312,2419.54627)" stroke="#000000" stroke-width="0.6009" opacity="1" fill="none">
<text y="-6" font-size="31" stroke="none" fill="#8800cc" text-anchor="middle">puneet Madaan</text>

<text y="-37" font-size="31" stroke="none" fill="#8800cc" text-anchor="middle">Mentor </text>
</g><g transform="translate(0,1.07832) scale(0.49925) translate(773.18312,2704.17893)" stroke="#000000" stroke-width="0.6009" opacity="1" fill="none">
<text y="-6" font-size="31" stroke="none" fill="#8800cc" text-anchor="middle">Nitika Choudhary</text>

<text y="-37" font-size="31" stroke="none" fill="#8800cc" text-anchor="middle">Mentor </text>
</g><g transform="translate(0,1.07832) scale(0.49925) translate(1713.55679,592.15339)" stroke="#000000" stroke-width="0.6009" opacity="1" fill="none">
<text y="-11" font-size="56" stroke="none" fill="#8800cc" text-anchor="middle">Sandeep Banarwal</text>

<text y="-67" font-size="56" stroke="none" fill="#8800cc" text-anchor="middle">Chamkaur Singh </text>

<text y="-123" font-size="56" stroke="none" fill="#8800cc" text-anchor="middle">Admin Team </text>
</g><g transform="translate(0,1.07832) scale(0.49925) translate(1121.00407,3574.53647) rotate(90) translate(0,125)" stroke="#000000" stroke-width="0.6009" opacity="1" fill="none">
<text y="-50" font-size="250" stroke="none" fill="#8800cc" text-anchor="middle">Startups</text>
</g><g transform="translate(0,1.07832) scale(0.49925) translate(1496.68576,2092.0556)" stroke="#000000" stroke-width="0.6009" opacity="1" fill="none">
<text y="-11" font-size="56" stroke="none" fill="#8800cc" text-anchor="middle">Lift 1</text>
</g><g transform="translate(0,1.07832) scale(0.49925) translate(7033.53,5912.65857)" stroke="#006600" stroke-width="1.8027" opacity="1" fill="none">
<line x1="-6982.08" y1="-5775.3716" x2="-4988.4323" y2="-5775.3716"/>
</g><g transform="translate(0,1.07832) scale(0.49925) translate(7033.53,5912.65857)" stroke="#ffffff" stroke-width="0.6009" opacity="1" fill="none">
<line x1="-6982.08" y1="-5775.3716" x2="-4988.4323" y2="-5775.3716"/>
</g><g transform="translate(0,1.07832) scale(0.49925) translate(7033.53,5912.65857)" stroke="#006600" stroke-width="1.8027" opacity="1" fill="none">
<line x1="-6975.58" y1="-5749.3716" x2="-6975.58" y2="-5781.8716"/>
</g><g transform="translate(0,1.07832) scale(0.49925) translate(7033.53,5912.65857)" stroke="#ffffff" stroke-width="0.6009" opacity="1" fill="none">
<line x1="-6975.58" y1="-5749.3716" x2="-6975.58" y2="-5781.8716"/>
</g><g transform="translate(0,1.07832) scale(0.49925) translate(7033.53,5912.65857)" stroke="#006600" stroke-width="1.8027" opacity="1" fill="none">
<line x1="-6978.83" y1="-5778.6216" x2="-6972.33" y2="-5772.1216"/>
</g><g transform="translate(0,1.07832) scale(0.49925) translate(7033.53,5912.65857)" stroke="#ffffff" stroke-width="0.6009" opacity="1" fill="none">
<line x1="-6978.83" y1="-5778.6216" x2="-6972.33" y2="-5772.1216"/>
</g><g transform="translate(0,1.07832) scale(0.49925) translate(7033.53,5912.65857)" stroke="#006600" stroke-width="1.8027" opacity="1" fill="none">
<line x1="-6960.33997" y1="-5749.3716" x2="-6960.33997" y2="-5781.8716"/>
</g><g transform="translate(0,1.07832) scale(0.49925) translate(7033.53,5912.65857)" stroke="#ffffff" stroke-width="0.6009" opacity="1" fill="none">
<line x1="-6960.33997" y1="-5749.3716" x2="-6960.33997" y2="-5781.8716"/>
</g><g transform="translate(0,1.07832) scale(0.49925) translate(7033.53,5912.65857)" stroke="#006600" stroke-width="1.8027" opacity="1" fill="none">
<line x1="-6963.58997" y1="-5778.6216" x2="-6957.08997" y2="-5772.1216"/>
</g><g transform="translate(0,1.07832) scale(0.49925) translate(7033.53,5912.65857)" stroke="#ffffff" stroke-width="0.6009" opacity="1" fill="none">
<line x1="-6963.58997" y1="-5778.6216" x2="-6957.08997" y2="-5772.1216"/>
</g><g transform="translate(0,1.07832) scale(0.49925) translate(65.57002,134.03697)" stroke="#ffffff" stroke-width="0.6009" opacity="1" fill="none">
<text y="-2" font-size="13" stroke="black" stroke-width="0.30045" fill="white" text-anchor="middle">0.2</text>
</g><g transform="translate(0,1.07832) scale(0.49925) translate(7033.53,5912.65857)" stroke="#006600" stroke-width="1.8027" opacity="1" fill="none">
<line x1="-5010.17226" y1="-5749.3716" x2="-5010.17226" y2="-5781.8716"/>
</g><g transform="translate(0,1.07832) scale(0.49925) translate(7033.53,5912.65857)" stroke="#ffffff" stroke-width="0.6009" opacity="1" fill="none">
<line x1="-5010.17226" y1="-5749.3716" x2="-5010.17226" y2="-5781.8716"/>
</g><g transform="translate(0,1.07832) scale(0.49925) translate(7033.53,5912.65857)" stroke="#006600" stroke-width="1.8027" opacity="1" fill="none">
<line x1="-5013.42226" y1="-5778.6216" x2="-5006.92226" y2="-5772.1216"/>
</g><g transform="translate(0,1.07832) scale(0.49925) translate(7033.53,5912.65857)" stroke="#ffffff" stroke-width="0.6009" opacity="1" fill="none">
<line x1="-5013.42226" y1="-5778.6216" x2="-5006.92226" y2="-5772.1216"/>
</g><g transform="translate(0,1.07832) scale(0.49925) translate(1048.27388,134.03697)" stroke="#ffffff" stroke-width="0.6009" opacity="1" fill="none">
<text y="-2" font-size="13" stroke="black" stroke-width="0.30045" fill="white" text-anchor="middle">19.5</text>
</g><g transform="translate(0,1.07832) scale(0.49925) translate(7033.53,5912.65857)" stroke="#006600" stroke-width="1.8027" opacity="1" fill="none">
<line x1="-4994.9323" y1="-5749.3716" x2="-4994.9323" y2="-5781.8716"/>
</g><g transform="translate(0,1.07832) scale(0.49925) translate(7033.53,5912.65857)" stroke="#ffffff" stroke-width="0.6009" opacity="1" fill="none">
<line x1="-4994.9323" y1="-5749.3716" x2="-4994.9323" y2="-5781.8716"/>
</g><g transform="translate(0,1.07832) scale(0.49925) translate(7033.53,5912.65857)" stroke="#006600" stroke-width="1.8027" opacity="1" fill="none">
<line x1="-4998.1823" y1="-5778.6216" x2="-4991.6823" y2="-5772.1216"/>
</g><g transform="translate(0,1.07832) scale(0.49925) translate(7033.53,5912.65857)" stroke="#ffffff" stroke-width="0.6009" opacity="1" fill="none">
<line x1="-4998.1823" y1="-5778.6216" x2="-4991.6823" y2="-5772.1216"/>
</g><g transform="translate(0,1.07832) scale(0.49925) translate(2030.97772,134.03697)" stroke="#ffffff" stroke-width="0.6009" opacity="1" fill="none">
<text y="-2" font-size="13" stroke="black" stroke-width="0.30045" fill="white" text-anchor="middle">0.2</text>
</g><g transform="translate(0,1.07832) scale(0.49925) translate(7033.53,5912.65857)" stroke="#006600" stroke-width="1.8027" opacity="1" fill="none">
<line x1="-6982.08" y1="-1673.788" x2="-4988.4323" y2="-1673.788"/>
</g><g transform="translate(0,1.07832) scale(0.49925) translate(7033.53,5912.65857)" stroke="#ffffff" stroke-width="0.6009" opacity="1" fill="none">
<line x1="-6982.08" y1="-1673.788" x2="-4988.4323" y2="-1673.788"/>
</g><g transform="translate(0,1.07832) scale(0.49925) translate(7033.53,5912.65857)" stroke="#006600" stroke-width="1.8027" opacity="1" fill="none">
<line x1="-6975.58" y1="-1699.788" x2="-6975.58" y2="-1667.288"/>
</g><g transform="translate(0,1.07832) scale(0.49925) translate(7033.53,5912.65857)" stroke="#ffffff" stroke-width="0.6009" opacity="1" fill="none">
<line x1="-6975.58" y1="-1699.788" x2="-6975.58" y2="-1667.288"/>
</g><g transform="translate(0,1.07832) scale(0.49925) translate(7033.53,5912.65857)" stroke="#006600" stroke-width="1.8027" opacity="1" fill="none">
<line x1="-6978.83" y1="-1677.038" x2="-6972.33" y2="-1670.538"/>
</g><g transform="translate(0,1.07832) scale(0.49925) translate(7033.53,5912.65857)" stroke="#ffffff" stroke-width="0.6009" opacity="1" fill="none">
<line x1="-6978.83" y1="-1677.038" x2="-6972.33" y2="-1670.538"/>
</g><g transform="translate(0,1.07832) scale(0.49925) translate(7033.53,5912.65857)" stroke="#006600" stroke-width="1.8027" opacity="1" fill="none">
<line x1="-6960.33997" y1="-1699.788" x2="-6960.33997" y2="-1667.288"/>
</g><g transform="translate(0,1.07832) scale(0.49925) translate(7033.53,5912.65857)" stroke="#ffffff" stroke-width="0.6009" opacity="1" fill="none">
<line x1="-6960.33997" y1="-1699.788" x2="-6960.33997" y2="-1667.288"/>
</g><g transform="translate(0,1.07832) scale(0.49925) translate(7033.53,5912.65857)" stroke="#006600" stroke-width="1.8027" opacity="1" fill="none">
<line x1="-6963.58997" y1="-1677.038" x2="-6957.08997" y2="-1670.538"/>
</g><g transform="translate(0,1.07832) scale(0.49925) translate(7033.53,5912.65857)" stroke="#ffffff" stroke-width="0.6009" opacity="1" fill="none">
<line x1="-6963.58997" y1="-1677.038" x2="-6957.08997" y2="-1670.538"/>
</g><g transform="translate(0,1.07832) scale(0.49925) translate(65.57002,4235.62057)" stroke="#ffffff" stroke-width="0.6009" opacity="1" fill="none">
<text y="-2" font-size="13" stroke="black" stroke-width="0.30045" fill="white" text-anchor="middle">0.2</text>
</g><g transform="translate(0,1.07832) scale(0.49925) translate(7033.53,5912.65857)" stroke="#006600" stroke-width="1.8027" opacity="1" fill="none">
<line x1="-5010.17226" y1="-1699.788" x2="-5010.17226" y2="-1667.288"/>
</g><g transform="translate(0,1.07832) scale(0.49925) translate(7033.53,5912.65857)" stroke="#ffffff" stroke-width="0.6009" opacity="1" fill="none">
<line x1="-5010.17226" y1="-1699.788" x2="-5010.17226" y2="-1667.288"/>
</g><g transform="translate(0,1.07832) scale(0.49925) translate(7033.53,5912.65857)" stroke="#006600" stroke-width="1.8027" opacity="1" fill="none">
<line x1="-5013.42226" y1="-1677.038" x2="-5006.92226" y2="-1670.538"/>
</g><g transform="translate(0,1.07832) scale(0.49925) translate(7033.53,5912.65857)" stroke="#ffffff" stroke-width="0.6009" opacity="1" fill="none">
<line x1="-5013.42226" y1="-1677.038" x2="-5006.92226" y2="-1670.538"/>
</g><g transform="translate(0,1.07832) scale(0.49925) translate(1048.27388,4235.62057)" stroke="#ffffff" stroke-width="0.6009" opacity="1" fill="none">
<text y="-2" font-size="13" stroke="black" stroke-width="0.30045" fill="white" text-anchor="middle">19.5</text>
</g><g transform="translate(0,1.07832) scale(0.49925) translate(7033.53,5912.65857)" stroke="#006600" stroke-width="1.8027" opacity="1" fill="none">
<line x1="-4994.9323" y1="-1699.788" x2="-4994.9323" y2="-1667.288"/>
</g><g transform="translate(0,1.07832) scale(0.49925) translate(7033.53,5912.65857)" stroke="#ffffff" stroke-width="0.6009" opacity="1" fill="none">
<line x1="-4994.9323" y1="-1699.788" x2="-4994.9323" y2="-1667.288"/>
</g><g transform="translate(0,1.07832) scale(0.49925) translate(7033.53,5912.65857)" stroke="#006600" stroke-width="1.8027" opacity="1" fill="none">
<line x1="-4998.1823" y1="-1677.038" x2="-4991.6823" y2="-1670.538"/>
</g><g transform="translate(0,1.07832) scale(0.49925) translate(7033.53,5912.65857)" stroke="#ffffff" stroke-width="0.6009" opacity="1" fill="none">
<line x1="-4998.1823" y1="-1677.038" x2="-4991.6823" y2="-1670.538"/>
</g><g transform="translate(0,1.07832) scale(0.49925) translate(2030.97772,4235.62057)" stroke="#ffffff" stroke-width="0.6009" opacity="1" fill="none">
<text y="-2" font-size="13" stroke="black" stroke-width="0.30045" fill="white" text-anchor="middle">0.2</text>
</g><g transform="translate(0,1.07832) scale(0.49925) translate(7033.53,5912.65857)" stroke="#006600" stroke-width="1.8027" opacity="1" fill="none">
<line x1="-7013.28" y1="-5744.1716" x2="-7013.28" y2="-1704.988"/>
</g><g transform="translate(0,1.07832) scale(0.49925) translate(7033.53,5912.65857)" stroke="#ffffff" stroke-width="0.6009" opacity="1" fill="none">
<line x1="-7013.28" y1="-5744.1716" x2="-7013.28" y2="-1704.988"/>
</g><g transform="translate(0,1.07832) scale(0.49925) translate(7033.53,5912.65857)" stroke="#006600" stroke-width="1.8027" opacity="1" fill="none">
<line x1="-6987.28" y1="-5737.6716" x2="-7019.78" y2="-5737.6716"/>
</g><g transform="translate(0,1.07832) scale(0.49925) translate(7033.53,5912.65857)" stroke="#ffffff" stroke-width="0.6009" opacity="1" fill="none">
<line x1="-6987.28" y1="-5737.6716" x2="-7019.78" y2="-5737.6716"/>
</g><g transform="translate(0,1.07832) scale(0.49925) translate(7033.53,5912.65857)" stroke="#006600" stroke-width="1.8027" opacity="1" fill="none">
<line x1="-7010.03" y1="-5740.9216" x2="-7016.53" y2="-5734.4216"/>
</g><g transform="translate(0,1.07832) scale(0.49925) translate(7033.53,5912.65857)" stroke="#ffffff" stroke-width="0.6009" opacity="1" fill="none">
<line x1="-7010.03" y1="-5740.9216" x2="-7016.53" y2="-5734.4216"/>
</g><g transform="translate(0,1.07832) scale(0.49925) translate(7033.53,5912.65857)" stroke="#006600" stroke-width="1.8027" opacity="1" fill="none">
<line x1="-6987.28" y1="-5722.43158" x2="-7019.78" y2="-5722.43158"/>
</g><g transform="translate(0,1.07832) scale(0.49925) translate(7033.53,5912.65857)" stroke="#ffffff" stroke-width="0.6009" opacity="1" fill="none">
<line x1="-6987.28" y1="-5722.43158" x2="-7019.78" y2="-5722.43158"/>
</g><g transform="translate(0,1.07832) scale(0.49925) translate(7033.53,5912.65857)" stroke="#006600" stroke-width="1.8027" opacity="1" fill="none">
<line x1="-7010.03" y1="-5725.68158" x2="-7016.53" y2="-5719.18158"/>
</g><g transform="translate(0,1.07832) scale(0.49925) translate(7033.53,5912.65857)" stroke="#ffffff" stroke-width="0.6009" opacity="1" fill="none">
<line x1="-7010.03" y1="-5725.68158" x2="-7016.53" y2="-5719.18158"/>
</g><g transform="translate(0,1.07832) scale(0.49925) translate(4,182.60698) rotate(270) translate(0,13)" stroke="#ffffff" stroke-width="0.6009" opacity="1" fill="none">
<text y="-2" font-size="13" stroke="black" stroke-width="0.30045" fill="white" text-anchor="middle">0.2</text>
</g><g transform="translate(0,1.07832) scale(0.49925) translate(7033.53,5912.65857)" stroke="#006600" stroke-width="1.8027" opacity="1" fill="none">
<line x1="-6987.28" y1="-1726.72802" x2="-7019.78" y2="-1726.72802"/>
</g><g transform="translate(0,1.07832) scale(0.49925) translate(7033.53,5912.65857)" stroke="#ffffff" stroke-width="0.6009" opacity="1" fill="none">
<line x1="-6987.28" y1="-1726.72802" x2="-7019.78" y2="-1726.72802"/>
</g><g transform="translate(0,1.07832) scale(0.49925) translate(7033.53,5912.65857)" stroke="#006600" stroke-width="1.8027" opacity="1" fill="none">
<line x1="-7010.03" y1="-1729.97802" x2="-7016.53" y2="-1723.47802"/>
</g><g transform="translate(0,1.07832) scale(0.49925) translate(7033.53,5912.65857)" stroke="#ffffff" stroke-width="0.6009" opacity="1" fill="none">
<line x1="-7010.03" y1="-1729.97802" x2="-7016.53" y2="-1723.47802"/>
</g><g transform="translate(0,1.07832) scale(0.49925) translate(4,2188.07877) rotate(270) translate(0,13)" stroke="#ffffff" stroke-width="0.6009" opacity="1" fill="none">
<text y="-2" font-size="13" stroke="black" stroke-width="0.30045" fill="white" text-anchor="middle">40</text>
</g><g transform="translate(0,1.07832) scale(0.49925) translate(7033.53,5912.65857)" stroke="#006600" stroke-width="1.8027" opacity="1" fill="none">
<line x1="-6987.28" y1="-1711.488" x2="-7019.78" y2="-1711.488"/>
</g><g transform="translate(0,1.07832) scale(0.49925) translate(7033.53,5912.65857)" stroke="#ffffff" stroke-width="0.6009" opacity="1" fill="none">
<line x1="-6987.28" y1="-1711.488" x2="-7019.78" y2="-1711.488"/>
</g><g transform="translate(0,1.07832) scale(0.49925) translate(7033.53,5912.65857)" stroke="#006600" stroke-width="1.8027" opacity="1" fill="none">
<line x1="-7010.03" y1="-1714.738" x2="-7016.53" y2="-1708.238"/>
</g><g transform="translate(0,1.07832) scale(0.49925) translate(7033.53,5912.65857)" stroke="#ffffff" stroke-width="0.6009" opacity="1" fill="none">
<line x1="-7010.03" y1="-1714.738" x2="-7016.53" y2="-1708.238"/>
</g><g transform="translate(0,1.07832) scale(0.49925) translate(4,4193.55056) rotate(270) translate(0,13)" stroke="#ffffff" stroke-width="0.6009" opacity="1" fill="none">
<text y="-2" font-size="13" stroke="black" stroke-width="0.30045" fill="white" text-anchor="middle">0.2</text>
</g><g transform="translate(0,1.07832) scale(0.49925) translate(7033.53,5912.65857)" stroke="#006600" stroke-width="1.8027" opacity="1" fill="none">
<line x1="-4957.2323" y1="-5744.1716" x2="-4957.2323" y2="-1704.988"/>
</g><g transform="translate(0,1.07832) scale(0.49925) translate(7033.53,5912.65857)" stroke="#ffffff" stroke-width="0.6009" opacity="1" fill="none">
<line x1="-4957.2323" y1="-5744.1716" x2="-4957.2323" y2="-1704.988"/>
</g><g transform="translate(0,1.07832) scale(0.49925) translate(7033.53,5912.65857)" stroke="#006600" stroke-width="1.8027" opacity="1" fill="none">
<line x1="-4983.2323" y1="-5737.6716" x2="-4950.7323" y2="-5737.6716"/>
</g><g transform="translate(0,1.07832) scale(0.49925) translate(7033.53,5912.65857)" stroke="#ffffff" stroke-width="0.6009" opacity="1" fill="none">
<line x1="-4983.2323" y1="-5737.6716" x2="-4950.7323" y2="-5737.6716"/>
</g><g transform="translate(0,1.07832) scale(0.49925) translate(7033.53,5912.65857)" stroke="#006600" stroke-width="1.8027" opacity="1" fill="none">
<line x1="-4953.9823" y1="-5740.9216" x2="-4960.4823" y2="-5734.4216"/>
</g><g transform="translate(0,1.07832) scale(0.49925) translate(7033.53,5912.65857)" stroke="#ffffff" stroke-width="0.6009" opacity="1" fill="none">
<line x1="-4953.9823" y1="-5740.9216" x2="-4960.4823" y2="-5734.4216"/>
</g><g transform="translate(0,1.07832) scale(0.49925) translate(7033.53,5912.65857)" stroke="#006600" stroke-width="1.8027" opacity="1" fill="none">
<line x1="-4983.2323" y1="-5722.43158" x2="-4950.7323" y2="-5722.43158"/>
</g><g transform="translate(0,1.07832) scale(0.49925) translate(7033.53,5912.65857)" stroke="#ffffff" stroke-width="0.6009" opacity="1" fill="none">
<line x1="-4983.2323" y1="-5722.43158" x2="-4950.7323" y2="-5722.43158"/>
</g><g transform="translate(0,1.07832) scale(0.49925) translate(7033.53,5912.65857)" stroke="#006600" stroke-width="1.8027" opacity="1" fill="none">
<line x1="-4953.9823" y1="-5725.68158" x2="-4960.4823" y2="-5719.18158"/>
</g><g transform="translate(0,1.07832) scale(0.49925) translate(7033.53,5912.65857)" stroke="#ffffff" stroke-width="0.6009" opacity="1" fill="none">
<line x1="-4953.9823" y1="-5725.68158" x2="-4960.4823" y2="-5719.18158"/>
</g><g transform="translate(0,1.07832) scale(0.49925) translate(2060.0477,182.60698) rotate(270) translate(0,13)" stroke="#ffffff" stroke-width="0.6009" opacity="1" fill="none">
<text y="-2" font-size="13" stroke="black" stroke-width="0.30045" fill="white" text-anchor="middle">0.2</text>
</g><g transform="translate(0,1.07832) scale(0.49925) translate(7033.53,5912.65857)" stroke="#006600" stroke-width="1.8027" opacity="1" fill="none">
<line x1="-4983.2323" y1="-1726.72802" x2="-4950.7323" y2="-1726.72802"/>
</g><g transform="translate(0,1.07832) scale(0.49925) translate(7033.53,5912.65857)" stroke="#ffffff" stroke-width="0.6009" opacity="1" fill="none">
<line x1="-4983.2323" y1="-1726.72802" x2="-4950.7323" y2="-1726.72802"/>
</g><g transform="translate(0,1.07832) scale(0.49925) translate(7033.53,5912.65857)" stroke="#006600" stroke-width="1.8027" opacity="1" fill="none">
<line x1="-4953.9823" y1="-1729.97802" x2="-4960.4823" y2="-1723.47802"/>
</g><g transform="translate(0,1.07832) scale(0.49925) translate(7033.53,5912.65857)" stroke="#ffffff" stroke-width="0.6009" opacity="1" fill="none">
<line x1="-4953.9823" y1="-1729.97802" x2="-4960.4823" y2="-1723.47802"/>
</g><g transform="translate(0,1.07832) scale(0.49925) translate(2060.0477,2188.07877) rotate(270) translate(0,13)" stroke="#ffffff" stroke-width="0.6009" opacity="1" fill="none">
<text y="-2" font-size="13" stroke="black" stroke-width="0.30045" fill="white" text-anchor="middle">40</text>
</g><g transform="translate(0,1.07832) scale(0.49925) translate(7033.53,5912.65857)" stroke="#006600" stroke-width="1.8027" opacity="1" fill="none">
<line x1="-4983.2323" y1="-1711.488" x2="-4950.7323" y2="-1711.488"/>
</g><g transform="translate(0,1.07832) scale(0.49925) translate(7033.53,5912.65857)" stroke="#ffffff" stroke-width="0.6009" opacity="1" fill="none">
<line x1="-4983.2323" y1="-1711.488" x2="-4950.7323" y2="-1711.488"/>
</g><g transform="translate(0,1.07832) scale(0.49925) translate(7033.53,5912.65857)" stroke="#006600" stroke-width="1.8027" opacity="1" fill="none">
<line x1="-4953.9823" y1="-1714.738" x2="-4960.4823" y2="-1708.238"/>
</g><g transform="translate(0,1.07832) scale(0.49925) translate(7033.53,5912.65857)" stroke="#ffffff" stroke-width="0.6009" opacity="1" fill="none">
<line x1="-4953.9823" y1="-1714.738" x2="-4960.4823" y2="-1708.238"/>
</g><g transform="translate(0,1.07832) scale(0.49925) translate(2060.0477,4193.55056) rotate(270) translate(0,13)" stroke="#ffffff" stroke-width="0.6009" opacity="1" fill="none">
<text y="-2" font-size="13" stroke="black" stroke-width="0.30045" fill="white" text-anchor="middle">0.2</text></g></g>
</svg>