<?xml version="1.0" encoding="UTF-8" standalone="no"?>
<!DOCTYPE svg PUBLIC "-//W3C//DTD SVG 1.1//EN"
"http://www.w3.org/Graphics/SVG/1.1/DTD/svg11.dtd">
<svg xmlns="http://www.w3.org/2000/svg"
xmlns:xlink="http://www.w3.org/1999/xlink" xml:space="preserve"
width="1117pt" height="2209pt"
viewBox="0 0 1117 2209">
<g font-family="sans-serif" font-weight="bold">
<g transform="translate(0,0.63674) scale(0.4994) translate(3909.18834,8439.09017)" stroke="#773dde" fill="none">
<path d="M-1730.4448,-4076.2634 L-3744.0256,-4076.2634 -3744.0256,-8102.447 -1730.4448,-8102.447 z" fill="#773dde" stroke="none"/>
</g><g transform="translate(0,0.63674) scale(0.4994) translate(3909.18834,8439.09017)" stroke="#fff6e8" fill="none">
<path d="M-1745.6848,-4091.5034 L-1745.6848,-8087.207 -3728.7856,-8087.207 -3728.7856,-6696.0943 -3744.0256,-6696.0943 -3744.0256,-5457.2281 -3728.7856,-5457.2281 -3728.7856,-4091.5034 z" fill="#fff6e8" stroke="none"/>
</g><g transform="translate(0,0.63674) scale(0.4994) translate(3909.18834,8439.09017)" stroke="#773dde" stroke-width="1.80217" fill="none">
<path d="M-2766.9736,-5445.206 L-3730.0765,-5445.206 -3730.0765,-5457.208 -2766.9736,-5457.208 z" fill="#773dde" stroke="none"/>

<path d="M-3077.6838,-5179.9595 L-3728.7866,-5179.9595 -3728.7866,-5191.9615 -3077.6838,-5191.9615 z" fill="#773dde" stroke="none"/>

<path d="M-3065.6838,-4930.206 L-3077.6858,-4930.206 -3077.6858,-4938.3151 -3065.6838,-4938.3151 z M-3065.6838,-5039.5605 L-3077.6858,-5039.5605 -3077.6858,-5343.5096 -3065.6838,-5343.5096 z M-3065.6838,-5438.8122 L-3077.6858,-5438.8122 -3077.6858,-5445.208 -3065.6838,-5445.208 z" fill="#773dde" stroke="none"/>

<path d="M-2746.7226,-4918.206 L-3728.5786,-4918.206 -3728.5786,-4930.208 -2746.7226,-4930.208 z M-2395.4758,-4918.206 L-2549.4301,-4918.206 -2549.4301,-4930.208 -2395.4758,-4930.208 z" fill="#773dde" stroke="none"/>

<path d="M-2766.9736,-5457.206 L-2778.9756,-5457.206 -2778.9756,-5554.965 -2766.9736,-5554.965 z M-2766.9736,-5656.2104 L-2778.9756,-5656.2104 -2778.9756,-6583.8221 -2766.9736,-6583.8221 z M-2766.9736,-6685.0675 L-2778.9756,-6685.0675 -2778.9756,-6697.208 -2766.9736,-6697.208 z" fill="#773dde" stroke="none"/>

<path d="M-2383.4764,-7507.7073 L-2395.4784,-7507.7073 -2395.4784,-7699.6897 -2383.4764,-7699.6897 z M-2383.4764,-7797.7083 L-2395.4784,-7797.7083 -2395.4784,-8087.7093 -2383.4764,-8087.7093 z" fill="#773dde" stroke="none"/>

<path d="M-1745.6745,-7519.208 L-1745.6838,-7507.206 -2395.4784,-7507.7073 -2395.4691,-7519.7093 z" fill="#773dde" stroke="none"/>

<path d="M-2778.9736,-6685.206 L-3569.7647,-6685.206 -3569.7647,-6697.208 -2778.9736,-6697.208 z" fill="#773dde" stroke="none"/>

<path d="M-2777.6838,-7365.206 L-3740.2547,-7365.206 -3740.2547,-7377.208 -2777.6838,-7377.208 z" fill="#773dde" stroke="none"/>

<path d="M-2765.6838,-6697.206 L-2777.6858,-6697.206 -2777.6858,-7178.3735 -2765.6838,-7178.3735 z M-2765.6838,-7279.6189 L-2777.6858,-7279.6189 -2777.6858,-7377.208 -2765.6838,-7377.208 z" fill="#773dde" stroke="none"/>

<path d="M-1745.6838,-6774.1584 L-2395.4778,-6774.1584 -2395.4778,-6824.1604 -1745.6838,-6824.1604 z" fill="#773dde" stroke="none"/>

<path d="M-2383.4764,-6969.1584 L-2395.4784,-6969.1578 -2395.5063,-7508.5266 -2383.5043,-7508.5272 z" fill="#773dde" stroke="none"/>

<path d="M-2383.4758,-6171.206 L-2395.4778,-6171.206 -2395.4778,-6251.208 -2383.4758,-6251.208 z" fill="#773dde" stroke="none"/>

<path d="M-2095.4758,-6633.206 L-2395.4778,-6633.206 -2395.4778,-6645.208 -2095.4758,-6645.208 z" fill="#773dde" stroke="none"/>

<path d="M-2235.5837,-6824.1584 L-2247.5857,-6824.1584 -2247.5857,-6841.1713 -2235.5837,-6841.1713 z M-2235.5837,-6938.7817 L-2247.5857,-6938.7817 -2247.5857,-6969.1604 -2235.5837,-6969.1604 z" fill="#773dde" stroke="none"/>

<path d="M-2368.7771,-6957.1584 L-2395.4778,-6957.1584 -2395.4778,-6969.1604 -2368.7771,-6969.1604 z M-1745.5252,-6957.1584 L-2272.4912,-6957.1584 -2272.4912,-6969.1604 -1745.5252,-6969.1604 z" fill="#773dde" stroke="none"/>

<path d="M-2095.4758,-6251.206 L-2395.4778,-6251.206 -2395.4778,-6263.208 -2095.4758,-6263.208 z" fill="#773dde" stroke="none"/>

<path d="M-2383.4758,-5570.206 L-2395.4778,-5570.206 -2395.4778,-5623.4 -2383.4758,-5623.4 z M-2383.4758,-5723.3998 L-2395.4778,-5723.3998 -2395.4778,-5935.208 -2383.4758,-5935.208 z" fill="#773dde" stroke="none"/>

<path d="M-2203.9879,-6645.206 L-2215.9899,-6645.206 -2215.9899,-6647.9983 -2203.9879,-6647.9983 z M-2203.9879,-6771.3681 L-2215.9899,-6771.3681 -2215.9899,-6774.1604 -2203.9879,-6774.1604 z" fill="#773dde" stroke="none"/>

<path d="M-2383.4758,-6263.206 L-2395.4778,-6263.206 -2395.4778,-6633.208 -2383.4758,-6633.208 z" fill="#773dde" stroke="none"/>

<path d="M-2095.4758,-6159.206 L-2395.4778,-6159.206 -2395.4778,-6171.208 -2095.4758,-6171.208 z" fill="#773dde" stroke="none"/>

<path d="M-2095.4758,-6171.206 L-2107.4778,-6171.206 -2107.4778,-6251.208 -2095.4758,-6251.208 z" fill="#773dde" stroke="none"/>

<path d="M-2383.4758,-6039.206 L-2395.4778,-6039.206 -2395.4778,-6159.208 -2383.4758,-6159.208 z" fill="#773dde" stroke="none"/>

<path d="M-2095.4758,-6027.206 L-2395.4778,-6027.206 -2395.4778,-6039.208 -2095.4758,-6039.208 z" fill="#773dde" stroke="none"/>

<path d="M-2095.4758,-5935.206 L-2395.4778,-5935.206 -2395.4778,-5947.208 -2095.4758,-5947.208 z" fill="#773dde" stroke="none"/>

<path d="M-2383.4758,-5947.206 L-2395.4778,-5947.206 -2395.4778,-6027.208 -2383.4758,-6027.208 z" fill="#773dde" stroke="none"/>

<path d="M-2095.4758,-5947.206 L-2107.4778,-5947.206 -2107.4778,-6027.208 -2095.4758,-6027.208 z" fill="#773dde" stroke="none"/>

<path d="M-2295.4758,-5721.9595 L-2395.4778,-5721.9595 -2395.4778,-5733.9615 -2295.4758,-5733.9615 z" fill="#773dde" stroke="none"/>

<path d="M-2295.4758,-5621.9595 L-2307.4778,-5621.9595 -2307.4778,-5721.9615 -2295.4758,-5721.9615 z" fill="#773dde" stroke="none"/>

<path d="M-2094.599,-5571.9595 L-2394.601,-5571.9595 -2394.601,-5621.9615 -2094.599,-5621.9615 z" fill="#773dde" stroke="none"/>

<path d="M-2095.4758,-5191.9595 L-2107.4778,-5191.9595 -2107.4778,-5275.3534 -2095.4758,-5275.3534 z M-2095.4758,-5373.372 L-2107.4778,-5373.372 -2107.4778,-5391.9615 -2095.4758,-5391.9615 z" fill="#773dde" stroke="none"/>

<path d="M-2095.4758,-5394.8427 L-2395.4778,-5394.8427 -2395.4778,-5444.8447 -2095.4758,-5444.8447 z" fill="#773dde" stroke="none"/>

<path d="M-2095.4758,-5179.9595 L-2395.4778,-5179.9595 -2395.4778,-5191.9615 -2095.4758,-5191.9615 z" fill="#773dde" stroke="none"/>

<path d="M-2383.4758,-5179.9551 L-2383.6838,-4791.496 -2395.6858,-4791.5024 -2395.4778,-5179.9615 z" fill="#773dde" stroke="none"/>

<path d="M-2383.6838,-4091.5024 L-2395.6858,-4091.5024 -2395.6858,-4791.5044 -2383.6838,-4791.5044 z" fill="#773dde" stroke="none"/>

<path d="M-1795.4758,-5379.9595 L-2095.4778,-5379.9595 -2095.4778,-5391.9615 -1795.4758,-5391.9615 z" fill="#773dde" stroke="none"/>

<path d="M-1795.4758,-5279.9595 L-1807.4778,-5279.9595 -1807.4778,-5379.9615 -1795.4758,-5379.9615 z" fill="#773dde" stroke="none"/>

<path d="M-1795.4758,-5267.9595 L-2095.4778,-5267.9595 -2095.4778,-5279.9615 -1795.4758,-5279.9615 z" fill="#773dde" stroke="none"/>

<path d="M-2095.4758,-6263.206 L-2107.4778,-6263.206 -2107.4778,-6633.208 -2095.4758,-6633.208 z" fill="#773dde" stroke="none"/>

<path d="M-2094.599,-5590.2272 L-2106.601,-5590.2097 -2107.4778,-6192.0265 -2095.4758,-6192.044 z" fill="#773dde" stroke="none"/>

<path d="M-3557.7627,-5457.206 L-3569.7647,-5457.206 -3569.7647,-6685.208 -3557.7627,-6685.208 z" fill="#773dde" stroke="none"/>

<path d="M-2203.9879,-5444.8427 L-2213.9899,-5444.8427 -2213.9899,-5446.7172 -2203.9879,-5446.7172 z M-2203.9879,-5570.087 L-2213.9899,-5570.087 -2213.9899,-5571.9615 -2203.9879,-5571.9615 z" fill="#773dde" stroke="none"/>

<path d="M-3569.7627,-6685.206 L-3744.1815,-6685.206 -3744.1815,-6697.208 -3569.7627,-6697.208 z" fill="#773dde" stroke="none"/>

<path d="M-2559.5911,-7525.6185 L-2714.7173,-7438.725 -2719.6053,-7447.4513 -2564.4791,-7534.3447 z" fill="#773dde" stroke="none"/>
</g><g transform="translate(0,0.63674) scale(0.4994) translate(3909.18834,8439.09017)" stroke="#111111" stroke-width="1.80217" fill="none">
<path d="M-1730.4448,-4076.2634 L-3744.0256,-4076.2634 -3744.0256,-5457.2281 -3728.7856,-5457.2281 -3728.7856,-5457.208 -3569.7647,-5457.208 -3569.7647,-6685.206 -3744.1815,-6685.206 -3744.1815,-6697.208 -3744.0256,-6697.208 -3744.0256,-8102.447 -1730.4448,-8102.447 z M-2765.6838,-7279.6189 L-2777.6858,-7279.6189 -2777.6858,-7365.206 -3728.7856,-7365.206 -3728.7856,-6697.208 -2777.6858,-6697.208 -2777.6858,-7178.3735 -2765.6838,-7178.3735 -2765.6838,-6697.206 -2766.9736,-6697.206 -2766.9736,-6685.0675 -2778.9756,-6685.0675 -2778.9756,-6685.206 -3557.7627,-6685.206 -3557.7627,-5457.208 -2778.9756,-5457.208 -2778.9756,-5554.965 -2766.9736,-5554.965 -2766.9736,-5445.206 -3065.6838,-5445.206 -3065.6838,-5438.8122 -3077.6858,-5438.8122 -3077.6858,-5445.206 -3728.7856,-5445.206 -3728.7856,-5191.9615 -3077.6858,-5191.9615 -3077.6858,-5343.5096 -3065.6838,-5343.5096 -3065.6838,-5039.5605 -3077.6858,-5039.5605 -3077.6858,-5179.9595 -3728.7856,-5179.9595 -3728.7856,-4091.5034 -2395.6858,-4091.5034 -2395.6858,-4791.5044 -2395.618,-4918.206 -2549.4301,-4918.206 -2549.4301,-4930.208 -2395.6115,-4930.208 -2395.4778,-5179.9615 -2395.4778,-5191.9615 -2107.4778,-5191.9615 -2107.4778,-5275.3534 -2095.4778,-5275.3534 -2095.4778,-5279.9615 -1807.4778,-5279.9615 -1807.4778,-5379.9595 -2095.4758,-5379.9595 -2095.4758,-5373.372 -2107.4778,-5373.372 -2107.4778,-5391.9615 -1795.4758,-5391.9615 -1795.4758,-5267.9595 -2095.4758,-5267.9595 -2095.4758,-5179.9595 -2391.7272,-5179.9595 -2383.4758,-5179.9551 -2383.6838,-4791.496 -2383.6838,-4091.5034 -1745.6848,-4091.5034 -1745.6848,-6774.1584 -2203.9879,-6774.1584 -2203.9879,-6771.3681 -2215.9899,-6771.3681 -2215.9899,-6774.1584 -2395.4778,-6774.1584 -2395.4778,-6824.1604 -2247.5857,-6824.1604 -2247.5857,-6841.1713 -2235.5837,-6841.1713 -2235.5837,-6824.1604 -1745.6848,-6824.1604 -1745.6848,-6957.1584 -2235.5837,-6957.1584 -2235.5837,-6938.7817 -2247.5857,-6938.7817 -2247.5857,-6957.1584 -2272.4912,-6957.1584 -2272.4912,-6969.1604 -1745.6848,-6969.1604 -1745.6848,-7507.206 -2383.5043,-7507.6981 -2383.4764,-6969.1604 -2368.7771,-6969.1604 -2368.7771,-6957.1584 -2395.4778,-6957.1584 -2395.4778,-6969.1578 -2395.4784,-6969.1578 -2395.5063,-7508.5266 -2395.4784,-7508.5266 -2395.4784,-7699.6897 -2383.4764,-7699.6897 -2383.4764,-7519.7 -1745.6848,-7519.208 -1745.6848,-8087.207 -2383.4764,-8087.207 -2383.4764,-7797.7083 -2395.4784,-7797.7083 -2395.4784,-8087.207 -3728.7856,-8087.207 -3728.7856,-7377.208 -2765.6838,-7377.208 z M-3065.6838,-4930.208 L-2746.7226,-4930.208 -2746.7226,-4918.206 -3728.5786,-4918.206 -3728.5786,-4930.208 -3077.6858,-4930.208 -3077.6858,-4938.3151 -3065.6838,-4938.3151 z M-2203.9879,-5444.8447 L-2095.4758,-5444.8447 -2095.4758,-5394.8427 -2395.4778,-5394.8427 -2395.4778,-5444.8447 -2213.9899,-5444.8447 -2213.9899,-5446.7172 -2203.9879,-5446.7172 z M-2094.6452,-5621.9615 L-2094.599,-5621.9615 -2094.599,-5571.9595 -2203.9879,-5571.9595 -2203.9879,-5570.087 -2213.9899,-5570.087 -2213.9899,-5571.9595 -2383.4758,-5571.9595 -2383.4758,-5570.206 -2395.4778,-5570.206 -2395.4778,-5623.4 -2383.4758,-5623.4 -2383.4758,-5621.9615 -2307.4778,-5621.9615 -2307.4778,-5721.9595 -2395.4778,-5721.9595 -2395.4778,-6645.208 -2215.9899,-6645.208 -2215.9899,-6647.9983 -2203.9879,-6647.9983 -2203.9879,-6645.208 -2095.4758,-6645.208 -2095.4758,-6192.044 z M-2106.6473,-5621.9615 L-2107.1036,-5935.206 -2383.4758,-5935.206 -2383.4758,-5733.9615 -2295.4758,-5733.9615 -2295.4758,-5621.9615 z M-2766.9736,-5656.2104 L-2778.9756,-5656.2104 -2778.9756,-6583.8221 -2766.9736,-6583.8221 z M-2383.4758,-6027.206 L-2383.4758,-5947.208 -2107.4778,-5947.208 -2107.4778,-6027.206 z M-2383.4758,-6159.206 L-2383.4758,-6039.208 -2107.2552,-6039.208 -2107.43,-6159.206 z M-2383.4758,-6251.206 L-2383.4758,-6171.208 -2107.4778,-6171.208 -2107.4778,-6251.206 z M-2383.4758,-6633.206 L-2383.4758,-6263.208 -2107.4778,-6263.208 -2107.4778,-6633.206 z M-2559.5911,-7525.6185 L-2714.7173,-7438.725 -2719.6053,-7447.4513 -2564.4791,-7534.3447 z"/>
</g><g transform="translate(0,0.63674) scale(0.4994) translate(3909.18834,8439.09017)" stroke="#000000" stroke-width="0.60072" fill="none">
<path d="M407.3556,-1216.6998 L267.3556,-1216.6998 267.3556,-1154.1998 127.3456,-1154.1998 127.3456,-1391.7098 267.3456,-1391.7098 267.3456,-1454.2098 407.3556,-1454.2098 z M57.2029,-1679.4462 L-217.3231,-1679.4462 -217.3231,-1759.4562 57.2029,-1759.4562 z M57.1167,-1903.4462 L-218.8071,-1903.4462 -218.8071,-1983.4562 57.1167,-1983.4562 z M249.4796,-2314.9562 L389.4796,-2314.9562 389.4796,-2075.601 249.4696,-2075.601 249.4696,-2139.9462 109.4696,-2139.9462 109.4696,-2377.4562 249.4796,-2377.4562 z"/>
</g><g transform="translate(0,0.63674) scale(0.4994) translate(3909.18834,8439.09017)" stroke="#ffffff" stroke-width="0.60072" opacity="1" fill="none">
<path d="M-2429.36288,-5103.8553 C-2430.62999,-5105.66492 -2433.12417,-5106.10471 -2434.93379,-5104.8376 L-2440.66786,-5100.82257 C-2442.47748,-5099.55546 -2442.91727,-5097.06128 -2441.65016,-5095.25166 L-2400.92623,-5037.09186 C-2399.65912,-5035.28224 -2397.16494,-5034.84245 -2395.35532,-5036.10956 L-2389.62126,-5040.12459 C-2387.81164,-5041.3917 -2387.37184,-5043.88589 -2388.63895,-5045.69551 z" fill="#ffffff" stroke="none"/>

<path d="M-2571.48151,-5004.34277 C-2572.74862,-5006.15239 -2575.2428,-5006.59218 -2577.05242,-5005.32507 L-2582.78649,-5001.31003 C-2584.59611,-5000.04292 -2585.0359,-4997.54874 -2583.76879,-4995.73912 L-2543.04486,-4937.57933 C-2541.77775,-4935.7697 -2539.28357,-4935.32991 -2537.47395,-4936.59702 L-2531.73988,-4940.61206 C-2529.93026,-4941.87917 -2529.49047,-4944.37335 -2530.75758,-4946.18297 z" fill="#ffffff" stroke="none"/>

<path d="M-2443.37089,-5097.70911 C-2445.58833,-5100.87595 -2449.95315,-5101.64558 -2453.11999,-5099.42814 L-2571.48321,-5016.54932 C-2574.65005,-5014.33188 -2575.41968,-5009.96706 -2573.20224,-5006.80022 L-2525.59539,-4938.8106 -2395.76405,-5029.71949 z" fill="#ffffff" stroke="none"/>
</g><g transform="translate(0,0.63674) scale(0.4994) translate(3909.18834,8439.09017)" stroke="#000000" stroke-width="0.60072" opacity="1" fill="none">
<path d="M-2429.36288,-5103.8553 C-2430.62999,-5105.66492 -2433.12417,-5106.10471 -2434.93379,-5104.8376 L-2440.66786,-5100.82257 C-2442.47748,-5099.55546 -2442.91727,-5097.06128 -2441.65016,-5095.25166 L-2400.92623,-5037.09186 C-2399.65912,-5035.28224 -2397.16494,-5034.84245 -2395.35532,-5036.10956 L-2389.62126,-5040.12459 C-2387.81164,-5041.3917 -2387.37184,-5043.88589 -2388.63895,-5045.69551 z"/>

<path d="M-2571.48151,-5004.34277 C-2572.74862,-5006.15239 -2575.2428,-5006.59218 -2577.05242,-5005.32507 L-2582.78649,-5001.31003 C-2584.59611,-5000.04292 -2585.0359,-4997.54874 -2583.76879,-4995.73912 L-2543.04486,-4937.57933 C-2541.77775,-4935.7697 -2539.28357,-4935.32991 -2537.47395,-4936.59702 L-2531.73988,-4940.61206 C-2529.93026,-4941.87917 -2529.49047,-4944.37335 -2530.75758,-4946.18297 z"/>

<path d="M-2443.37089,-5097.70911 C-2445.58833,-5100.87595 -2449.95315,-5101.64558 -2453.11999,-5099.42814 L-2571.48321,-5016.54932 C-2574.65005,-5014.33188 -2575.41968,-5009.96706 -2573.20224,-5006.80022 L-2525.59539,-4938.8106 -2395.76405,-5029.71949 z"/>

<line x1="-2410.10346" y1="-5050.19829" x2="-2539.93481" y2="-4959.2894"/>

<line x1="-2475.01913" y1="-5004.74385" x2="-2512.3016" y2="-5057.98873"/>
</g><g transform="translate(0,0.63674) scale(0.4994) translate(3909.18834,8439.09017)" stroke="#ffffff" stroke-width="0.60072" opacity="1" fill="none">
<path d="M-2685.68478,-6739.91177 C-2683.47564,-6739.91177 -2681.68478,-6741.70263 -2681.68478,-6743.91177 L-2681.68478,-6750.91177 C-2681.68478,-6753.12091 -2683.47564,-6754.91177 -2685.68478,-6754.91177 L-2756.68478,-6754.91177 C-2758.89392,-6754.91177 -2760.68478,-6753.12091 -2760.68478,-6750.91177 L-2760.68478,-6743.91177 C-2760.68478,-6741.70263 -2758.89392,-6739.91177 -2756.68478,-6739.91177 z" fill="#ffffff" stroke="none"/>

<path d="M-2685.68478,-6914.91177 C-2683.47564,-6914.91177 -2681.68478,-6916.70263 -2681.68478,-6918.91177 L-2681.68478,-6925.91177 C-2681.68478,-6928.12091 -2683.47564,-6929.91177 -2685.68478,-6929.91177 L-2756.68478,-6929.91177 C-2758.89392,-6929.91177 -2760.68478,-6928.12091 -2760.68478,-6925.91177 L-2760.68478,-6918.91177 C-2760.68478,-6916.70263 -2758.89392,-6914.91177 -2756.68478,-6914.91177 z" fill="#ffffff" stroke="none"/>

<path d="M-2682.68478,-6754.91177 C-2678.81879,-6754.91177 -2675.68478,-6758.04578 -2675.68478,-6761.91177 L-2675.68478,-6907.91177 C-2675.68478,-6911.77776 -2678.81879,-6914.91177 -2682.68478,-6914.91177 L-2765.68478,-6914.91177 -2765.68478,-6754.91177 z" fill="#ffffff" stroke="none"/>
</g><g transform="translate(0,0.63674) scale(0.4994) translate(3909.18834,8439.09017)" stroke="#000000" stroke-width="0.60072" opacity="1" fill="none">
<path d="M-2685.68478,-6739.91177 C-2683.47564,-6739.91177 -2681.68478,-6741.70263 -2681.68478,-6743.91177 L-2681.68478,-6750.91177 C-2681.68478,-6753.12091 -2683.47564,-6754.91177 -2685.68478,-6754.91177 L-2756.68478,-6754.91177 C-2758.89392,-6754.91177 -2760.68478,-6753.12091 -2760.68478,-6750.91177 L-2760.68478,-6743.91177 C-2760.68478,-6741.70263 -2758.89392,-6739.91177 -2756.68478,-6739.91177 z"/>

<path d="M-2685.68478,-6914.91177 C-2683.47564,-6914.91177 -2681.68478,-6916.70263 -2681.68478,-6918.91177 L-2681.68478,-6925.91177 C-2681.68478,-6928.12091 -2683.47564,-6929.91177 -2685.68478,-6929.91177 L-2756.68478,-6929.91177 C-2758.89392,-6929.91177 -2760.68478,-6928.12091 -2760.68478,-6925.91177 L-2760.68478,-6918.91177 C-2760.68478,-6916.70263 -2758.89392,-6914.91177 -2756.68478,-6914.91177 z"/>

<path d="M-2682.68478,-6754.91177 C-2678.81879,-6754.91177 -2675.68478,-6758.04578 -2675.68478,-6761.91177 L-2675.68478,-6907.91177 C-2675.68478,-6911.77776 -2678.81879,-6914.91177 -2682.68478,-6914.91177 L-2765.68478,-6914.91177 -2765.68478,-6754.91177 z"/>

<line x1="-2740.68478" y1="-6754.91177" x2="-2740.68478" y2="-6914.91177"/>

<line x1="-2740.68478" y1="-6834.91177" x2="-2675.68478" y2="-6834.91177"/>
</g><g transform="translate(0,0.63674) scale(0.4994) translate(3909.18834,8439.09017)" stroke="#ffffff" stroke-width="0.60072" opacity="1" fill="none">
<path d="M-2568.38835,-7475.76543 C-2570.59749,-7475.76543 -2572.38835,-7473.97457 -2572.38835,-7471.76543 L-2572.38835,-7464.76543 C-2572.38835,-7462.5563 -2570.59749,-7460.76543 -2568.38835,-7460.76543 L-2497.38835,-7460.76543 C-2495.17921,-7460.76543 -2493.38835,-7462.5563 -2493.38835,-7464.76543 L-2493.38835,-7471.76543 C-2493.38835,-7473.97457 -2495.17921,-7475.76543 -2497.38835,-7475.76543 z" fill="#ffffff" stroke="none"/>

<path d="M-2568.38835,-7380.20696 C-2570.59749,-7380.20696 -2572.38835,-7378.4161 -2572.38835,-7376.20696 L-2572.38835,-7369.20696 C-2572.38835,-7366.99783 -2570.59749,-7365.20696 -2568.38835,-7365.20696 L-2497.38835,-7365.20696 C-2495.17921,-7365.20696 -2493.38835,-7366.99783 -2493.38835,-7369.20696 L-2493.38835,-7376.20696 C-2493.38835,-7378.4161 -2495.17921,-7380.20696 -2497.38835,-7380.20696 z" fill="#ffffff" stroke="none"/>

<path d="M-2571.38835,-7460.76543 C-2575.25434,-7460.76543 -2578.38835,-7457.63143 -2578.38835,-7453.76543 L-2578.38835,-7387.20696 C-2578.38835,-7383.34097 -2575.25434,-7380.20696 -2571.38835,-7380.20696 L-2488.38835,-7380.20696 -2488.38835,-7460.76543 z" fill="#ffffff" stroke="none"/>
</g><g transform="translate(0,0.63674) scale(0.4994) translate(3909.18834,8439.09017)" stroke="#000000" stroke-width="0.60072" opacity="1" fill="none">
<path d="M-2568.38835,-7475.76543 C-2570.59749,-7475.76543 -2572.38835,-7473.97457 -2572.38835,-7471.76543 L-2572.38835,-7464.76543 C-2572.38835,-7462.5563 -2570.59749,-7460.76543 -2568.38835,-7460.76543 L-2497.38835,-7460.76543 C-2495.17921,-7460.76543 -2493.38835,-7462.5563 -2493.38835,-7464.76543 L-2493.38835,-7471.76543 C-2493.38835,-7473.97457 -2495.17921,-7475.76543 -2497.38835,-7475.76543 z"/>

<path d="M-2568.38835,-7380.20696 C-2570.59749,-7380.20696 -2572.38835,-7378.4161 -2572.38835,-7376.20696 L-2572.38835,-7369.20696 C-2572.38835,-7366.99783 -2570.59749,-7365.20696 -2568.38835,-7365.20696 L-2497.38835,-7365.20696 C-2495.17921,-7365.20696 -2493.38835,-7366.99783 -2493.38835,-7369.20696 L-2493.38835,-7376.20696 C-2493.38835,-7378.4161 -2495.17921,-7380.20696 -2497.38835,-7380.20696 z"/>

<path d="M-2571.38835,-7460.76543 C-2575.25434,-7460.76543 -2578.38835,-7457.63143 -2578.38835,-7453.76543 L-2578.38835,-7387.20696 C-2578.38835,-7383.34097 -2575.25434,-7380.20696 -2571.38835,-7380.20696 L-2488.38835,-7380.20696 -2488.38835,-7460.76543 z"/>

<line x1="-2513.38835" y1="-7460.76543" x2="-2513.38835" y2="-7380.20696"/>
</g><g transform="translate(0,0.63674) scale(0.4994) translate(3909.18834,8439.09017)" stroke="#ffffff" stroke-width="0.60072" opacity="1" fill="none">
<path d="M-2583.38835,-7356.54671 C-2582.28378,-7358.45988 -2582.93928,-7360.90624 -2584.85245,-7362.01081 L-2590.91463,-7365.51081 C-2592.8278,-7366.61538 -2595.27416,-7365.95988 -2596.37873,-7364.04671 L-2631.87873,-7302.5589 C-2632.9833,-7300.64573 -2632.3278,-7298.19937 -2630.41463,-7297.0948 L-2624.35245,-7293.5948 C-2622.43928,-7292.49023 -2619.99292,-7293.14573 -2618.88835,-7295.0589 z" fill="#ffffff" stroke="none"/>

<path d="M-2666.62105,-7404.60113 C-2665.51648,-7406.5143 -2666.17198,-7408.96066 -2668.08515,-7410.06523 L-2674.14733,-7413.56523 C-2676.0605,-7414.6698 -2678.50686,-7414.0143 -2679.61143,-7412.10113 L-2715.11143,-7350.61333 C-2716.216,-7348.70016 -2715.5605,-7346.2538 -2713.64733,-7345.14923 L-2707.58515,-7341.64923 C-2705.67198,-7340.54466 -2703.22562,-7341.20016 -2702.12105,-7343.11333 z" fill="#ffffff" stroke="none"/>

<path d="M-2594.87873,-7366.64478 C-2592.94573,-7369.99283 -2594.09286,-7374.27396 -2597.44091,-7376.20696 L-2655.55887,-7409.76139 C-2658.90692,-7411.69438 -2663.18806,-7410.54726 -2665.12105,-7407.19921 L-2706.62105,-7335.3191 -2636.37873,-7294.76467 z" fill="#ffffff" stroke="none"/>
</g><g transform="translate(0,0.63674) scale(0.4994) translate(3909.18834,8439.09017)" stroke="#000000" stroke-width="0.60072" opacity="1" fill="none">
<path d="M-2583.38835,-7356.54671 C-2582.28378,-7358.45988 -2582.93928,-7360.90624 -2584.85245,-7362.01081 L-2590.91463,-7365.51081 C-2592.8278,-7366.61538 -2595.27416,-7365.95988 -2596.37873,-7364.04671 L-2631.87873,-7302.5589 C-2632.9833,-7300.64573 -2632.3278,-7298.19937 -2630.41463,-7297.0948 L-2624.35245,-7293.5948 C-2622.43928,-7292.49023 -2619.99292,-7293.14573 -2618.88835,-7295.0589 z"/>

<path d="M-2666.62105,-7404.60113 C-2665.51648,-7406.5143 -2666.17198,-7408.96066 -2668.08515,-7410.06523 L-2674.14733,-7413.56523 C-2676.0605,-7414.6698 -2678.50686,-7414.0143 -2679.61143,-7412.10113 L-2715.11143,-7350.61333 C-2716.216,-7348.70016 -2715.5605,-7346.2538 -2713.64733,-7345.14923 L-2707.58515,-7341.64923 C-2705.67198,-7340.54466 -2703.22562,-7341.20016 -2702.12105,-7343.11333 z"/>

<path d="M-2594.87873,-7366.64478 C-2592.94573,-7369.99283 -2594.09286,-7374.27396 -2597.44091,-7376.20696 L-2655.55887,-7409.76139 C-2658.90692,-7411.69438 -2663.18806,-7410.54726 -2665.12105,-7407.19921 L-2706.62105,-7335.3191 -2636.37873,-7294.76467 z"/>

<line x1="-2623.87873" y1="-7316.41531" x2="-2694.12105" y2="-7356.96973"/>
</g><g transform="translate(0,0.63674) scale(0.4994) translate(3909.18834,8439.09017)" stroke="#ffffff" stroke-width="0.60072" opacity="1" fill="none">
<path d="M-3064.1643,-8007.20696 C-3064.1643,-8004.99782 -3062.37344,-8003.20696 -3060.1643,-8003.20696 L-3053.1643,-8003.20696 C-3050.95516,-8003.20696 -3049.1643,-8004.99782 -3049.1643,-8007.20696 L-3049.1643,-8078.20696 C-3049.1643,-8080.4161 -3050.95516,-8082.20696 -3053.1643,-8082.20696 L-3060.1643,-8082.20696 C-3062.37344,-8082.20696 -3064.1643,-8080.4161 -3064.1643,-8078.20696 z" fill="#ffffff" stroke="none"/>

<path d="M-2889.1643,-8007.20696 C-2889.1643,-8004.99782 -2887.37344,-8003.20696 -2885.1643,-8003.20696 L-2878.1643,-8003.20696 C-2875.95516,-8003.20696 -2874.1643,-8004.99782 -2874.1643,-8007.20696 L-2874.1643,-8078.20696 C-2874.1643,-8080.4161 -2875.95516,-8082.20696 -2878.1643,-8082.20696 L-2885.1643,-8082.20696 C-2887.37344,-8082.20696 -2889.1643,-8080.4161 -2889.1643,-8078.20696 z" fill="#ffffff" stroke="none"/>

<path d="M-3049.1643,-8004.20696 C-3049.1643,-8000.34097 -3046.03029,-7997.20696 -3042.1643,-7997.20696 L-2896.1643,-7997.20696 C-2892.29831,-7997.20696 -2889.1643,-8000.34097 -2889.1643,-8004.20696 L-2889.1643,-8087.20696 -3049.1643,-8087.20696 z" fill="#ffffff" stroke="none"/>
</g><g transform="translate(0,0.63674) scale(0.4994) translate(3909.18834,8439.09017)" stroke="#000000" stroke-width="0.60072" opacity="1" fill="none">
<path d="M-3064.1643,-8007.20696 C-3064.1643,-8004.99782 -3062.37344,-8003.20696 -3060.1643,-8003.20696 L-3053.1643,-8003.20696 C-3050.95516,-8003.20696 -3049.1643,-8004.99782 -3049.1643,-8007.20696 L-3049.1643,-8078.20696 C-3049.1643,-8080.4161 -3050.95516,-8082.20696 -3053.1643,-8082.20696 L-3060.1643,-8082.20696 C-3062.37344,-8082.20696 -3064.1643,-8080.4161 -3064.1643,-8078.20696 z"/>

<path d="M-2889.1643,-8007.20696 C-2889.1643,-8004.99782 -2887.37344,-8003.20696 -2885.1643,-8003.20696 L-2878.1643,-8003.20696 C-2875.95516,-8003.20696 -2874.1643,-8004.99782 -2874.1643,-8007.20696 L-2874.1643,-8078.20696 C-2874.1643,-8080.4161 -2875.95516,-8082.20696 -2878.1643,-8082.20696 L-2885.1643,-8082.20696 C-2887.37344,-8082.20696 -2889.1643,-8080.4161 -2889.1643,-8078.20696 z"/>

<path d="M-3049.1643,-8004.20696 C-3049.1643,-8000.34097 -3046.03029,-7997.20696 -3042.1643,-7997.20696 L-2896.1643,-7997.20696 C-2892.29831,-7997.20696 -2889.1643,-8000.34097 -2889.1643,-8004.20696 L-2889.1643,-8087.20696 -3049.1643,-8087.20696 z"/>

<line x1="-3049.1643" y1="-8062.20696" x2="-2889.1643" y2="-8062.20696"/>

<line x1="-2969.1643" y1="-8062.20696" x2="-2969.1643" y2="-7997.20696"/>
</g><g transform="translate(0,0.63674) scale(0.4994) translate(3909.18834,8439.09017)" stroke="#ffffff" stroke-width="0.60072" opacity="1" fill="none">
<path d="M-2107.47676,-8358.34017 C-2107.47676,-8356.13103 -2105.6859,-8354.34017 -2103.47676,-8354.34017 L-2096.47676,-8354.34017 C-2094.26762,-8354.34017 -2092.47676,-8356.13103 -2092.47676,-8358.34017 L-2092.47676,-8429.34017 C-2092.47676,-8431.54931 -2094.26762,-8433.34017 -2096.47676,-8433.34017 L-2103.47676,-8433.34017 C-2105.6859,-8433.34017 -2107.47676,-8431.54931 -2107.47676,-8429.34017 z" fill="#ffffff" stroke="none"/>

<path d="M-1932.47676,-8358.34017 C-1932.47676,-8356.13103 -1930.6859,-8354.34017 -1928.47676,-8354.34017 L-1921.47676,-8354.34017 C-1919.26762,-8354.34017 -1917.47676,-8356.13103 -1917.47676,-8358.34017 L-1917.47676,-8429.34017 C-1917.47676,-8431.54931 -1919.26762,-8433.34017 -1921.47676,-8433.34017 L-1928.47676,-8433.34017 C-1930.6859,-8433.34017 -1932.47676,-8431.54931 -1932.47676,-8429.34017 z" fill="#ffffff" stroke="none"/>

<path d="M-2092.47676,-8355.34017 C-2092.47676,-8351.47418 -2089.34275,-8348.34017 -2085.47676,-8348.34017 L-1939.47676,-8348.34017 C-1935.61077,-8348.34017 -1932.47676,-8351.47418 -1932.47676,-8355.34017 L-1932.47676,-8438.34017 -2092.47676,-8438.34017 z" fill="#ffffff" stroke="none"/>
</g><g transform="translate(0,0.63674) scale(0.4994) translate(3909.18834,8439.09017)" stroke="#000000" stroke-width="0.60072" opacity="1" fill="none">
<path d="M-2107.47676,-8358.34017 C-2107.47676,-8356.13103 -2105.6859,-8354.34017 -2103.47676,-8354.34017 L-2096.47676,-8354.34017 C-2094.26762,-8354.34017 -2092.47676,-8356.13103 -2092.47676,-8358.34017 L-2092.47676,-8429.34017 C-2092.47676,-8431.54931 -2094.26762,-8433.34017 -2096.47676,-8433.34017 L-2103.47676,-8433.34017 C-2105.6859,-8433.34017 -2107.47676,-8431.54931 -2107.47676,-8429.34017 z"/>

<path d="M-1932.47676,-8358.34017 C-1932.47676,-8356.13103 -1930.6859,-8354.34017 -1928.47676,-8354.34017 L-1921.47676,-8354.34017 C-1919.26762,-8354.34017 -1917.47676,-8356.13103 -1917.47676,-8358.34017 L-1917.47676,-8429.34017 C-1917.47676,-8431.54931 -1919.26762,-8433.34017 -1921.47676,-8433.34017 L-1928.47676,-8433.34017 C-1930.6859,-8433.34017 -1932.47676,-8431.54931 -1932.47676,-8429.34017 z"/>

<path d="M-2092.47676,-8355.34017 C-2092.47676,-8351.47418 -2089.34275,-8348.34017 -2085.47676,-8348.34017 L-1939.47676,-8348.34017 C-1935.61077,-8348.34017 -1932.47676,-8351.47418 -1932.47676,-8355.34017 L-1932.47676,-8438.34017 -2092.47676,-8438.34017 z"/>

<line x1="-2092.47676" y1="-8413.34017" x2="-1932.47676" y2="-8413.34017"/>

<line x1="-2012.47676" y1="-8413.34017" x2="-2012.47676" y2="-8348.34017"/>
</g><g transform="translate(0,0.63674) scale(0.4994) translate(3909.18834,8439.09017)" stroke="#ffffff" stroke-width="0.60072" opacity="1" fill="none">
<path d="M-3369.10486,-7761.60494 L-3269.10486,-7761.60494 -3269.10486,-7831.60494 -3369.10486,-7831.60494 z" fill="#ffffff" stroke="none"/>
</g><g transform="translate(0,0.63674) scale(0.4994) translate(3909.18834,8439.09017)" stroke="#000000" stroke-width="0.60072" opacity="1" fill="none">
<path d="M-3369.10486,-7761.60494 L-3269.10486,-7761.60494 -3269.10486,-7831.60494 -3369.10486,-7831.60494 z"/>
</g><g transform="translate(0,0.63674) scale(0.4994) translate(3909.18834,8439.09017)" stroke="#ffffff" stroke-width="0.60072" opacity="1" fill="none">
<path d="M-3269.10486,-7761.60494 L-3169.10486,-7761.60494 -3169.10486,-7831.60494 -3269.10486,-7831.60494 z" fill="#ffffff" stroke="none"/>
</g><g transform="translate(0,0.63674) scale(0.4994) translate(3909.18834,8439.09017)" stroke="#000000" stroke-width="0.60072" opacity="1" fill="none">
<path d="M-3269.10486,-7761.60494 L-3169.10486,-7761.60494 -3169.10486,-7831.60494 -3269.10486,-7831.60494 z"/>
</g><g transform="translate(0,0.63674) scale(0.4994) translate(3909.18834,8439.09017)" stroke="#ffffff" stroke-width="0.60072" opacity="1" fill="none">
<path d="M-3169.10486,-7761.60494 L-3069.10486,-7761.60494 -3069.10486,-7831.60494 -3169.10486,-7831.60494 z" fill="#ffffff" stroke="none"/>
</g><g transform="translate(0,0.63674) scale(0.4994) translate(3909.18834,8439.09017)" stroke="#000000" stroke-width="0.60072" opacity="1" fill="none">
<path d="M-3169.10486,-7761.60494 L-3069.10486,-7761.60494 -3069.10486,-7831.60494 -3169.10486,-7831.60494 z"/>
</g><g transform="translate(0,0.63674) scale(0.4994) translate(3909.18834,8439.09017)" stroke="#ffffff" stroke-width="0.60072" opacity="1" fill="none">
<path d="M-3269.10486,-7377.20696 L-3169.10486,-7377.20696 -3169.10486,-7447.20696 -3269.10486,-7447.20696 z" fill="#ffffff" stroke="none"/>
</g><g transform="translate(0,0.63674) scale(0.4994) translate(3909.18834,8439.09017)" stroke="#000000" stroke-width="0.60072" opacity="1" fill="none">
<path d="M-3269.10486,-7377.20696 L-3169.10486,-7377.20696 -3169.10486,-7447.20696 -3269.10486,-7447.20696 z"/>
</g><g transform="translate(0,0.63674) scale(0.4994) translate(3909.18834,8439.09017)" stroke="#ffffff" stroke-width="0.60072" opacity="1" fill="none">
<path d="M-3169.10486,-7377.20696 L-3069.10486,-7377.20696 -3069.10486,-7447.20696 -3169.10486,-7447.20696 z" fill="#ffffff" stroke="none"/>
</g><g transform="translate(0,0.63674) scale(0.4994) translate(3909.18834,8439.09017)" stroke="#000000" stroke-width="0.60072" opacity="1" fill="none">
<path d="M-3169.10486,-7377.20696 L-3069.10486,-7377.20696 -3069.10486,-7447.20696 -3169.10486,-7447.20696 z"/>
</g><g transform="translate(0,0.63674) scale(0.4994) translate(3909.18834,8439.09017)" stroke="#ffffff" stroke-width="0.60072" opacity="1" fill="none">
<path d="M-3069.10486,-7377.20696 L-2969.10486,-7377.20696 -2969.10486,-7447.20696 -3069.10486,-7447.20696 z" fill="#ffffff" stroke="none"/>
</g><g transform="translate(0,0.63674) scale(0.4994) translate(3909.18834,8439.09017)" stroke="#000000" stroke-width="0.60072" opacity="1" fill="none">
<path d="M-3069.10486,-7377.20696 L-2969.10486,-7377.20696 -2969.10486,-7447.20696 -3069.10486,-7447.20696 z"/>
</g><g transform="translate(0,0.63674) scale(0.4994) translate(3909.18834,8439.09017)" stroke="#ffffff" stroke-width="0.60072" opacity="1" fill="none">
<path d="M-3369.10486,-7377.20696 L-3269.10486,-7377.20696 -3269.10486,-7447.20696 -3369.10486,-7447.20696 z" fill="#ffffff" stroke="none"/>
</g><g transform="translate(0,0.63674) scale(0.4994) translate(3909.18834,8439.09017)" stroke="#000000" stroke-width="0.60072" opacity="1" fill="none">
<path d="M-3369.10486,-7377.20696 L-3269.10486,-7377.20696 -3269.10486,-7447.20696 -3369.10486,-7447.20696 z"/>
</g><g transform="translate(0,0.63674) scale(0.4994) translate(3909.18834,8439.09017)" stroke="#ffffff" stroke-width="0.60072" opacity="1" fill="none">
<path d="M-2728.01518,-7586.01345 L-2628.01518,-7586.01345 -2628.01518,-7656.01345 -2728.01518,-7656.01345 z" fill="#ffffff" stroke="none"/>
</g><g transform="translate(0,0.63674) scale(0.4994) translate(3909.18834,8439.09017)" stroke="#000000" stroke-width="0.60072" opacity="1" fill="none">
<path d="M-2728.01518,-7586.01345 L-2628.01518,-7586.01345 -2628.01518,-7656.01345 -2728.01518,-7656.01345 z"/>
</g><g transform="translate(0,0.63674) scale(0.4994) translate(3909.18834,8439.09017)" stroke="#ffffff" stroke-width="0.60072" opacity="1" fill="none">
<path d="M-2628.01518,-7586.01345 L-2528.01518,-7586.01345 -2528.01518,-7656.01345 -2628.01518,-7656.01345 z" fill="#ffffff" stroke="none"/>
</g><g transform="translate(0,0.63674) scale(0.4994) translate(3909.18834,8439.09017)" stroke="#000000" stroke-width="0.60072" opacity="1" fill="none">
<path d="M-2628.01518,-7586.01345 L-2528.01518,-7586.01345 -2528.01518,-7656.01345 -2628.01518,-7656.01345 z"/>
</g><g transform="translate(0,0.63674) scale(0.4994) translate(3909.18834,8439.09017)" stroke="#ffffff" stroke-width="0.60072" opacity="1" fill="none">
<path d="M-2765.68478,-7002.38274 L-2665.68478,-7002.38274 -2665.68478,-7072.38274 -2765.68478,-7072.38274 z" fill="#ffffff" stroke="none"/>
</g><g transform="translate(0,0.63674) scale(0.4994) translate(3909.18834,8439.09017)" stroke="#000000" stroke-width="0.60072" opacity="1" fill="none">
<path d="M-2765.68478,-7002.38274 L-2665.68478,-7002.38274 -2665.68478,-7072.38274 -2765.68478,-7072.38274 z"/>
</g><g transform="translate(0,0.63674) scale(0.4994) translate(3909.18834,8439.09017)" stroke="#ffffff" stroke-width="0.60072" opacity="1" fill="none">
<path d="M-2665.68478,-7002.38274 L-2565.68478,-7002.38274 -2565.68478,-7072.38274 -2665.68478,-7072.38274 z" fill="#ffffff" stroke="none"/>
</g><g transform="translate(0,0.63674) scale(0.4994) translate(3909.18834,8439.09017)" stroke="#000000" stroke-width="0.60072" opacity="1" fill="none">
<path d="M-2665.68478,-7002.38274 L-2565.68478,-7002.38274 -2565.68478,-7072.38274 -2665.68478,-7072.38274 z"/>
</g><g transform="translate(0,0.63674) scale(0.4994) translate(3909.18834,8439.09017)" stroke="#ffffff" stroke-width="0.60072" opacity="1" fill="none">
<path d="M-2565.68478,-6371.52066 L-2565.68478,-6471.52066 -2635.68478,-6471.52066 -2635.68478,-6371.52066 z" fill="#ffffff" stroke="none"/>
</g><g transform="translate(0,0.63674) scale(0.4994) translate(3909.18834,8439.09017)" stroke="#000000" stroke-width="0.60072" opacity="1" fill="none">
<path d="M-2565.68478,-6371.52066 L-2565.68478,-6471.52066 -2635.68478,-6471.52066 -2635.68478,-6371.52066 z"/>
</g><g transform="translate(0,0.63674) scale(0.4994) translate(3909.18834,8439.09017)" stroke="#ffffff" stroke-width="0.60072" opacity="1" fill="none">
<path d="M-2565.68478,-6271.52066 L-2565.68478,-6371.52066 -2635.68478,-6371.52066 -2635.68478,-6271.52066 z" fill="#ffffff" stroke="none"/>
</g><g transform="translate(0,0.63674) scale(0.4994) translate(3909.18834,8439.09017)" stroke="#000000" stroke-width="0.60072" opacity="1" fill="none">
<path d="M-2565.68478,-6271.52066 L-2565.68478,-6371.52066 -2635.68478,-6371.52066 -2635.68478,-6271.52066 z"/>
</g><g transform="translate(0,0.63674) scale(0.4994) translate(3909.18834,8439.09017)" stroke="#ffffff" stroke-width="0.60072" opacity="1" fill="none">
<path d="M-2565.68478,-5835.20696 L-2565.68478,-5935.20696 -2635.68478,-5935.20696 -2635.68478,-5835.20696 z" fill="#ffffff" stroke="none"/>
</g><g transform="translate(0,0.63674) scale(0.4994) translate(3909.18834,8439.09017)" stroke="#000000" stroke-width="0.60072" opacity="1" fill="none">
<path d="M-2565.68478,-5835.20696 L-2565.68478,-5935.20696 -2635.68478,-5935.20696 -2635.68478,-5835.20696 z"/>
</g><g transform="translate(0,0.63674) scale(0.4994) translate(3909.18834,8439.09017)" stroke="#ffffff" stroke-width="0.60072" opacity="1" fill="none">
<path d="M-2565.68478,-5735.20696 L-2565.68478,-5835.20696 -2635.68478,-5835.20696 -2635.68478,-5735.20696 z" fill="#ffffff" stroke="none"/>
</g><g transform="translate(0,0.63674) scale(0.4994) translate(3909.18834,8439.09017)" stroke="#000000" stroke-width="0.60072" opacity="1" fill="none">
<path d="M-2565.68478,-5735.20696 L-2565.68478,-5835.20696 -2635.68478,-5835.20696 -2635.68478,-5735.20696 z"/>
</g><g transform="translate(0,0.63674) scale(0.4994) translate(3909.18834,8439.09017)" stroke="#ffffff" stroke-width="0.60072" opacity="1" fill="none">
<path d="M-2695.68478,-6123.69422 L-2695.68478,-6471.52066 -2765.68478,-6471.52066 -2765.68478,-6123.69422 z" fill="#ffffff" stroke="none"/>
</g><g transform="translate(0,0.63674) scale(0.4994) translate(3909.18834,8439.09017)" stroke="#000000" stroke-width="0.60072" opacity="1" fill="none">
<path d="M-2695.68478,-6123.69422 L-2695.68478,-6471.52066 -2765.68478,-6471.52066 -2765.68478,-6123.69422 z"/>
</g><g transform="translate(0,0.63674) scale(0.4994) translate(3909.18834,8439.09017)" stroke="#ffffff" stroke-width="0.60072" opacity="1" fill="none">
<path d="M-2695.68478,-5682.67122 L-2695.68478,-6039.20695 -2765.68478,-6039.20695 -2765.68478,-5682.67122 z" fill="#ffffff" stroke="none"/>
</g><g transform="translate(0,0.63674) scale(0.4994) translate(3909.18834,8439.09017)" stroke="#000000" stroke-width="0.60072" opacity="1" fill="none">
<path d="M-2695.68478,-5682.67122 L-2695.68478,-6039.20695 -2765.68478,-6039.20695 -2765.68478,-5682.67122 z"/>
</g><g transform="translate(0,0.63674) scale(0.4994) translate(3909.18834,8439.09017)" stroke="#ffffff" stroke-width="0.60072" opacity="1" fill="none">
<path d="M-2565.68478,-5633.96052 L-2565.68478,-5733.96052 -2635.68478,-5733.96052 -2635.68478,-5633.96052 z" fill="#ffffff" stroke="none"/>
</g><g transform="translate(0,0.63674) scale(0.4994) translate(3909.18834,8439.09017)" stroke="#000000" stroke-width="0.60072" opacity="1" fill="none">
<path d="M-2565.68478,-5633.96052 L-2565.68478,-5733.96052 -2635.68478,-5733.96052 -2635.68478,-5633.96052 z"/>
</g><g transform="translate(0,0.63674) scale(0.4994) translate(3909.18834,8439.09017)" stroke="#ffffff" stroke-width="0.60072" opacity="1" fill="none">
<path d="M-2908.66223,-5152.93813 L-2808.66223,-5152.93813 -2808.66223,-5222.93813 -2908.66223,-5222.93813 z" fill="#ffffff" stroke="none"/>
</g><g transform="translate(0,0.63674) scale(0.4994) translate(3909.18834,8439.09017)" stroke="#000000" stroke-width="0.60072" opacity="1" fill="none">
<path d="M-2908.66223,-5152.93813 L-2808.66223,-5152.93813 -2808.66223,-5222.93813 -2908.66223,-5222.93813 z"/>
</g><g transform="translate(0,0.63674) scale(0.4994) translate(3909.18834,8439.09017)" stroke="#ffffff" stroke-width="0.60072" opacity="1" fill="none">
<path d="M-2808.66223,-5152.93813 L-2708.66223,-5152.93813 -2708.66223,-5222.93813 -2808.66223,-5222.93813 z" fill="#ffffff" stroke="none"/>
</g><g transform="translate(0,0.63674) scale(0.4994) translate(3909.18834,8439.09017)" stroke="#000000" stroke-width="0.60072" opacity="1" fill="none">
<path d="M-2808.66223,-5152.93813 L-2708.66223,-5152.93813 -2708.66223,-5222.93813 -2808.66223,-5222.93813 z"/>
</g><g transform="translate(0,0.63674) scale(0.4994) translate(3909.18834,8439.09017)" stroke="#ffffff" stroke-width="0.60072" opacity="1" fill="none">
<path d="M-2708.66223,-5152.93813 L-2608.66223,-5152.93813 -2608.66223,-5222.93813 -2708.66223,-5222.93813 z" fill="#ffffff" stroke="none"/>
</g><g transform="translate(0,0.63674) scale(0.4994) translate(3909.18834,8439.09017)" stroke="#000000" stroke-width="0.60072" opacity="1" fill="none">
<path d="M-2708.66223,-5152.93813 L-2608.66223,-5152.93813 -2608.66223,-5222.93813 -2708.66223,-5222.93813 z"/>
</g><g transform="translate(0,0.63674) scale(0.4994) translate(3909.18834,8439.09017)" stroke="#ffffff" stroke-width="0.60072" opacity="1" fill="none">
<path d="M-2675.3605,-7450.11311 L-2588.75796,-7500.11311 -2590.35796,-7502.88439 -2599.01821,-7497.88439 -2604.01629,-7500.54131 -2668.10217,-7463.54131 -2668.30025,-7457.88439 -2676.9605,-7452.88439" fill="#ffffff" stroke="none"/>
</g><g transform="translate(0,0.63674) scale(0.4994) translate(3909.18834,8439.09017)" stroke="#000000" stroke-width="0.60072" opacity="1" fill="none">
<path d="M-2675.3605,-7450.11311 L-2588.75796,-7500.11311 -2590.35796,-7502.88439 -2599.01821,-7497.88439 -2604.01629,-7500.54131 -2668.10217,-7463.54131 -2668.30025,-7457.88439 -2676.9605,-7452.88439 z"/>

<path d="M-2599.01821,-7497.88439 L-2668.30025,-7457.88439"/>
</g><g transform="translate(0,0.63674) scale(0.4994) translate(3909.18834,8439.09017)" stroke="#ffffff" stroke-width="0.60072" opacity="1" fill="none">
<path d="M-2382.9031,-6251.20696 L-2382.9031,-6171.20696 -2107.56298,-6171.20696 -2107.56298,-6251.20696 z" fill="#ffffff" stroke="none"/>
</g><g transform="translate(0,0.63674) scale(0.4994) translate(3909.18834,8439.09017)" stroke="#000000" stroke-width="0.60072" opacity="1" fill="none">
<path d="M-2382.9031,-6251.20696 L-2382.9031,-6171.20696 -2107.56298,-6171.20696 -2107.56298,-6251.20696 z"/>

<path d="M-2382.9031,-6247.20696 L-2107.56298,-6247.20696"/>

<path d="M-2382.9031,-6175.20696 L-2107.56298,-6175.20696"/>

<line x1="-2382.9031" y1="-6211.20696" x2="-2107.56298" y2="-6211.20696"/>

<line x1="-2122.56298" y1="-6221.20696" x2="-2107.56298" y2="-6211.20696"/>

<line x1="-2122.56298" y1="-6201.20696" x2="-2107.56298" y2="-6211.20696"/>
</g><g transform="translate(0,0.63674) scale(0.4994) translate(3909.18834,8439.09017)" stroke="#ffffff" stroke-width="0.60072" opacity="1" fill="none">
<path d="M-2382.9031,-6027.20696 L-2382.9031,-5947.20696 -2107.56298,-5947.20696 -2107.56298,-6027.20696 z" fill="#ffffff" stroke="none"/>
</g><g transform="translate(0,0.63674) scale(0.4994) translate(3909.18834,8439.09017)" stroke="#000000" stroke-width="0.60072" opacity="1" fill="none">
<path d="M-2382.9031,-6027.20696 L-2382.9031,-5947.20696 -2107.56298,-5947.20696 -2107.56298,-6027.20696 z"/>

<path d="M-2382.9031,-6023.20696 L-2107.56298,-6023.20696"/>

<path d="M-2382.9031,-5951.20696 L-2107.56298,-5951.20696"/>

<line x1="-2382.9031" y1="-5987.20696" x2="-2107.56298" y2="-5987.20696"/>

<line x1="-2122.56298" y1="-5997.20696" x2="-2107.56298" y2="-5987.20696"/>

<line x1="-2122.56298" y1="-5977.20696" x2="-2107.56298" y2="-5987.20696"/>

<path d="M-3066.68478,-5438.81219 L-3066.68478,-5343.50964"/>

<path d="M-3076.68478,-5343.50964 L-3076.68478,-5348.50964 -3066.68478,-5348.50964"/>

<path d="M-3076.68478,-5438.81219 L-3076.68478,-5433.81219 -3066.68478,-5433.81219 -2981.38223,-5433.81219 C-2981.38223,-5386.70089 -3019.57348,-5348.50964 -3066.68478,-5348.50964"/>

<line x1="-3066.68478" y1="-5428.81219" x2="-2981.52889" y2="-5428.81219"/>

<path d="M-3066.68478,-5039.56049 L-3066.68478,-4938.31512"/>

<path d="M-3076.68478,-4938.31512 L-3076.68478,-4943.31512 -3066.68478,-4943.31512"/>

<path d="M-3076.68478,-5039.56049 L-3076.68478,-5034.56049 -3066.68478,-5034.56049 -2975.43941,-5034.56049 C-2975.43941,-4984.16706 -3016.29135,-4943.31512 -3066.68478,-4943.31512"/>

<line x1="-3066.68478" y1="-5029.56049" x2="-2975.57651" y2="-5029.56049"/>

<path d="M-2549.43007,-4929.20696 L-2554.43007,-4929.20696 -2554.43007,-4830.5607 C-2606.14947,-4830.5607 -2648.07632,-4870.24899 -2648.07632,-4919.20696 -2648.07632,-4870.24899 -2690.00318,-4830.5607 -2741.72258,-4830.5607 L-2741.72258,-4929.20696 -2746.72258,-4929.20696"/>

<line x1="-2549.43007" y1="-4919.20696" x2="-2746.72258" y2="-4919.20696"/>

<line x1="-2559.43007" y1="-4919.20696" x2="-2559.43007" y2="-4830.70183"/>

<line x1="-2736.72258" y1="-4919.20696" x2="-2736.72258" y2="-4830.70183"/>

<path d="M-2767.97465,-6685.0675 L-2767.97465,-6583.82213"/>

<path d="M-2777.97465,-6583.82213 L-2777.97465,-6588.82213 -2767.97465,-6588.82213"/>

<path d="M-2777.97465,-6685.0675 L-2777.97465,-6680.0675 -2767.97465,-6680.0675 -2676.72928,-6680.0675 C-2676.72928,-6629.67407 -2717.58122,-6588.82213 -2767.97465,-6588.82213"/>

<line x1="-2767.97465" y1="-6675.0675" x2="-2676.86638" y2="-6675.0675"/>

<path d="M-2767.97465,-5656.2104 L-2767.97465,-5554.96503"/>

<path d="M-2777.97465,-5554.96503 L-2777.97465,-5559.96503 -2767.97465,-5559.96503"/>

<path d="M-2777.97465,-5656.2104 L-2777.97465,-5651.2104 -2767.97465,-5651.2104 -2676.72928,-5651.2104 C-2676.72928,-5600.81697 -2717.58122,-5559.96503 -2767.97465,-5559.96503"/>

<line x1="-2767.97465" y1="-5646.2104" x2="-2676.86638" y2="-5646.2104"/>

<path d="M-2384.47738,-7797.70828 L-2384.47738,-7699.68975"/>

<path d="M-2394.47738,-7699.68975 L-2394.47738,-7704.68975 -2384.47738,-7704.68975"/>

<path d="M-2394.47738,-7797.70828 L-2394.47738,-7792.70828 -2384.47738,-7792.70828 -2296.45885,-7792.70828 C-2296.45885,-7744.09699 -2335.86609,-7704.68975 -2384.47738,-7704.68975"/>

<line x1="-2384.47738" y1="-7787.70828" x2="-2296.60098" y2="-7787.70828"/>

<path d="M-2766.68478,-7279.61891 L-2766.68478,-7178.37354"/>

<path d="M-2776.68478,-7178.37354 L-2776.68478,-7183.37354 -2766.68478,-7183.37354"/>

<path d="M-2776.68478,-7279.61891 L-2776.68478,-7274.61891 -2766.68478,-7274.61891 -2675.43941,-7274.61891 C-2675.43941,-7224.22548 -2716.29135,-7183.37354 -2766.68478,-7183.37354"/>

<line x1="-2766.68478" y1="-7269.61891" x2="-2675.57651" y2="-7269.61891"/>

<path d="M-2236.5847,-6841.17128 L-2236.5847,-6938.78173"/>

<path d="M-2246.5847,-6938.78173 L-2246.5847,-6933.78173 -2236.5847,-6933.78173"/>

<path d="M-2246.5847,-6841.17128 L-2246.5847,-6846.17128 -2236.5847,-6846.17128 -2148.97425,-6846.17128 C-2148.97425,-6894.5572 -2188.19878,-6933.78173 -2236.5847,-6933.78173"/>

<line x1="-2236.5847" y1="-6851.17128" x2="-2149.11704" y2="-6851.17128"/>

<path d="M-2368.77713,-6968.15938 L-2272.49119,-6968.15938"/>

<path d="M-2272.49119,-6958.15938 L-2277.49119,-6958.15938 -2277.49119,-6968.15938"/>

<path d="M-2368.77713,-6958.15938 L-2363.77713,-6958.15938 -2363.77713,-6968.15938 -2363.77713,-7054.44532 C-2316.12272,-7054.44532 -2277.49119,-7015.81379 -2277.49119,-6968.15938"/>

<line x1="-2358.77713" y1="-6968.15938" x2="-2358.77713" y2="-7054.30033"/>

<path d="M-2394.47676,-5623.4 L-2394.47676,-5628.4 -2344.47686,-5628.4 C-2344.47686,-5653.25276 -2362.38543,-5673.3999 -2384.47676,-5673.3999 -2362.38543,-5673.3999 -2344.47686,-5693.54704 -2344.47686,-5718.3998 L-2394.47676,-5718.3998 -2394.47676,-5723.3998"/>

<line x1="-2384.47676" y1="-5623.4" x2="-2384.47676" y2="-5723.3998"/>

<line x1="-2384.47676" y1="-5633.4" x2="-2344.79059" y2="-5633.4"/>

<line x1="-2384.47676" y1="-5713.3998" x2="-2344.79059" y2="-5713.3998"/>

<path d="M-2214.98892,-6647.99827 L-2214.98892,-6652.99827 -2153.30402,-6652.99827 C-2153.30402,-6684.30448 -2176.44414,-6709.68317 -2204.98892,-6709.68317 -2176.44414,-6709.68317 -2153.30402,-6735.06186 -2153.30402,-6766.36807 L-2214.98892,-6766.36807 -2214.98892,-6771.36807"/>

<line x1="-2204.98892" y1="-6647.99827" x2="-2204.98892" y2="-6771.36807"/>

<line x1="-2204.98892" y1="-6657.99827" x2="-2153.54644" y2="-6657.99827"/>

<line x1="-2204.98892" y1="-6761.36807" x2="-2153.54644" y2="-6761.36807"/>

<path d="M-2096.47676,-5275.35343 L-2096.47676,-5373.37196"/>

<path d="M-2106.47676,-5373.37196 L-2106.47676,-5368.37196 -2096.47676,-5368.37196"/>

<path d="M-2106.47676,-5275.35343 L-2106.47676,-5280.35343 -2096.47676,-5280.35343 -2008.45823,-5280.35343 C-2008.45823,-5328.96472 -2047.86547,-5368.37196 -2096.47676,-5368.37196"/>

<line x1="-2096.47676" y1="-5285.35343" x2="-2008.60036" y2="-5285.35343"/>

<path d="M-2213.98892,-5570.08701 L-2213.98892,-5565.08701 -2152.30402,-5565.08701 C-2152.30402,-5533.7808 -2175.44414,-5508.40211 -2203.98892,-5508.40211 -2175.44414,-5508.40211 -2152.30402,-5483.02342 -2152.30402,-5451.71721 L-2213.98892,-5451.71721 -2213.98892,-5446.71721"/>

<line x1="-2203.98892" y1="-5570.08701" x2="-2203.98892" y2="-5446.71721"/>

<line x1="-2203.98892" y1="-5560.08701" x2="-2152.54644" y2="-5560.08701"/>

<line x1="-2203.98892" y1="-5456.71721" x2="-2152.54644" y2="-5456.71721"/>
</g><g transform="translate(0,0.63674) scale(0.4994) translate(3909.18834,8439.09017)" stroke="#ffffff" stroke-width="0.60072" opacity="1" fill="none">
<path d="M-1897.32406,-5721.96052 L-2037.32406,-5721.96052 -2037.32406,-5421.96052 -1897.32406,-5421.96052 z" fill="#ffffff" stroke="none"/>
</g><g transform="translate(0,0.63674) scale(0.4994) translate(3909.18834,8439.09017)" stroke="#000000" stroke-width="0.60072" opacity="1" fill="none">
<path d="M-1897.32406,-5721.96052 L-2037.32406,-5721.96052 -2037.32406,-5421.96052 -1897.32406,-5421.96052 z"/>

<path d="M-1901.32406,-5721.96052 L-1901.32406,-5421.96052"/>

<path d="M-2033.32406,-5721.96052 L-2033.32406,-5421.96052"/>

<line x1="-1897.32406" y1="-5446.96052" x2="-2037.32406" y2="-5446.96052"/>

<line x1="-1897.32406" y1="-5471.96052" x2="-2037.32406" y2="-5471.96052"/>

<line x1="-1897.32406" y1="-5496.96052" x2="-2037.32406" y2="-5496.96052"/>

<line x1="-1897.32406" y1="-5521.96052" x2="-2037.32406" y2="-5521.96052"/>

<line x1="-1897.32406" y1="-5546.96052" x2="-2037.32406" y2="-5546.96052"/>

<line x1="-1897.32406" y1="-5571.96052" x2="-2037.32406" y2="-5571.96052"/>

<line x1="-1897.32406" y1="-5596.96052" x2="-2037.32406" y2="-5596.96052"/>

<line x1="-1897.32406" y1="-5621.96052" x2="-2037.32406" y2="-5621.96052"/>

<line x1="-1897.32406" y1="-5646.96052" x2="-2037.32406" y2="-5646.96052"/>

<line x1="-1897.32406" y1="-5671.96052" x2="-2037.32406" y2="-5671.96052"/>

<line x1="-1897.32406" y1="-5696.96052" x2="-2037.32406" y2="-5696.96052"/>

<line x1="-1967.32406" y1="-5721.96052" x2="-1967.32406" y2="-5421.96052"/>

<line x1="-1957.32406" y1="-5436.96052" x2="-1967.32406" y2="-5421.96052"/>

<line x1="-1977.32406" y1="-5436.96052" x2="-1967.32406" y2="-5421.96052"/>
</g><g transform="translate(0,0.63674) scale(0.4994) translate(3909.18834,8439.09017)" stroke="#ffffff" stroke-width="0.60072" opacity="1" fill="none">
<path d="M-1775.20011,-6645.20696 L-1915.20011,-6645.20696 -1915.20011,-6343.36174 -1775.20011,-6343.36174 z" fill="#ffffff" stroke="none"/>
</g><g transform="translate(0,0.63674) scale(0.4994) translate(3909.18834,8439.09017)" stroke="#000000" stroke-width="0.60072" opacity="1" fill="none">
<path d="M-1775.20011,-6645.20696 L-1915.20011,-6645.20696 -1915.20011,-6343.36174 -1775.20011,-6343.36174 z"/>

<path d="M-1779.20011,-6645.20696 L-1779.20011,-6343.36174"/>

<path d="M-1911.20011,-6645.20696 L-1911.20011,-6343.36174"/>

<line x1="-1775.20011" y1="-6368.51551" x2="-1915.20011" y2="-6368.51551"/>

<line x1="-1775.20011" y1="-6393.66928" x2="-1915.20011" y2="-6393.66928"/>

<line x1="-1775.20011" y1="-6418.82304" x2="-1915.20011" y2="-6418.82304"/>

<line x1="-1775.20011" y1="-6443.97681" x2="-1915.20011" y2="-6443.97681"/>

<line x1="-1775.20011" y1="-6469.13058" x2="-1915.20011" y2="-6469.13058"/>

<line x1="-1775.20011" y1="-6494.28435" x2="-1915.20011" y2="-6494.28435"/>

<line x1="-1775.20011" y1="-6519.43812" x2="-1915.20011" y2="-6519.43812"/>

<line x1="-1775.20011" y1="-6544.59189" x2="-1915.20011" y2="-6544.59189"/>

<line x1="-1775.20011" y1="-6569.74566" x2="-1915.20011" y2="-6569.74566"/>

<line x1="-1775.20011" y1="-6594.89942" x2="-1915.20011" y2="-6594.89942"/>

<line x1="-1775.20011" y1="-6620.05319" x2="-1915.20011" y2="-6620.05319"/>

<line x1="-1845.20011" y1="-6645.20696" x2="-1845.20011" y2="-6343.36174"/>

<line x1="-1835.20011" y1="-6358.36174" x2="-1845.20011" y2="-6343.36174"/>

<line x1="-1855.20011" y1="-6358.36174" x2="-1845.20011" y2="-6343.36174"/>
</g><g transform="translate(0,0.63674) scale(0.4994) translate(3909.18834,8439.09017)" stroke="#ffffff" stroke-width="0.60072" opacity="1" fill="none">
<path d="M-2074.95282,-6345.20696 L-1934.95282,-6345.20696 -1934.95282,-6645.20696 -2074.95282,-6645.20696 z" fill="#ffffff" stroke="none"/>
</g><g transform="translate(0,0.63674) scale(0.4994) translate(3909.18834,8439.09017)" stroke="#000000" stroke-width="0.60072" opacity="1" fill="none">
<path d="M-2074.95282,-6345.20696 L-1934.95282,-6345.20696 -1934.95282,-6645.20696 -2074.95282,-6645.20696 z"/>

<path d="M-2070.95282,-6345.20696 L-2070.95282,-6645.20696"/>

<path d="M-1938.95282,-6345.20696 L-1938.95282,-6645.20696"/>

<line x1="-2074.95282" y1="-6620.20696" x2="-1934.95282" y2="-6620.20696"/>

<line x1="-2074.95282" y1="-6595.20696" x2="-1934.95282" y2="-6595.20696"/>

<line x1="-2074.95282" y1="-6570.20696" x2="-1934.95282" y2="-6570.20696"/>

<line x1="-2074.95282" y1="-6545.20696" x2="-1934.95282" y2="-6545.20696"/>

<line x1="-2074.95282" y1="-6520.20696" x2="-1934.95282" y2="-6520.20696"/>

<line x1="-2074.95282" y1="-6495.20696" x2="-1934.95282" y2="-6495.20696"/>

<line x1="-2074.95282" y1="-6470.20696" x2="-1934.95282" y2="-6470.20696"/>

<line x1="-2074.95282" y1="-6445.20696" x2="-1934.95282" y2="-6445.20696"/>

<line x1="-2074.95282" y1="-6420.20696" x2="-1934.95282" y2="-6420.20696"/>

<line x1="-2074.95282" y1="-6395.20696" x2="-1934.95282" y2="-6395.20696"/>

<line x1="-2074.95282" y1="-6370.20696" x2="-1934.95282" y2="-6370.20696"/>

<line x1="-2004.95282" y1="-6345.20696" x2="-2004.95282" y2="-6645.20696"/>

<line x1="-2014.95282" y1="-6630.20696" x2="-2004.95282" y2="-6645.20696"/>

<line x1="-1994.95282" y1="-6630.20696" x2="-2004.95282" y2="-6645.20696"/>
</g><g transform="translate(0,0.63674) scale(0.4994) translate(3909.18834,8439.09017)" stroke="#ffffff" stroke-width="0.60072" opacity="1" fill="none">
<path d="M-1897.32406,-5421.96052 L-1757.32406,-5421.96052 -1757.32406,-5721.96052 -1897.32406,-5721.96052 z" fill="#ffffff" stroke="none"/>
</g><g transform="translate(0,0.63674) scale(0.4994) translate(3909.18834,8439.09017)" stroke="#000000" stroke-width="0.60072" opacity="1" fill="none">
<path d="M-1897.32406,-5421.96052 L-1757.32406,-5421.96052 -1757.32406,-5721.96052 -1897.32406,-5721.96052 z"/>

<path d="M-1893.32406,-5421.96052 L-1893.32406,-5721.96052"/>

<path d="M-1761.32406,-5421.96052 L-1761.32406,-5721.96052"/>

<line x1="-1897.32406" y1="-5696.96052" x2="-1757.32406" y2="-5696.96052"/>

<line x1="-1897.32406" y1="-5671.96052" x2="-1757.32406" y2="-5671.96052"/>

<line x1="-1897.32406" y1="-5646.96052" x2="-1757.32406" y2="-5646.96052"/>

<line x1="-1897.32406" y1="-5621.96052" x2="-1757.32406" y2="-5621.96052"/>

<line x1="-1897.32406" y1="-5596.96052" x2="-1757.32406" y2="-5596.96052"/>

<line x1="-1897.32406" y1="-5571.96052" x2="-1757.32406" y2="-5571.96052"/>

<line x1="-1897.32406" y1="-5546.96052" x2="-1757.32406" y2="-5546.96052"/>

<line x1="-1897.32406" y1="-5521.96052" x2="-1757.32406" y2="-5521.96052"/>

<line x1="-1897.32406" y1="-5496.96052" x2="-1757.32406" y2="-5496.96052"/>

<line x1="-1897.32406" y1="-5471.96052" x2="-1757.32406" y2="-5471.96052"/>

<line x1="-1897.32406" y1="-5446.96052" x2="-1757.32406" y2="-5446.96052"/>

<line x1="-1827.32406" y1="-5421.96052" x2="-1827.32406" y2="-5721.96052"/>

<line x1="-1837.32406" y1="-5706.96052" x2="-1827.32406" y2="-5721.96052"/>

<line x1="-1817.32406" y1="-5706.96052" x2="-1827.32406" y2="-5721.96052"/>
</g><g transform="translate(0,0.63674) scale(0.4994) translate(3909.18834,8439.09017)" stroke="#ffffff" stroke-width="0.60072" opacity="1" fill="none">
<path d="M-2243.98892,-5465.7121 L-2243.98892,-5542.56891 -2213.98892,-5542.56891 -2213.98892,-5465.7121 -2242.48892,-5465.7121 -2242.48892,-5467.2121 -2215.48892,-5467.2121 -2215.48892,-5541.06891 -2242.48892,-5541.06891 -2242.48892,-5465.7121 z" fill="#ffffff" stroke="none"/>
</g><g transform="translate(0,0.63674) scale(0.4994) translate(3909.18834,8439.09017)" stroke="#138f49" stroke-width="0.60072" opacity="1" fill="none">
<path d="M-2242.48892,-5467.2121 L-2242.48892,-5541.06891 -2215.48892,-5541.06891 -2215.48892,-5467.2121 z" fill="#138f49" stroke="none"/>
</g><g transform="translate(0,0.63674) scale(0.4994) translate(3909.18834,8439.09017)" stroke="#ffffff" stroke-width="0.60072" opacity="1" fill="none">
<path d="M-2239.48892,-5487.05205 L-2225.81792,-5487.05205 -2225.81792,-5485.70163 -2222.94092,-5484.04351 -2222.94092,-5487.05205 -2220.37892,-5487.05205 -2218.48892,-5484.88112 -2218.48892,-5494.98367 -2219.91692,-5496.24863 -2219.91692,-5498.18025 -2218.48892,-5496.71016 -2218.48892,-5499.13751 -2220.42092,-5501.13751 -2239.48892,-5501.13751 z" fill="#ffffff" stroke="none"/>
</g><g transform="translate(0,0.63674) scale(0.4994) translate(3909.18834,8439.09017)" stroke="#138f49" stroke-width="0.60072" opacity="1" fill="none">
<path d="M-2234.78492,-5496.09478 L-2234.78492,-5489.92385 -2231.36192,-5487.88966 -2230.64792,-5489.05205 -2233.44092,-5490.72726 -2233.44092,-5493.37683 -2229.66092,-5491.37684 -2225.25092,-5490.55632 -2225.25092,-5486.09479 -2223.54992,-5485.06915 -2223.54992,-5491.99222 -2228.33792,-5492.96658 -2220.46292,-5496.81273 -2220.46292,-5498.74435 -2229.13592,-5494.55632 -2232.34892,-5496.38538 -2230.18592,-5498.43666 -2230.18592,-5501.13751 -2231.57192,-5501.13751 -2231.57192,-5499.01785 z" fill="#138f49" stroke="none"/>

<ellipse cx="-2236.73804" cy="-5496.31689" rx="1.638" ry="1.638" fill="#138f49"/>
</g><g transform="translate(0,0.63674) scale(0.4994) translate(3909.18834,8439.09017)" stroke="#ffffff" stroke-width="0.60072" opacity="1" fill="none">
<path d="M-2220.58897,-5512.40646 L-2220.58892,-5524.23751 -2232.41997,-5524.23746 -2237.38892,-5519.26851 -2228.94916,-5519.18995 -2237.17599,-5510.96313 -2233.8633,-5507.65044 -2225.63648,-5515.87727 -2225.55792,-5507.43751 z" fill="#ffffff" stroke="none"/>
</g><g transform="translate(0,0.63674) scale(0.4994) translate(733.45796,2505.93942) rotate(-90) translate(0,75)" stroke="#000000" stroke-width="0.60072" opacity="1" fill="none">
<text y="-30" font-size="150" stroke="none" fill="#0063b5" text-anchor="middle">Gyan Zone</text>
</g><g transform="translate(0,0.63674) scale(0.4994) translate(507.75,3126.59435) rotate(-180) translate(0,52.5)" stroke="#000000" stroke-width="0.60072" opacity="1" fill="none">
<text y="-7" font-size="35" stroke="none" fill="#8800cc" text-anchor="middle">(Atal Innovation studio and accelerator)</text>

<text y="-42" font-size="35" stroke="none" fill="#8800cc" text-anchor="middle">Office incharge </text>

<text y="-77" font-size="35" stroke="none" fill="#8800cc" text-anchor="middle">Hariom Soni (Programmer) </text>
</g><g transform="translate(0,0.63674) scale(0.4994) translate(560.95796,3390.37903) rotate(180) translate(0,61.5)" stroke="#000000" stroke-width="0.60072" opacity="1" fill="none">
<text y="-8" font-size="41" stroke="none" fill="#8800cc" text-anchor="middle">Saloni</text>

<text y="-49" font-size="41" stroke="none" fill="#8800cc" text-anchor="middle">Shubham Gupta </text>

<text y="-90" font-size="41" stroke="none" fill="#8800cc" text-anchor="middle">Mentor </text>
</g><g transform="translate(0,0.63674) scale(0.4994) translate(724.95796,1457.82212) rotate(180) translate(0,56)" stroke="#000000" stroke-width="0.60072" opacity="1" fill="none">
<text y="-11" font-size="56" stroke="none" fill="#8800cc" text-anchor="middle">and accelerator</text>

<text y="-67" font-size="56" stroke="none" fill="#8800cc" text-anchor="middle">Atal Innovation studio </text>
</g><g transform="translate(0,0.63674) scale(0.4994) translate(878.03804,4021.35393)" stroke="#000000" stroke-width="0.60072" opacity="1" fill="none">
<text y="-30" font-size="150" stroke="none" fill="#8800cc" text-anchor="middle">Tinkering Lab</text>
</g><g transform="translate(0,0.63674) scale(0.4994) translate(1811.79516,658.07231)" stroke="#000000" stroke-width="0.60072" opacity="1" fill="none">
<text y="-12" font-size="63" stroke="none" fill="#8800cc" text-anchor="middle">bth Chair 4</text>
</g><g transform="translate(0,0.63674) scale(0.4994) translate(1821.82597,1253.2644)" stroke="#000000" stroke-width="0.60072" opacity="1" fill="none">
<text y="-12" font-size="63" stroke="none" fill="#8800cc" text-anchor="middle">Facility</text>

<text y="-75" font-size="63" stroke="none" fill="#8800cc" text-anchor="middle">Male </text>
</g><g transform="translate(0,0.63674) scale(0.4994) translate(1881.48432,1577.61118)" stroke="#000000" stroke-width="0.60072" opacity="1" fill="none">
<text y="-6" font-size="33" stroke="none" fill="#8800cc" text-anchor="middle">facility</text>

<text y="-39" font-size="33" stroke="none" fill="#8800cc" text-anchor="middle">Female </text>
</g><g transform="translate(0,0.63674) scale(0.4994) translate(1881.48432,1735.40207)" stroke="#000000" stroke-width="0.60072" opacity="1" fill="none">
<text y="-6" font-size="33" stroke="none" fill="#8800cc" text-anchor="middle">Way to stairs</text>
</g><g transform="translate(0,0.63674) scale(0.4994) translate(1491.11477,2767.41745) rotate(90) translate(0,6.5)" stroke="#000000" stroke-width="0.60072" opacity="1" fill="none">
<text y="-2" font-size="13" stroke="none" fill="#8800cc" text-anchor="middle">Fire hose door</text>
</g><g transform="translate(0,0.63674) scale(0.4994) translate(1641.79305,2930.62324) rotate(90) translate(0,10.5)" stroke="#000000" stroke-width="0.60072" opacity="1" fill="none">
<text y="-4" font-size="21" stroke="none" fill="#8800cc" text-anchor="middle">Fire Exit</text>
</g><g transform="translate(0,0.63674) scale(0.4994) translate(1556.41338,3137.879) rotate(90) translate(0,21)" stroke="#000000" stroke-width="0.60072" opacity="1" fill="none">
<text y="-4" font-size="21" stroke="none" fill="#8800cc" text-anchor="middle">Cooler</text>

<text y="-25" font-size="21" stroke="none" fill="#8800cc" text-anchor="middle">Water </text>
</g><g transform="translate(0,0.63674) scale(0.4994) translate(1986.70714,3123.69248)" stroke="#000000" stroke-width="0.60072" opacity="1" fill="none">
<text y="-3" font-size="19" stroke="none" fill="#8800cc" text-anchor="middle">Accessible washroom</text>
</g><g transform="translate(0,0.63674) scale(0.4994) translate(1661.53426,2245.736)" stroke="#000000" stroke-width="0.60072" opacity="1" fill="none">
<text y="-6" font-size="33" stroke="none" fill="#8800cc" text-anchor="middle">Lift 1</text>
</g><g transform="translate(0,0.63674) scale(0.4994) translate(1661.53426,2471.62193)" stroke="#000000" stroke-width="0.60072" opacity="1" fill="none">
<text y="-6" font-size="33" stroke="none" fill="#8800cc" text-anchor="middle">Lift 2</text>
</g><g transform="translate(0,0.63674) scale(0.4994) translate(3909.18834,8439.09017)" stroke="#006600" stroke-width="1.80217" opacity="1" fill="none">
<line x1="-3750.5256" y1="-8140.147" x2="-1723.9448" y2="-8140.147"/>
</g><g transform="translate(0,0.63674) scale(0.4994) translate(3909.18834,8439.09017)" stroke="#ffffff" stroke-width="0.60072" opacity="1" fill="none">
<line x1="-3750.5256" y1="-8140.147" x2="-1723.9448" y2="-8140.147"/>
</g><g transform="translate(0,0.63674) scale(0.4994) translate(3909.18834,8439.09017)" stroke="#006600" stroke-width="1.80217" opacity="1" fill="none">
<line x1="-3744.0256" y1="-8114.147" x2="-3744.0256" y2="-8146.647"/>
</g><g transform="translate(0,0.63674) scale(0.4994) translate(3909.18834,8439.09017)" stroke="#ffffff" stroke-width="0.60072" opacity="1" fill="none">
<line x1="-3744.0256" y1="-8114.147" x2="-3744.0256" y2="-8146.647"/>
</g><g transform="translate(0,0.63674) scale(0.4994) translate(3909.18834,8439.09017)" stroke="#006600" stroke-width="1.80217" opacity="1" fill="none">
<line x1="-3747.2756" y1="-8143.397" x2="-3740.7756" y2="-8136.897"/>
</g><g transform="translate(0,0.63674) scale(0.4994) translate(3909.18834,8439.09017)" stroke="#ffffff" stroke-width="0.60072" opacity="1" fill="none">
<line x1="-3747.2756" y1="-8143.397" x2="-3740.7756" y2="-8136.897"/>
</g><g transform="translate(0,0.63674) scale(0.4994) translate(3909.18834,8439.09017)" stroke="#006600" stroke-width="1.80217" opacity="1" fill="none">
<line x1="-3728.78559" y1="-8114.147" x2="-3728.78559" y2="-8146.647"/>
</g><g transform="translate(0,0.63674) scale(0.4994) translate(3909.18834,8439.09017)" stroke="#ffffff" stroke-width="0.60072" opacity="1" fill="none">
<line x1="-3728.78559" y1="-8114.147" x2="-3728.78559" y2="-8146.647"/>
</g><g transform="translate(0,0.63674) scale(0.4994) translate(3909.18834,8439.09017)" stroke="#006600" stroke-width="1.80217" opacity="1" fill="none">
<line x1="-3732.03559" y1="-8143.397" x2="-3725.53559" y2="-8136.897"/>
</g><g transform="translate(0,0.63674) scale(0.4994) translate(3909.18834,8439.09017)" stroke="#ffffff" stroke-width="0.60072" opacity="1" fill="none">
<line x1="-3732.03559" y1="-8143.397" x2="-3725.53559" y2="-8136.897"/>
</g><g transform="translate(0,0.63674) scale(0.4994) translate(172.78274,295.69317)" stroke="#ffffff" stroke-width="0.60072" opacity="1" fill="none">
<text y="-2" font-size="13" stroke="black" stroke-width="0.30036" fill="white" text-anchor="middle">0.2</text>
</g><g transform="translate(0,0.63674) scale(0.4994) translate(3909.18834,8439.09017)" stroke="#006600" stroke-width="1.80217" opacity="1" fill="none">
<line x1="-1745.68478" y1="-8114.147" x2="-1745.68478" y2="-8146.647"/>
</g><g transform="translate(0,0.63674) scale(0.4994) translate(3909.18834,8439.09017)" stroke="#ffffff" stroke-width="0.60072" opacity="1" fill="none">
<line x1="-1745.68478" y1="-8114.147" x2="-1745.68478" y2="-8146.647"/>
</g><g transform="translate(0,0.63674) scale(0.4994) translate(3909.18834,8439.09017)" stroke="#006600" stroke-width="1.80217" opacity="1" fill="none">
<line x1="-1748.93478" y1="-8143.397" x2="-1742.43478" y2="-8136.897"/>
</g><g transform="translate(0,0.63674) scale(0.4994) translate(3909.18834,8439.09017)" stroke="#ffffff" stroke-width="0.60072" opacity="1" fill="none">
<line x1="-1748.93478" y1="-8143.397" x2="-1742.43478" y2="-8136.897"/>
</g><g transform="translate(0,0.63674) scale(0.4994) translate(1171.95315,295.69317)" stroke="#ffffff" stroke-width="0.60072" opacity="1" fill="none">
<text y="-2" font-size="13" stroke="black" stroke-width="0.30036" fill="white" text-anchor="middle">19.8</text>
</g><g transform="translate(0,0.63674) scale(0.4994) translate(3909.18834,8439.09017)" stroke="#006600" stroke-width="1.80217" opacity="1" fill="none">
<line x1="-1730.4448" y1="-8114.147" x2="-1730.4448" y2="-8146.647"/>
</g><g transform="translate(0,0.63674) scale(0.4994) translate(3909.18834,8439.09017)" stroke="#ffffff" stroke-width="0.60072" opacity="1" fill="none">
<line x1="-1730.4448" y1="-8114.147" x2="-1730.4448" y2="-8146.647"/>
</g><g transform="translate(0,0.63674) scale(0.4994) translate(3909.18834,8439.09017)" stroke="#006600" stroke-width="1.80217" opacity="1" fill="none">
<line x1="-1733.6948" y1="-8143.397" x2="-1727.1948" y2="-8136.897"/>
</g><g transform="translate(0,0.63674) scale(0.4994) translate(3909.18834,8439.09017)" stroke="#ffffff" stroke-width="0.60072" opacity="1" fill="none">
<line x1="-1733.6948" y1="-8143.397" x2="-1727.1948" y2="-8136.897"/>
</g><g transform="translate(0,0.63674) scale(0.4994) translate(2171.12355,295.69317)" stroke="#ffffff" stroke-width="0.60072" opacity="1" fill="none">
<text y="-2" font-size="13" stroke="black" stroke-width="0.30036" fill="white" text-anchor="middle">0.2</text>
</g><g transform="translate(0,0.63674) scale(0.4994) translate(3909.18834,8439.09017)" stroke="#006600" stroke-width="1.80217" opacity="1" fill="none">
<line x1="-3750.5256" y1="-4038.5634" x2="-1723.9448" y2="-4038.5634"/>
</g><g transform="translate(0,0.63674) scale(0.4994) translate(3909.18834,8439.09017)" stroke="#ffffff" stroke-width="0.60072" opacity="1" fill="none">
<line x1="-3750.5256" y1="-4038.5634" x2="-1723.9448" y2="-4038.5634"/>
</g><g transform="translate(0,0.63674) scale(0.4994) translate(3909.18834,8439.09017)" stroke="#006600" stroke-width="1.80217" opacity="1" fill="none">
<line x1="-3744.0256" y1="-4064.5634" x2="-3744.0256" y2="-4032.0634"/>
</g><g transform="translate(0,0.63674) scale(0.4994) translate(3909.18834,8439.09017)" stroke="#ffffff" stroke-width="0.60072" opacity="1" fill="none">
<line x1="-3744.0256" y1="-4064.5634" x2="-3744.0256" y2="-4032.0634"/>
</g><g transform="translate(0,0.63674) scale(0.4994) translate(3909.18834,8439.09017)" stroke="#006600" stroke-width="1.80217" opacity="1" fill="none">
<line x1="-3747.2756" y1="-4041.8134" x2="-3740.7756" y2="-4035.3134"/>
</g><g transform="translate(0,0.63674) scale(0.4994) translate(3909.18834,8439.09017)" stroke="#ffffff" stroke-width="0.60072" opacity="1" fill="none">
<line x1="-3747.2756" y1="-4041.8134" x2="-3740.7756" y2="-4035.3134"/>
</g><g transform="translate(0,0.63674) scale(0.4994) translate(3909.18834,8439.09017)" stroke="#006600" stroke-width="1.80217" opacity="1" fill="none">
<line x1="-3728.78559" y1="-4064.5634" x2="-3728.78559" y2="-4032.0634"/>
</g><g transform="translate(0,0.63674) scale(0.4994) translate(3909.18834,8439.09017)" stroke="#ffffff" stroke-width="0.60072" opacity="1" fill="none">
<line x1="-3728.78559" y1="-4064.5634" x2="-3728.78559" y2="-4032.0634"/>
</g><g transform="translate(0,0.63674) scale(0.4994) translate(3909.18834,8439.09017)" stroke="#006600" stroke-width="1.80217" opacity="1" fill="none">
<line x1="-3732.03559" y1="-4041.8134" x2="-3725.53559" y2="-4035.3134"/>
</g><g transform="translate(0,0.63674) scale(0.4994) translate(3909.18834,8439.09017)" stroke="#ffffff" stroke-width="0.60072" opacity="1" fill="none">
<line x1="-3732.03559" y1="-4041.8134" x2="-3725.53559" y2="-4035.3134"/>
</g><g transform="translate(0,0.63674) scale(0.4994) translate(172.78274,4397.27677)" stroke="#ffffff" stroke-width="0.60072" opacity="1" fill="none">
<text y="-2" font-size="13" stroke="black" stroke-width="0.30036" fill="white" text-anchor="middle">0.2</text>
</g><g transform="translate(0,0.63674) scale(0.4994) translate(3909.18834,8439.09017)" stroke="#006600" stroke-width="1.80217" opacity="1" fill="none">
<line x1="-1745.68478" y1="-4064.5634" x2="-1745.68478" y2="-4032.0634"/>
</g><g transform="translate(0,0.63674) scale(0.4994) translate(3909.18834,8439.09017)" stroke="#ffffff" stroke-width="0.60072" opacity="1" fill="none">
<line x1="-1745.68478" y1="-4064.5634" x2="-1745.68478" y2="-4032.0634"/>
</g><g transform="translate(0,0.63674) scale(0.4994) translate(3909.18834,8439.09017)" stroke="#006600" stroke-width="1.80217" opacity="1" fill="none">
<line x1="-1748.93478" y1="-4041.8134" x2="-1742.43478" y2="-4035.3134"/>
</g><g transform="translate(0,0.63674) scale(0.4994) translate(3909.18834,8439.09017)" stroke="#ffffff" stroke-width="0.60072" opacity="1" fill="none">
<line x1="-1748.93478" y1="-4041.8134" x2="-1742.43478" y2="-4035.3134"/>
</g><g transform="translate(0,0.63674) scale(0.4994) translate(1171.95315,4397.27677)" stroke="#ffffff" stroke-width="0.60072" opacity="1" fill="none">
<text y="-2" font-size="13" stroke="black" stroke-width="0.30036" fill="white" text-anchor="middle">19.8</text>
</g><g transform="translate(0,0.63674) scale(0.4994) translate(3909.18834,8439.09017)" stroke="#006600" stroke-width="1.80217" opacity="1" fill="none">
<line x1="-1730.4448" y1="-4064.5634" x2="-1730.4448" y2="-4032.0634"/>
</g><g transform="translate(0,0.63674) scale(0.4994) translate(3909.18834,8439.09017)" stroke="#ffffff" stroke-width="0.60072" opacity="1" fill="none">
<line x1="-1730.4448" y1="-4064.5634" x2="-1730.4448" y2="-4032.0634"/>
</g><g transform="translate(0,0.63674) scale(0.4994) translate(3909.18834,8439.09017)" stroke="#006600" stroke-width="1.80217" opacity="1" fill="none">
<line x1="-1733.6948" y1="-4041.8134" x2="-1727.1948" y2="-4035.3134"/>
</g><g transform="translate(0,0.63674) scale(0.4994) translate(3909.18834,8439.09017)" stroke="#ffffff" stroke-width="0.60072" opacity="1" fill="none">
<line x1="-1733.6948" y1="-4041.8134" x2="-1727.1948" y2="-4035.3134"/>
</g><g transform="translate(0,0.63674) scale(0.4994) translate(2171.12355,4397.27677)" stroke="#ffffff" stroke-width="0.60072" opacity="1" fill="none">
<text y="-2" font-size="13" stroke="black" stroke-width="0.30036" fill="white" text-anchor="middle">0.2</text>
</g><g transform="translate(0,0.63674) scale(0.4994) translate(3909.18834,8439.09017)" stroke="#006600" stroke-width="1.80217" opacity="1" fill="none">
<line x1="-3781.7256" y1="-8108.947" x2="-3781.7256" y2="-4069.7634"/>
</g><g transform="translate(0,0.63674) scale(0.4994) translate(3909.18834,8439.09017)" stroke="#ffffff" stroke-width="0.60072" opacity="1" fill="none">
<line x1="-3781.7256" y1="-8108.947" x2="-3781.7256" y2="-4069.7634"/>
</g><g transform="translate(0,0.63674) scale(0.4994) translate(3909.18834,8439.09017)" stroke="#006600" stroke-width="1.80217" opacity="1" fill="none">
<line x1="-3755.7256" y1="-8102.447" x2="-3788.2256" y2="-8102.447"/>
</g><g transform="translate(0,0.63674) scale(0.4994) translate(3909.18834,8439.09017)" stroke="#ffffff" stroke-width="0.60072" opacity="1" fill="none">
<line x1="-3755.7256" y1="-8102.447" x2="-3788.2256" y2="-8102.447"/>
</g><g transform="translate(0,0.63674) scale(0.4994) translate(3909.18834,8439.09017)" stroke="#006600" stroke-width="1.80217" opacity="1" fill="none">
<line x1="-3778.4756" y1="-8105.697" x2="-3784.9756" y2="-8099.197"/>
</g><g transform="translate(0,0.63674) scale(0.4994) translate(3909.18834,8439.09017)" stroke="#ffffff" stroke-width="0.60072" opacity="1" fill="none">
<line x1="-3778.4756" y1="-8105.697" x2="-3784.9756" y2="-8099.197"/>
</g><g transform="translate(0,0.63674) scale(0.4994) translate(3909.18834,8439.09017)" stroke="#006600" stroke-width="1.80217" opacity="1" fill="none">
<line x1="-3755.7256" y1="-8087.20696" x2="-3788.2256" y2="-8087.20696"/>
</g><g transform="translate(0,0.63674) scale(0.4994) translate(3909.18834,8439.09017)" stroke="#ffffff" stroke-width="0.60072" opacity="1" fill="none">
<line x1="-3755.7256" y1="-8087.20696" x2="-3788.2256" y2="-8087.20696"/>
</g><g transform="translate(0,0.63674) scale(0.4994) translate(3909.18834,8439.09017)" stroke="#006600" stroke-width="1.80217" opacity="1" fill="none">
<line x1="-3778.4756" y1="-8090.45696" x2="-3784.9756" y2="-8083.95696"/>
</g><g transform="translate(0,0.63674) scale(0.4994) translate(3909.18834,8439.09017)" stroke="#ffffff" stroke-width="0.60072" opacity="1" fill="none">
<line x1="-3778.4756" y1="-8090.45696" x2="-3784.9756" y2="-8083.95696"/>
</g><g transform="translate(0,0.63674) scale(0.4994) translate(111.21274,344.26319) rotate(270) translate(0,13)" stroke="#ffffff" stroke-width="0.60072" opacity="1" fill="none">
<text y="-2" font-size="13" stroke="black" stroke-width="0.30036" fill="white" text-anchor="middle">0.2</text>
</g><g transform="translate(0,0.63674) scale(0.4994) translate(3909.18834,8439.09017)" stroke="#006600" stroke-width="1.80217" opacity="1" fill="none">
<line x1="-3755.7256" y1="-4091.5034" x2="-3788.2256" y2="-4091.5034"/>
</g><g transform="translate(0,0.63674) scale(0.4994) translate(3909.18834,8439.09017)" stroke="#ffffff" stroke-width="0.60072" opacity="1" fill="none">
<line x1="-3755.7256" y1="-4091.5034" x2="-3788.2256" y2="-4091.5034"/>
</g><g transform="translate(0,0.63674) scale(0.4994) translate(3909.18834,8439.09017)" stroke="#006600" stroke-width="1.80217" opacity="1" fill="none">
<line x1="-3778.4756" y1="-4094.7534" x2="-3784.9756" y2="-4088.2534"/>
</g><g transform="translate(0,0.63674) scale(0.4994) translate(3909.18834,8439.09017)" stroke="#ffffff" stroke-width="0.60072" opacity="1" fill="none">
<line x1="-3778.4756" y1="-4094.7534" x2="-3784.9756" y2="-4088.2534"/>
</g><g transform="translate(0,0.63674) scale(0.4994) translate(111.21274,2349.73499) rotate(270) translate(0,13)" stroke="#ffffff" stroke-width="0.60072" opacity="1" fill="none">
<text y="-2" font-size="13" stroke="black" stroke-width="0.30036" fill="white" text-anchor="middle">40</text>
</g><g transform="translate(0,0.63674) scale(0.4994) translate(3909.18834,8439.09017)" stroke="#006600" stroke-width="1.80217" opacity="1" fill="none">
<line x1="-3755.7256" y1="-4076.2634" x2="-3788.2256" y2="-4076.2634"/>
</g><g transform="translate(0,0.63674) scale(0.4994) translate(3909.18834,8439.09017)" stroke="#ffffff" stroke-width="0.60072" opacity="1" fill="none">
<line x1="-3755.7256" y1="-4076.2634" x2="-3788.2256" y2="-4076.2634"/>
</g><g transform="translate(0,0.63674) scale(0.4994) translate(3909.18834,8439.09017)" stroke="#006600" stroke-width="1.80217" opacity="1" fill="none">
<line x1="-3778.4756" y1="-4079.5134" x2="-3784.9756" y2="-4073.0134"/>
</g><g transform="translate(0,0.63674) scale(0.4994) translate(3909.18834,8439.09017)" stroke="#ffffff" stroke-width="0.60072" opacity="1" fill="none">
<line x1="-3778.4756" y1="-4079.5134" x2="-3784.9756" y2="-4073.0134"/>
</g><g transform="translate(0,0.63674) scale(0.4994) translate(111.21274,4355.20677) rotate(270) translate(0,13)" stroke="#ffffff" stroke-width="0.60072" opacity="1" fill="none">
<text y="-2" font-size="13" stroke="black" stroke-width="0.30036" fill="white" text-anchor="middle">0.2</text>
</g><g transform="translate(0,0.63674) scale(0.4994) translate(3909.18834,8439.09017)" stroke="#006600" stroke-width="1.80217" opacity="1" fill="none">
<line x1="-1692.7448" y1="-8108.947" x2="-1692.7448" y2="-4069.7634"/>
</g><g transform="translate(0,0.63674) scale(0.4994) translate(3909.18834,8439.09017)" stroke="#ffffff" stroke-width="0.60072" opacity="1" fill="none">
<line x1="-1692.7448" y1="-8108.947" x2="-1692.7448" y2="-4069.7634"/>
</g><g transform="translate(0,0.63674) scale(0.4994) translate(3909.18834,8439.09017)" stroke="#006600" stroke-width="1.80217" opacity="1" fill="none">
<line x1="-1718.7448" y1="-8102.447" x2="-1686.2448" y2="-8102.447"/>
</g><g transform="translate(0,0.63674) scale(0.4994) translate(3909.18834,8439.09017)" stroke="#ffffff" stroke-width="0.60072" opacity="1" fill="none">
<line x1="-1718.7448" y1="-8102.447" x2="-1686.2448" y2="-8102.447"/>
</g><g transform="translate(0,0.63674) scale(0.4994) translate(3909.18834,8439.09017)" stroke="#006600" stroke-width="1.80217" opacity="1" fill="none">
<line x1="-1689.4948" y1="-8105.697" x2="-1695.9948" y2="-8099.197"/>
</g><g transform="translate(0,0.63674) scale(0.4994) translate(3909.18834,8439.09017)" stroke="#ffffff" stroke-width="0.60072" opacity="1" fill="none">
<line x1="-1689.4948" y1="-8105.697" x2="-1695.9948" y2="-8099.197"/>
</g><g transform="translate(0,0.63674) scale(0.4994) translate(3909.18834,8439.09017)" stroke="#006600" stroke-width="1.80217" opacity="1" fill="none">
<line x1="-1718.7448" y1="-8087.20696" x2="-1686.2448" y2="-8087.20696"/>
</g><g transform="translate(0,0.63674) scale(0.4994) translate(3909.18834,8439.09017)" stroke="#ffffff" stroke-width="0.60072" opacity="1" fill="none">
<line x1="-1718.7448" y1="-8087.20696" x2="-1686.2448" y2="-8087.20696"/>
</g><g transform="translate(0,0.63674) scale(0.4994) translate(3909.18834,8439.09017)" stroke="#006600" stroke-width="1.80217" opacity="1" fill="none">
<line x1="-1689.4948" y1="-8090.45696" x2="-1695.9948" y2="-8083.95696"/>
</g><g transform="translate(0,0.63674) scale(0.4994) translate(3909.18834,8439.09017)" stroke="#ffffff" stroke-width="0.60072" opacity="1" fill="none">
<line x1="-1689.4948" y1="-8090.45696" x2="-1695.9948" y2="-8083.95696"/>
</g><g transform="translate(0,0.63674) scale(0.4994) translate(2200.19354,344.26319) rotate(270) translate(0,13)" stroke="#ffffff" stroke-width="0.60072" opacity="1" fill="none">
<text y="-2" font-size="13" stroke="black" stroke-width="0.30036" fill="white" text-anchor="middle">0.2</text>
</g><g transform="translate(0,0.63674) scale(0.4994) translate(3909.18834,8439.09017)" stroke="#006600" stroke-width="1.80217" opacity="1" fill="none">
<line x1="-1718.7448" y1="-4091.5034" x2="-1686.2448" y2="-4091.5034"/>
</g><g transform="translate(0,0.63674) scale(0.4994) translate(3909.18834,8439.09017)" stroke="#ffffff" stroke-width="0.60072" opacity="1" fill="none">
<line x1="-1718.7448" y1="-4091.5034" x2="-1686.2448" y2="-4091.5034"/>
</g><g transform="translate(0,0.63674) scale(0.4994) translate(3909.18834,8439.09017)" stroke="#006600" stroke-width="1.80217" opacity="1" fill="none">
<line x1="-1689.4948" y1="-4094.7534" x2="-1695.9948" y2="-4088.2534"/>
</g><g transform="translate(0,0.63674) scale(0.4994) translate(3909.18834,8439.09017)" stroke="#ffffff" stroke-width="0.60072" opacity="1" fill="none">
<line x1="-1689.4948" y1="-4094.7534" x2="-1695.9948" y2="-4088.2534"/>
</g><g transform="translate(0,0.63674) scale(0.4994) translate(2200.19354,2349.73499) rotate(270) translate(0,13)" stroke="#ffffff" stroke-width="0.60072" opacity="1" fill="none">
<text y="-2" font-size="13" stroke="black" stroke-width="0.30036" fill="white" text-anchor="middle">40</text>
</g><g transform="translate(0,0.63674) scale(0.4994) translate(3909.18834,8439.09017)" stroke="#006600" stroke-width="1.80217" opacity="1" fill="none">
<line x1="-1718.7448" y1="-4076.2634" x2="-1686.2448" y2="-4076.2634"/>
</g><g transform="translate(0,0.63674) scale(0.4994) translate(3909.18834,8439.09017)" stroke="#ffffff" stroke-width="0.60072" opacity="1" fill="none">
<line x1="-1718.7448" y1="-4076.2634" x2="-1686.2448" y2="-4076.2634"/>
</g><g transform="translate(0,0.63674) scale(0.4994) translate(3909.18834,8439.09017)" stroke="#006600" stroke-width="1.80217" opacity="1" fill="none">
<line x1="-1689.4948" y1="-4079.5134" x2="-1695.9948" y2="-4073.0134"/>
</g><g transform="translate(0,0.63674) scale(0.4994) translate(3909.18834,8439.09017)" stroke="#ffffff" stroke-width="0.60072" opacity="1" fill="none">
<line x1="-1689.4948" y1="-4079.5134" x2="-1695.9948" y2="-4073.0134"/>
</g><g transform="translate(0,0.63674) scale(0.4994) translate(2200.19354,4355.20677) rotate(270) translate(0,13)" stroke="#ffffff" stroke-width="0.60072" opacity="1" fill="none">
<text y="-2" font-size="13" stroke="black" stroke-width="0.30036" fill="white" text-anchor="middle">0.2</text></g></g>
</svg>