<?xml version="1.0" encoding="UTF-8" standalone="no"?>
<!DOCTYPE svg PUBLIC "-//W3C//DTD SVG 1.1//EN"
"http://www.w3.org/Graphics/SVG/1.1/DTD/svg11.dtd">
<svg xmlns="http://www.w3.org/2000/svg"
xmlns:xlink="http://www.w3.org/1999/xlink" xml:space="preserve"
width="1014pt" height="2035pt"
viewBox="0 0 1014 2035">
<g font-family="sans-serif" font-weight="bold">
<g transform="translate(0,0.53153) scale(0.49953) translate(5650.0253,1968.5293)" stroke="#773dde" fill="none">
<path d="M-3642.876,2080.4043 L-5627.2753,2080.4043 -5627.2753,-1945.7793 -3642.876,-1945.7793 z" fill="#773dde" stroke="none"/>
</g><g transform="translate(0,0.53153) scale(0.49953) translate(5650.0253,1968.5293)" stroke="#fff6e8" fill="none">
<path d="M-3658.116,2065.1643 L-3658.116,1602.2325 -3642.876,1602.2325 -3642.876,898.9119 -3658.116,898.9119 -3658.116,703.092 -3642.876,703.092 -3642.876,597.0023 -3658.116,597.0023 -3658.116,-485.5783 -3642.876,-485.5783 -3642.876,-607.4706 -3658.116,-607.4706 -3658.116,-759.6095 -3642.876,-759.6095 -3642.876,-1462.9301 -3658.116,-1462.9301 -3658.116,-1803.6469 -3642.876,-1803.6469 -3642.876,-1925.5393 -3658.116,-1925.5393 -3658.116,-1930.5393 -3762.7462,-1930.5393 -3762.7462,-1945.7793 -5380.1092,-1945.7793 -5380.1092,-1930.5393 -5612.0353,-1930.5393 -5612.0353,-1930.5393 -5627.2753,-1930.5393 -5627.2753,2065.1643 -5612.0353,2065.1643 -5347.3082,2065.1643 -5347.3082,2080.4043 -3795.1205,2080.4043 -3795.1205,2065.1643 z" fill="#fff6e8" stroke="none"/>
</g><g transform="translate(0,0.53153) scale(0.49953) translate(5650.0253,1968.5293)" stroke="#773dde" stroke-width="1.80169" fill="none">
<path d="M-4307.907,805.4976 L-5458.117,805.4976 -5458.117,793.4956 -4307.907,793.4956 z" fill="#773dde" stroke="none"/>

<path d="M-4307.907,1696.7805 L-5458.117,1696.7805 -5458.117,1684.7785 -4307.907,1684.7785 z" fill="#773dde" stroke="none"/>

<path d="M-4955.108,805.4976 L-4967.11,805.4976 -4967.11,577.6018 -4955.108,577.6018 z M-4955.108,308.9312 L-4967.11,308.9312 -4967.11,308.9302 -4955.108,308.9302 z" fill="#773dde" stroke="none"/>

<path d="M-4305.8046,-1589.2285 L-5460.6855,-1589.2285 -5460.6855,-1601.2305 -4305.8046,-1601.2305 z" fill="#773dde" stroke="none"/>

<path d="M-4307.907,-667.4907 L-5458.117,-667.4907 -5458.117,-679.4927 -4307.907,-679.4927 z" fill="#773dde" stroke="none"/>

<path d="M-3658.115,-617.4907 L-4307.909,-617.4907 -4307.909,-667.4927 -3658.115,-667.4927 z" fill="#773dde" stroke="none"/>

<path d="M-4295.907,-667.4907 L-4307.909,-667.4907 -4307.909,-1588.0624 -4295.907,-1588.0624 z" fill="#773dde" stroke="none"/>

<path d="M-4295.907,-14.5383 L-4307.909,-14.5383 -4307.909,-94.5403 -4295.907,-94.5403 z" fill="#773dde" stroke="none"/>

<path d="M-4007.907,-457.5383 L-4307.909,-457.5383 -4307.909,-507.5403 -4007.907,-507.5403 z" fill="#773dde" stroke="none"/>

<path d="M-4007.907,-94.5383 L-4307.909,-94.5383 -4307.909,-106.5403 -4007.907,-106.5403 z" fill="#773dde" stroke="none"/>

<path d="M-4295.907,586.4617 L-4307.909,586.4617 -4307.909,533.2677 -4295.907,533.2677 z M-4295.907,433.2679 L-4307.909,433.2679 -4307.909,221.4597 -4295.907,221.4597 z" fill="#773dde" stroke="none"/>

<path d="M-4007.907,-488.5383 L-4019.909,-488.5383 -4019.909,-517.8608 -4007.907,-517.8608 z M-4007.907,-608.3928 L-4019.909,-608.3928 -4019.909,-617.4927 -4007.907,-617.4927 z" fill="#773dde" stroke="none"/>

<path d="M-4295.907,-106.5383 L-4307.909,-106.5383 -4307.909,-476.5403 -4295.907,-476.5403 z" fill="#773dde" stroke="none"/>

<path d="M-4007.907,-2.5383 L-4307.909,-2.5383 -4307.909,-14.5403 -4007.907,-14.5403 z" fill="#773dde" stroke="none"/>

<path d="M-4007.907,-14.5383 L-4019.909,-14.5383 -4019.909,-94.5403 -4007.907,-94.5403 z" fill="#773dde" stroke="none"/>

<path d="M-4295.907,117.4617 L-4307.909,117.4617 -4307.909,-2.5403 -4295.907,-2.5403 z" fill="#773dde" stroke="none"/>

<path d="M-4007.907,129.4617 L-4307.909,129.4617 -4307.909,117.4597 -4007.907,117.4597 z" fill="#773dde" stroke="none"/>

<path d="M-4007.907,221.4617 L-4307.909,221.4617 -4307.909,209.4597 -4007.907,209.4597 z" fill="#773dde" stroke="none"/>

<path d="M-4295.907,209.4617 L-4307.909,209.4617 -4307.909,129.4597 -4295.907,129.4597 z" fill="#773dde" stroke="none"/>

<path d="M-4007.907,209.4617 L-4019.909,209.4617 -4019.909,129.4597 -4007.907,129.4597 z" fill="#773dde" stroke="none"/>

<path d="M-4207.907,434.7081 L-4307.909,434.7081 -4307.909,422.7061 -4207.907,422.7061 z" fill="#773dde" stroke="none"/>

<path d="M-4207.907,534.7081 L-4219.909,534.7081 -4219.909,434.7061 -4207.907,434.7061 z" fill="#773dde" stroke="none"/>

<path d="M-4007.0302,584.7081 L-4307.0322,584.7081 -4307.0322,534.7061 -4007.0302,534.7061 z" fill="#773dde" stroke="none"/>

<path d="M-4007.0302,714.7081 L-4019.0322,714.7081 -4019.0322,701.6349 -4007.0302,701.6349 z M-4007.0302,595.2292 L-4019.0322,595.2292 -4019.0322,584.7061 -4007.0302,584.7061 z" fill="#773dde" stroke="none"/>

<path d="M-3658.115,761.825 L-4307.909,761.825 -4307.909,711.823 -3658.115,711.823 z" fill="#773dde" stroke="none"/>

<path d="M-4295.907,1696.7805 L-4307.909,1696.7805 -4307.909,761.823 -4295.907,761.823 z" fill="#773dde" stroke="none"/>

<path d="M-4007.907,-106.5383 L-4019.909,-106.5383 -4019.909,-476.5403 -4007.907,-476.5403 z" fill="#773dde" stroke="none"/>

<path d="M-4007.0303,566.4405 L-4019.0322,566.458 -4019.909,-35.3589 -4007.907,-35.3763 z" fill="#773dde" stroke="none"/>

<path d="M-4955.108,308.9322 L-4967.11,308.9322 -4967.11,-292.6962 -4955.108,-292.6962 z M-4955.108,-525.1944 L-4967.11,-525.1944 -4967.11,-679.4927 -4955.108,-679.4927 z" fill="#773dde" stroke="none"/>

<path d="M-5457.324,-749.7751 L-5457.9618,-668.0057 -5467.9635,-668.0837 -5467.3257,-749.8532 z M-5448.1153,-1930.4623 L-5451.0882,-1549.2902 -5461.0899,-1549.3683 -5458.117,-1930.5403 z" fill="#773dde" stroke="none"/>

<path d="M-5457.9615,790.1243 L-5467.9635,790.1243 -5467.9635,-260.1565 -5457.9615,-260.1565 z M-5457.9615,-474.24 L-5467.9635,-474.24 -5467.9635,-668.0857 -5457.9615,-668.0857 z" fill="#773dde" stroke="none"/>

<path d="M-5458.115,793.4956 L-5469.4327,2068.5385 -5479.4343,2068.4497 -5468.1166,793.4068 z" fill="#773dde" stroke="none"/>
</g><g transform="translate(0,0.53153) scale(0.49953) translate(5650.0253,1968.5293)" stroke="#111111" stroke-width="1.80169" fill="none">
<path d="M-3642.876,2080.4043 L-3795.1205,2080.4043 -3795.1205,2065.1643 -3658.116,2065.1643 -3658.116,1602.2325 -3642.876,1602.2325 z M-4019.0322,711.823 L-4019.0322,701.6349 -4007.0302,701.6349 -4007.0302,711.823 -3658.116,711.823 -3658.116,703.092 -3642.876,703.092 -3642.876,898.9119 -3658.116,898.9119 -3658.116,761.825 -4295.907,761.825 -4295.907,1696.7805 -5458.117,1696.7805 -5458.117,1684.7785 -4307.909,1684.7785 -4307.909,805.4976 -5458.117,805.4976 -5458.117,793.7209 -5469.4027,2065.1643 -5347.3082,2065.1643 -5347.3082,2080.4043 -5627.2753,2080.4043 -5627.2753,2065.1643 -5479.4051,2065.1643 -5468.1166,793.4068 -5458.115,793.4956 -4967.11,793.4956 -4967.11,577.6018 -4955.108,577.6018 -4955.108,793.4956 -4307.909,793.4956 -4307.909,711.823 z M-5457.9615,790.1243 L-5467.9635,790.1243 -5467.9635,-260.1565 -5457.9615,-260.1565 z M-3642.876,597.0023 L-3658.116,597.0023 -3658.116,-485.5783 -3642.876,-485.5783 z M-4007.0765,534.7061 L-4007.0302,534.7061 -4007.0302,595.2292 -4019.0322,595.2292 -4019.0322,584.7081 -4295.907,584.7081 -4295.907,586.4617 -4307.909,586.4617 -4307.909,533.2677 -4295.907,533.2677 -4295.907,534.7061 -4219.909,534.7061 -4219.909,434.7081 -4307.909,434.7081 -4307.909,-507.5403 -4019.909,-507.5403 -4019.909,-517.8608 -4007.907,-517.8608 -4007.907,-35.3763 z M-4019.0785,534.7061 L-4019.5348,221.4617 -4295.907,221.4617 -4295.907,422.7061 -4207.907,422.7061 -4207.907,534.7061 z M-4967.11,308.9322 L-4967.11,-292.6962 -4955.108,-292.6962 -4955.108,308.9322 z M-4295.907,129.4617 L-4295.907,209.4597 -4019.909,209.4597 -4019.909,129.4617 z M-4295.907,-2.5383 L-4295.907,117.4597 -4019.6864,117.4597 -4019.8612,-2.5383 z M-4295.907,-94.5383 L-4295.907,-14.5403 -4019.909,-14.5403 -4019.909,-94.5383 z M-4295.907,-457.5383 L-4295.907,-106.5403 -4019.909,-106.5403 -4019.909,-457.5383 z M-4295.907,-667.4927 L-3658.116,-667.4927 -3658.116,-759.6095 -3642.876,-759.6095 -3642.876,-607.4706 -3658.116,-607.4706 -3658.116,-617.4907 -4007.907,-617.4907 -4007.907,-608.3928 -4019.909,-608.3928 -4019.909,-617.4907 -4307.909,-617.4907 -4307.909,-667.4907 -4955.108,-667.4907 -4955.108,-525.1944 -4967.11,-525.1944 -4967.11,-667.4907 -5457.9615,-667.4907 -5457.9615,-474.24 -5467.9635,-474.24 -5467.9635,-668.0857 -5467.3257,-749.8532 -5457.324,-749.7751 -5457.8722,-679.4927 -4307.909,-679.4927 -4307.909,-1588.0624 -4295.907,-1588.0624 z M-3642.876,-1462.9301 L-3658.116,-1462.9301 -3658.116,-1803.6469 -3642.876,-1803.6469 z M-5380.1092,-1930.5393 L-5457.9888,-1930.5393 -5448.1153,-1930.4623 -5450.6831,-1601.2305 -4305.8046,-1601.2305 -4305.8046,-1589.2285 -5450.7767,-1589.2285 -5451.0882,-1549.2902 -5461.0899,-1549.3683 -5460.6855,-1601.2187 -5460.6855,-1601.2305 -5460.6854,-1601.2305 -5458.117,-1930.5393 -5627.2753,-1930.5393 -5627.2753,-1945.7793 -5380.1092,-1945.7793 z M-3642.876,-1925.5393 L-3658.116,-1925.5393 -3658.116,-1930.5393 -3762.7462,-1930.5393 -3762.7462,-1945.7793 -3642.876,-1945.7793 z"/>
</g><g transform="translate(0,0.53153) scale(0.49953) translate(5650.0253,1968.5293)" stroke="#000000" stroke-width="0.60056" fill="none">
<path d="M-619.8051,2590.3247 L-759.8051,2590.3247 -759.8051,2652.8247 -899.8151,2652.8247 -899.8151,2415.3147 -759.8151,2415.3147 -759.8151,2352.8147 -619.8051,2352.8147 z M-952.0817,2129.8552 L-1228.0917,2129.8552 -1228.0917,2047.5683 -952.0817,2047.5683 z M-952.0817,1903.5783 L-1228.0917,1903.5783 -1228.0917,1823.4021 -952.0817,1823.4021 z M-759.8051,1492.0683 L-619.8051,1492.0683 -619.8051,1731.4235 -759.8151,1731.4235 -759.8151,1668.9235 -899.8151,1668.9235 -899.8151,1429.5683 -759.8051,1429.5683 z"/>
</g><g transform="translate(0,0.53153) scale(0.49953) translate(5650.0253,1968.5293)" stroke="#f2edc2" stroke-width="0.60056" opacity="1" fill="none">
<path d="M-5309.83553,761.82396 C-5307.62639,761.82396 -5305.83553,760.0331 -5305.83553,757.82396 L-5305.83553,750.82396 C-5305.83553,748.61482 -5307.62639,746.82396 -5309.83553,746.82396 L-5380.83553,746.82396 C-5383.04467,746.82396 -5384.83553,748.61482 -5384.83553,750.82396 L-5384.83553,757.82396 C-5384.83553,760.0331 -5383.04467,761.82396 -5380.83553,761.82396 z" fill="#f2edc2" stroke="none"/>

<path d="M-5309.83553,549.70714 C-5307.62639,549.70714 -5305.83553,547.91628 -5305.83553,545.70714 L-5305.83553,538.70714 C-5305.83553,536.498 -5307.62639,534.70714 -5309.83553,534.70714 L-5380.83553,534.70714 C-5383.04467,534.70714 -5384.83553,536.498 -5384.83553,538.70714 L-5384.83553,545.70714 C-5384.83553,547.91628 -5383.04467,549.70714 -5380.83553,549.70714 z" fill="#f2edc2" stroke="none"/>

<path d="M-5306.83553,746.82396 C-5302.96954,746.82396 -5299.83553,743.68995 -5299.83553,739.82396 L-5299.83553,556.70714 C-5299.83553,552.84115 -5302.96954,549.70714 -5306.83553,549.70714 L-5389.83553,549.70714 -5389.83553,746.82396 z" fill="#f2edc2" stroke="none"/>
</g><g transform="translate(0,0.53153) scale(0.49953) translate(5650.0253,1968.5293)" stroke="#000000" stroke-width="0.60056" opacity="1" fill="none">
<path d="M-5309.83553,761.82396 C-5307.62639,761.82396 -5305.83553,760.0331 -5305.83553,757.82396 L-5305.83553,750.82396 C-5305.83553,748.61482 -5307.62639,746.82396 -5309.83553,746.82396 L-5380.83553,746.82396 C-5383.04467,746.82396 -5384.83553,748.61482 -5384.83553,750.82396 L-5384.83553,757.82396 C-5384.83553,760.0331 -5383.04467,761.82396 -5380.83553,761.82396 z"/>

<path d="M-5309.83553,549.70714 C-5307.62639,549.70714 -5305.83553,547.91628 -5305.83553,545.70714 L-5305.83553,538.70714 C-5305.83553,536.498 -5307.62639,534.70714 -5309.83553,534.70714 L-5380.83553,534.70714 C-5383.04467,534.70714 -5384.83553,536.498 -5384.83553,538.70714 L-5384.83553,545.70714 C-5384.83553,547.91628 -5383.04467,549.70714 -5380.83553,549.70714 z"/>

<path d="M-5306.83553,746.82396 C-5302.96954,746.82396 -5299.83553,743.68995 -5299.83553,739.82396 L-5299.83553,556.70714 C-5299.83553,552.84115 -5302.96954,549.70714 -5306.83553,549.70714 L-5389.83553,549.70714 -5389.83553,746.82396 z"/>

<line x1="-5364.83553" y1="746.82396" x2="-5364.83553" y2="549.70714"/>

<line x1="-5364.83553" y1="648.26555" x2="-5299.83553" y2="648.26555"/>
</g><g transform="translate(0,0.53153) scale(0.49953) translate(5650.0253,1968.5293)" stroke="#ffffff" stroke-width="0.60056" opacity="1" fill="none">
<path d="M-4295.90802,-94.5393 L-4295.90802,-14.5393 -4019.90802,-14.5393 -4019.90802,-94.5393 z" fill="#ffffff" stroke="none"/>
</g><g transform="translate(0,0.53153) scale(0.49953) translate(5650.0253,1968.5293)" stroke="#000000" stroke-width="0.60056" opacity="1" fill="none">
<path d="M-4295.90802,-94.5393 L-4295.90802,-14.5393 -4019.90802,-14.5393 -4019.90802,-94.5393 z"/>

<path d="M-4295.90802,-90.5393 L-4019.90802,-90.5393"/>

<path d="M-4295.90802,-18.5393 L-4019.90802,-18.5393"/>

<line x1="-4295.90802" y1="-54.5393" x2="-4019.90802" y2="-54.5393"/>

<line x1="-4034.90802" y1="-64.5393" x2="-4019.90802" y2="-54.5393"/>

<line x1="-4034.90802" y1="-44.5393" x2="-4019.90802" y2="-54.5393"/>
</g><g transform="translate(0,0.53153) scale(0.49953) translate(5650.0253,1968.5293)" stroke="#ffffff" stroke-width="0.60056" opacity="1" fill="none">
<path d="M-4295.90802,129.4607 L-4295.90802,209.4607 -4019.90802,209.4607 -4019.90802,129.4607 z" fill="#ffffff" stroke="none"/>
</g><g transform="translate(0,0.53153) scale(0.49953) translate(5650.0253,1968.5293)" stroke="#000000" stroke-width="0.60056" opacity="1" fill="none">
<path d="M-4295.90802,129.4607 L-4295.90802,209.4607 -4019.90802,209.4607 -4019.90802,129.4607 z"/>

<path d="M-4295.90802,133.4607 L-4019.90802,133.4607"/>

<path d="M-4295.90802,205.4607 L-4019.90802,205.4607"/>

<line x1="-4295.90802" y1="169.4607" x2="-4019.90802" y2="169.4607"/>

<line x1="-4034.90802" y1="159.4607" x2="-4019.90802" y2="169.4607"/>

<line x1="-4034.90802" y1="179.4607" x2="-4019.90802" y2="169.4607"/>

<line x1="-3795.12046" y1="2080.40426" x2="-5347.30822" y2="2080.40426"/>

<line x1="-5347.30822" y1="2065.16426" x2="-3795.12046" y2="2065.16426"/>

<line x1="-5380.10922" y1="-1945.7793" x2="-3762.74622" y2="-1945.7793"/>

<line x1="-3762.74622" y1="-1930.5393" x2="-5380.10922" y2="-1930.5393"/>

<line x1="-3642.87604" y1="-1925.5393" x2="-3642.87604" y2="-1803.64695"/>

<line x1="-3658.11604" y1="-1803.64695" x2="-3658.11604" y2="-1925.5393"/>

<line x1="-3642.87604" y1="-1462.93007" x2="-3642.87604" y2="-759.60951"/>

<line x1="-3658.11604" y1="-759.60951" x2="-3658.11604" y2="-1462.93007"/>

<line x1="-3642.87604" y1="-607.47061" x2="-3642.87604" y2="-485.57826"/>

<line x1="-3658.11604" y1="-485.57826" x2="-3658.11604" y2="-607.47061"/>

<line x1="-3642.87604" y1="597.00231" x2="-3642.87604" y2="703.09203"/>

<line x1="-3658.11604" y1="703.09203" x2="-3658.11604" y2="597.00231"/>

<line x1="-3642.87604" y1="898.91191" x2="-3642.87604" y2="1602.23248"/>

<line x1="-3658.11604" y1="1602.23248" x2="-3658.11604" y2="898.91191"/>

<line x1="-4961.10905" y1="308.93123" x2="-4961.10905" y2="577.60183"/>

<line x1="-4966.10905" y1="308.93123" x2="-4966.10905" y2="456.70006"/>

<line x1="-4966.10905" y1="456.70006" x2="-4961.10905" y2="456.70006"/>

<line x1="-4956.10905" y1="429.833" x2="-4956.10905" y2="577.60183"/>

<line x1="-4956.10905" y1="429.833" x2="-4961.10905" y2="429.833"/>

<path d="M-4306.90802,533.26766 L-4306.90802,528.26766 -4256.90812,528.26766 C-4256.90812,503.4149 -4274.81669,483.26776 -4296.90802,483.26776 -4274.81669,483.26776 -4256.90812,463.12062 -4256.90812,438.26786 L-4306.90802,438.26786 -4306.90802,433.26786"/>

<line x1="-4296.90802" y1="533.26766" x2="-4296.90802" y2="433.26786"/>

<line x1="-4296.90802" y1="523.26766" x2="-4257.22185" y2="523.26766"/>

<line x1="-4296.90802" y1="443.26786" x2="-4257.22185" y2="443.26786"/>

<path d="M-4008.90802,-517.86084 L-4008.90802,-522.86084 -4054.17401,-522.86084 C-4054.17401,-545.09913 -4038.38489,-563.12683 -4018.90802,-563.12683 -4038.38489,-563.12683 -4054.17401,-581.15453 -4054.17401,-603.39282 L-4008.90802,-603.39282 -4008.90802,-608.39282"/>

<line x1="-4018.90802" y1="-517.86084" x2="-4018.90802" y2="-608.39282"/>

<line x1="-4018.90802" y1="-527.86084" x2="-4053.81776" y2="-527.86084"/>

<line x1="-4018.90802" y1="-598.39282" x2="-4053.81776" y2="-598.39282"/>

<path d="M-4008.03124,701.63494 L-4008.03124,696.63494 -4061.23412,696.63494 C-4061.23412,670.01322 -4041.89153,648.43206 -4018.03124,648.43206 -4041.89153,648.43206 -4061.23412,626.85089 -4061.23412,600.22917 L-4008.03124,600.22917 -4008.03124,595.22917"/>

<line x1="-4018.03124" y1="701.63494" x2="-4018.03124" y2="595.22917"/>

<line x1="-4018.03124" y1="691.63494" x2="-4060.94382" y2="691.63494"/>

<line x1="-4018.03124" y1="605.22917" x2="-4060.94382" y2="605.22917"/>

<line x1="-4961.10905" y1="-525.19441" x2="-4961.10905" y2="-292.6962"/>

<line x1="-4966.10905" y1="-525.19441" x2="-4966.10905" y2="-397.32039"/>

<line x1="-4966.10905" y1="-397.32039" x2="-4961.10905" y2="-397.32039"/>

<line x1="-4956.10905" y1="-420.57022" x2="-4956.10905" y2="-292.6962"/>

<line x1="-4956.10905" y1="-420.57022" x2="-4961.10905" y2="-420.57022"/>

<line x1="-5467.32478" y1="-749.85311" x2="-5461.08897" y2="-1549.36824"/>

<line x1="-5451.08928" y1="-1549.29025" x2="-5457.32508" y2="-749.77512"/>

<line x1="-5467.96253" y1="-260.15654" x2="-5467.96253" y2="-474.24003"/>

<line x1="-5457.96253" y1="-474.24003" x2="-5457.96253" y2="-260.15654"/>
</g><g transform="translate(0,0.53153) scale(0.49953) translate(5650.0253,1968.5293)" stroke="#ffffff" stroke-width="0.60056" opacity="1" fill="none">
<path d="M-3847.38408,82.34388 L-3987.38408,82.34388 -3987.38408,584.70714 -3847.38408,584.70714 z" fill="#ffffff" stroke="none"/>
</g><g transform="translate(0,0.53153) scale(0.49953) translate(5650.0253,1968.5293)" stroke="#000000" stroke-width="0.60056" opacity="1" fill="none">
<path d="M-3847.38408,82.34388 L-3987.38408,82.34388 -3987.38408,584.70714 -3847.38408,584.70714 z"/>

<path d="M-3851.38408,82.34388 L-3851.38408,584.70714"/>

<path d="M-3983.38408,82.34388 L-3983.38408,584.70714"/>

<line x1="-3847.38408" y1="559.58898" x2="-3987.38408" y2="559.58898"/>

<line x1="-3847.38408" y1="534.47081" x2="-3987.38408" y2="534.47081"/>

<line x1="-3847.38408" y1="509.35265" x2="-3987.38408" y2="509.35265"/>

<line x1="-3847.38408" y1="484.23449" x2="-3987.38408" y2="484.23449"/>

<line x1="-3847.38408" y1="459.11632" x2="-3987.38408" y2="459.11632"/>

<line x1="-3847.38408" y1="433.99816" x2="-3987.38408" y2="433.99816"/>

<line x1="-3847.38408" y1="408.88" x2="-3987.38408" y2="408.88"/>

<line x1="-3847.38408" y1="383.76184" x2="-3987.38408" y2="383.76184"/>

<line x1="-3847.38408" y1="358.64367" x2="-3987.38408" y2="358.64367"/>

<line x1="-3847.38408" y1="333.52551" x2="-3987.38408" y2="333.52551"/>

<line x1="-3847.38408" y1="308.40735" x2="-3987.38408" y2="308.40735"/>

<line x1="-3847.38408" y1="283.28918" x2="-3987.38408" y2="283.28918"/>

<line x1="-3847.38408" y1="258.17102" x2="-3987.38408" y2="258.17102"/>

<line x1="-3847.38408" y1="233.05286" x2="-3987.38408" y2="233.05286"/>

<line x1="-3847.38408" y1="207.93469" x2="-3987.38408" y2="207.93469"/>

<line x1="-3847.38408" y1="182.81653" x2="-3987.38408" y2="182.81653"/>

<line x1="-3847.38408" y1="157.69837" x2="-3987.38408" y2="157.69837"/>

<line x1="-3847.38408" y1="132.58021" x2="-3987.38408" y2="132.58021"/>

<line x1="-3847.38408" y1="107.46204" x2="-3987.38408" y2="107.46204"/>

<line x1="-3917.38408" y1="82.34388" x2="-3917.38408" y2="584.70714"/>

<line x1="-3907.38408" y1="569.70714" x2="-3917.38408" y2="584.70714"/>

<line x1="-3927.38408" y1="569.70714" x2="-3917.38408" y2="584.70714"/>
</g><g transform="translate(0,0.53153) scale(0.49953) translate(5650.0253,1968.5293)" stroke="#ffffff" stroke-width="0.60056" opacity="1" fill="none">
<path d="M-3687.63137,-488.5393 L-3827.63137,-488.5393 -3827.63137,-2.5393 -3687.63137,-2.5393 z" fill="#ffffff" stroke="none"/>
</g><g transform="translate(0,0.53153) scale(0.49953) translate(5650.0253,1968.5293)" stroke="#000000" stroke-width="0.60056" opacity="1" fill="none">
<path d="M-3687.63137,-488.5393 L-3827.63137,-488.5393 -3827.63137,-2.5393 -3687.63137,-2.5393 z"/>

<path d="M-3691.63137,-488.5393 L-3691.63137,-2.5393"/>

<path d="M-3823.63137,-488.5393 L-3823.63137,-2.5393"/>

<line x1="-3687.63137" y1="-28.11825" x2="-3827.63137" y2="-28.11825"/>

<line x1="-3687.63137" y1="-53.69719" x2="-3827.63137" y2="-53.69719"/>

<line x1="-3687.63137" y1="-79.27614" x2="-3827.63137" y2="-79.27614"/>

<line x1="-3687.63137" y1="-104.85509" x2="-3827.63137" y2="-104.85509"/>

<line x1="-3687.63137" y1="-130.43404" x2="-3827.63137" y2="-130.43404"/>

<line x1="-3687.63137" y1="-156.01298" x2="-3827.63137" y2="-156.01298"/>

<line x1="-3687.63137" y1="-181.59193" x2="-3827.63137" y2="-181.59193"/>

<line x1="-3687.63137" y1="-207.17088" x2="-3827.63137" y2="-207.17088"/>

<line x1="-3687.63137" y1="-232.74983" x2="-3827.63137" y2="-232.74983"/>

<line x1="-3687.63137" y1="-258.32877" x2="-3827.63137" y2="-258.32877"/>

<line x1="-3687.63137" y1="-283.90772" x2="-3827.63137" y2="-283.90772"/>

<line x1="-3687.63137" y1="-309.48667" x2="-3827.63137" y2="-309.48667"/>

<line x1="-3687.63137" y1="-335.06562" x2="-3827.63137" y2="-335.06562"/>

<line x1="-3687.63137" y1="-360.64456" x2="-3827.63137" y2="-360.64456"/>

<line x1="-3687.63137" y1="-386.22351" x2="-3827.63137" y2="-386.22351"/>

<line x1="-3687.63137" y1="-411.80246" x2="-3827.63137" y2="-411.80246"/>

<line x1="-3687.63137" y1="-437.38141" x2="-3827.63137" y2="-437.38141"/>

<line x1="-3687.63137" y1="-462.96035" x2="-3827.63137" y2="-462.96035"/>

<line x1="-3757.63137" y1="-488.5393" x2="-3757.63137" y2="-2.5393"/>

<line x1="-3747.63137" y1="-17.5393" x2="-3757.63137" y2="-2.5393"/>

<line x1="-3767.63137" y1="-17.5393" x2="-3757.63137" y2="-2.5393"/>
</g><g transform="translate(0,0.53153) scale(0.49953) translate(5650.0253,1968.5293)" stroke="#ffffff" stroke-width="0.60056" opacity="1" fill="none">
<path d="M-3987.38408,-2.5393 L-3847.38408,-2.5393 -3847.38408,-488.5393 -3987.38408,-488.5393 z" fill="#ffffff" stroke="none"/>
</g><g transform="translate(0,0.53153) scale(0.49953) translate(5650.0253,1968.5293)" stroke="#000000" stroke-width="0.60056" opacity="1" fill="none">
<path d="M-3987.38408,-2.5393 L-3847.38408,-2.5393 -3847.38408,-488.5393 -3987.38408,-488.5393 z"/>

<path d="M-3983.38408,-2.5393 L-3983.38408,-488.5393"/>

<path d="M-3851.38408,-2.5393 L-3851.38408,-488.5393"/>

<line x1="-3987.38408" y1="-462.96035" x2="-3847.38408" y2="-462.96035"/>

<line x1="-3987.38408" y1="-437.38141" x2="-3847.38408" y2="-437.38141"/>

<line x1="-3987.38408" y1="-411.80246" x2="-3847.38408" y2="-411.80246"/>

<line x1="-3987.38408" y1="-386.22351" x2="-3847.38408" y2="-386.22351"/>

<line x1="-3987.38408" y1="-360.64456" x2="-3847.38408" y2="-360.64456"/>

<line x1="-3987.38408" y1="-335.06562" x2="-3847.38408" y2="-335.06562"/>

<line x1="-3987.38408" y1="-309.48667" x2="-3847.38408" y2="-309.48667"/>

<line x1="-3987.38408" y1="-283.90772" x2="-3847.38408" y2="-283.90772"/>

<line x1="-3987.38408" y1="-258.32877" x2="-3847.38408" y2="-258.32877"/>

<line x1="-3987.38408" y1="-232.74983" x2="-3847.38408" y2="-232.74983"/>

<line x1="-3987.38408" y1="-207.17088" x2="-3847.38408" y2="-207.17088"/>

<line x1="-3987.38408" y1="-181.59193" x2="-3847.38408" y2="-181.59193"/>

<line x1="-3987.38408" y1="-156.01298" x2="-3847.38408" y2="-156.01298"/>

<line x1="-3987.38408" y1="-130.43404" x2="-3847.38408" y2="-130.43404"/>

<line x1="-3987.38408" y1="-104.85509" x2="-3847.38408" y2="-104.85509"/>

<line x1="-3987.38408" y1="-79.27614" x2="-3847.38408" y2="-79.27614"/>

<line x1="-3987.38408" y1="-53.69719" x2="-3847.38408" y2="-53.69719"/>

<line x1="-3987.38408" y1="-28.11825" x2="-3847.38408" y2="-28.11825"/>

<line x1="-3917.38408" y1="-2.5393" x2="-3917.38408" y2="-488.5393"/>

<line x1="-3927.38408" y1="-473.5393" x2="-3917.38408" y2="-488.5393"/>

<line x1="-3907.38408" y1="-473.5393" x2="-3917.38408" y2="-488.5393"/>
</g><g transform="translate(0,0.53153) scale(0.49953) translate(5650.0253,1968.5293)" stroke="#ffffff" stroke-width="0.60056" opacity="1" fill="none">
<path d="M-3827.63137,586.4607 L-3687.63137,586.4607 -3687.63137,84.09744 -3827.63137,84.09744 z" fill="#ffffff" stroke="none"/>
</g><g transform="translate(0,0.53153) scale(0.49953) translate(5650.0253,1968.5293)" stroke="#000000" stroke-width="0.60056" opacity="1" fill="none">
<path d="M-3827.63137,586.4607 L-3687.63137,586.4607 -3687.63137,84.09744 -3827.63137,84.09744 z"/>

<path d="M-3823.63137,586.4607 L-3823.63137,84.09744"/>

<path d="M-3691.63137,586.4607 L-3691.63137,84.09744"/>

<line x1="-3827.63137" y1="109.2156" x2="-3687.63137" y2="109.2156"/>

<line x1="-3827.63137" y1="134.33377" x2="-3687.63137" y2="134.33377"/>

<line x1="-3827.63137" y1="159.45193" x2="-3687.63137" y2="159.45193"/>

<line x1="-3827.63137" y1="184.57009" x2="-3687.63137" y2="184.57009"/>

<line x1="-3827.63137" y1="209.68826" x2="-3687.63137" y2="209.68826"/>

<line x1="-3827.63137" y1="234.80642" x2="-3687.63137" y2="234.80642"/>

<line x1="-3827.63137" y1="259.92458" x2="-3687.63137" y2="259.92458"/>

<line x1="-3827.63137" y1="285.04274" x2="-3687.63137" y2="285.04274"/>

<line x1="-3827.63137" y1="310.16091" x2="-3687.63137" y2="310.16091"/>

<line x1="-3827.63137" y1="335.27907" x2="-3687.63137" y2="335.27907"/>

<line x1="-3827.63137" y1="360.39723" x2="-3687.63137" y2="360.39723"/>

<line x1="-3827.63137" y1="385.5154" x2="-3687.63137" y2="385.5154"/>

<line x1="-3827.63137" y1="410.63356" x2="-3687.63137" y2="410.63356"/>

<line x1="-3827.63137" y1="435.75172" x2="-3687.63137" y2="435.75172"/>

<line x1="-3827.63137" y1="460.86989" x2="-3687.63137" y2="460.86989"/>

<line x1="-3827.63137" y1="485.98805" x2="-3687.63137" y2="485.98805"/>

<line x1="-3827.63137" y1="511.10621" x2="-3687.63137" y2="511.10621"/>

<line x1="-3827.63137" y1="536.22437" x2="-3687.63137" y2="536.22437"/>

<line x1="-3827.63137" y1="561.34254" x2="-3687.63137" y2="561.34254"/>

<line x1="-3757.63137" y1="586.4607" x2="-3757.63137" y2="84.09744"/>

<line x1="-3767.63137" y1="99.09744" x2="-3757.63137" y2="84.09744"/>

<line x1="-3747.63137" y1="99.09744" x2="-3757.63137" y2="84.09744"/>
</g><g transform="translate(0,0.53153) scale(0.49953) translate(5650.0253,1968.5293)" stroke="#ffffff" stroke-width="0.60056" opacity="1" fill="none">
<path d="M-4096.84394,679.194 L-4096.84394,619.194 -4066.84394,619.194 -4066.84394,679.194 -4095.34394,679.194 -4095.34394,677.694 -4068.34394,677.694 -4068.34394,620.694 -4095.34394,620.694 -4095.34394,679.194 z" fill="#ffffff" stroke="none"/>
</g><g transform="translate(0,0.53153) scale(0.49953) translate(5650.0253,1968.5293)" stroke="#ff0001" stroke-width="0.60056" opacity="1" fill="none">
<path d="M-4095.34394,677.694 L-4095.34394,620.694 -4068.34394,620.694 -4068.34394,677.694 z" fill="#ff0001" stroke="none"/>
</g><g transform="translate(0,0.53153) scale(0.49953) translate(5650.0253,1968.5293)" stroke="#ffffff" stroke-width="0.60056" opacity="1" fill="none">
<path d="M-4092.34394,666.28246 L-4078.67294,666.28246 -4078.67294,667.63288 -4075.79594,669.291 -4075.79594,666.28246 -4073.23394,666.28246 -4071.34394,668.45339 -4071.34394,658.35084 -4072.77194,657.08588 -4072.77194,655.15426 -4071.34394,656.62435 -4071.34394,654.197 -4073.27594,652.197 -4092.34394,652.197 z" fill="#ffffff" stroke="none"/>
</g><g transform="translate(0,0.53153) scale(0.49953) translate(5650.0253,1968.5293)" stroke="#ff0001" stroke-width="0.60056" opacity="1" fill="none">
<path d="M-4087.63994,657.23973 L-4087.63994,663.41066 -4084.21694,665.44485 -4083.50294,664.28246 -4086.29594,662.60725 -4086.29594,659.95768 -4082.51594,661.95767 -4078.10594,662.77819 -4078.10594,667.23972 -4076.40494,668.26536 -4076.40494,661.34229 -4081.19294,660.36793 -4073.31794,656.52178 -4073.31794,654.59016 -4081.99094,658.77819 -4085.20394,656.94913 -4083.04094,654.89785 -4083.04094,652.197 -4084.42694,652.197 -4084.42694,654.31666 z" fill="#ff0001" stroke="none"/>

<ellipse cx="-4089.59302" cy="657.01752" rx="1.638" ry="1.638" fill="#ff0001"/>
</g><g transform="translate(0,0.53153) scale(0.49953) translate(5650.0253,1968.5293)" stroke="#ffffff" stroke-width="0.60056" opacity="1" fill="none">
<path d="M-4073.44399,640.92805 L-4073.44394,629.097 -4085.27499,629.09705 -4090.24394,634.066 -4081.80418,634.14456 -4090.03101,642.37138 -4086.71832,645.68407 -4078.4915,637.45724 -4078.41294,645.897 z" fill="#ffffff" stroke="none"/>
</g><g transform="translate(0,0.53153) scale(0.49953) translate(611.7706,792.39859) rotate(90) translate(0,100)" stroke="#000000" stroke-width="0.60056" opacity="1" fill="none">
<text y="-20" font-size="100" stroke="none" fill="#8800cc" text-anchor="middle">Parking</text>

<text y="-120" font-size="100" stroke="none" fill="#8800cc" text-anchor="middle">Two Wheeler </text>
</g><g transform="translate(0,0.53153) scale(0.49953) translate(553.17685,202.68041) rotate(180) translate(0,50)" stroke="#000000" stroke-width="0.60056" opacity="1" fill="none">
<text y="-20" font-size="100" stroke="none" fill="#8800cc" text-anchor="middle">Car Parking</text>
</g><g transform="translate(0,0.53153) scale(0.49953) translate(1431.12529,202.68041) rotate(-180) translate(0,50)" stroke="#000000" stroke-width="0.60056" opacity="1" fill="none">
<text y="-20" font-size="100" stroke="none" fill="#8800cc" text-anchor="middle">Car Parking</text>
</g><g transform="translate(0,0.53153) scale(0.49953) translate(1598.43571,792.39859) rotate(-90) translate(0,50)" stroke="#000000" stroke-width="0.60056" opacity="1" fill="none">
<text y="-20" font-size="100" stroke="none" fill="#8800cc" text-anchor="middle">Car Parking</text>
</g><g transform="translate(0,0.53153) scale(0.49953) translate(1598.43571,3222.98579) rotate(-90) translate(0,50)" stroke="#000000" stroke-width="0.60056" opacity="1" fill="none">
<text y="-20" font-size="100" stroke="none" fill="#8800cc" text-anchor="middle">Car Parking</text>
</g><g transform="translate(0,0.53153) scale(0.49953) translate(1562.43571,3868.83968)" stroke="#000000" stroke-width="0.60056" opacity="1" fill="none">
<text y="-20" font-size="100" stroke="none" fill="#8800cc" text-anchor="middle">Car Parking</text>
</g><g transform="translate(0,0.53153) scale(0.49953) translate(553.17685,3868.83968)" stroke="#000000" stroke-width="0.60056" opacity="1" fill="none">
<text y="-20" font-size="100" stroke="none" fill="#8800cc" text-anchor="middle">Car Parking</text>
</g><g transform="translate(0,0.53153) scale(0.49953) translate(515.38388,3262.98579) rotate(90) translate(0,100)" stroke="#000000" stroke-width="0.60056" opacity="1" fill="none">
<text y="-20" font-size="100" stroke="none" fill="#8800cc" text-anchor="middle">Parking</text>

<text y="-120" font-size="100" stroke="none" fill="#8800cc" text-anchor="middle">Two Wheeler </text>
</g><g transform="translate(0,0.53153) scale(0.49953) translate(1792.73975,2638.10947)" stroke="#000000" stroke-width="0.60056" opacity="1" fill="none">
<text y="-8" font-size="41" stroke="none" fill="#8800cc" text-anchor="middle">Way to stairs</text>
</g><g transform="translate(0,0.53153) scale(0.49953) translate(1792.73975,1430.26112)" stroke="#000000" stroke-width="0.60056" opacity="1" fill="none">
<text y="-8" font-size="41" stroke="none" fill="#8800cc" text-anchor="middle">Way to stairs</text>
</g><g transform="translate(0,0.53153) scale(0.49953) translate(1454.79162,2638.10947)" stroke="#000000" stroke-width="0.60056" opacity="1" fill="none">
<text y="-8" font-size="41" stroke="none" fill="#8800cc" text-anchor="middle">Fire Exit</text>
</g><g transform="translate(0,0.53153) scale(0.49953) translate(1327.01808,2457.7904) rotate(90) translate(0,6.5)" stroke="#000000" stroke-width="0.60056" opacity="1" fill="none">
<text y="-2" font-size="13" stroke="none" fill="#8800cc" text-anchor="middle">Fire Hose Door</text>
</g><g transform="translate(0,0.53153) scale(0.49953) translate(456.79013,2008.29242) rotate(90) translate(0,50)" stroke="#000000" stroke-width="0.60056" opacity="1" fill="none">
<text y="-20" font-size="100" stroke="none" fill="#8800cc" text-anchor="middle">Reception</text>
</g><g transform="translate(0,0.53153) scale(0.49953) translate(1414.79162,1928.1036)" stroke="#000000" stroke-width="0.60056" opacity="1" fill="none">
<text y="-6" font-size="31" stroke="none" fill="#8800cc" text-anchor="middle">Lift 1</text>
</g><g transform="translate(0,0.53153) scale(0.49953) translate(1414.79162,2155.68774)" stroke="#000000" stroke-width="0.60056" opacity="1" fill="none">
<text y="-6" font-size="31" stroke="none" fill="#8800cc" text-anchor="middle">Lift 2</text>
</g><g transform="translate(0,0.53153) scale(0.49953) translate(5650.0253,1968.5293)" stroke="#006600" stroke-width="1.80169" opacity="1" fill="none">
<line x1="-5629.7753" y1="-1960.2793" x2="-3640.376" y2="-1960.2793"/>
</g><g transform="translate(0,0.53153) scale(0.49953) translate(5650.0253,1968.5293)" stroke="#ffffff" stroke-width="0.60056" opacity="1" fill="none">
<line x1="-5629.7753" y1="-1960.2793" x2="-3640.376" y2="-1960.2793"/>
</g><g transform="translate(0,0.53153) scale(0.49953) translate(5650.0253,1968.5293)" stroke="#006600" stroke-width="1.80169" opacity="1" fill="none">
<line x1="-5627.2753" y1="-1950.2793" x2="-5627.2753" y2="-1962.7793"/>
</g><g transform="translate(0,0.53153) scale(0.49953) translate(5650.0253,1968.5293)" stroke="#ffffff" stroke-width="0.60056" opacity="1" fill="none">
<line x1="-5627.2753" y1="-1950.2793" x2="-5627.2753" y2="-1962.7793"/>
</g><g transform="translate(0,0.53153) scale(0.49953) translate(5650.0253,1968.5293)" stroke="#006600" stroke-width="1.80169" opacity="1" fill="none">
<line x1="-5628.5253" y1="-1961.5293" x2="-5626.0253" y2="-1959.0293"/>
</g><g transform="translate(0,0.53153) scale(0.49953) translate(5650.0253,1968.5293)" stroke="#ffffff" stroke-width="0.60056" opacity="1" fill="none">
<line x1="-5628.5253" y1="-1961.5293" x2="-5626.0253" y2="-1959.0293"/>
</g><g transform="translate(0,0.53153) scale(0.49953) translate(5650.0253,1968.5293)" stroke="#006600" stroke-width="1.80169" opacity="1" fill="none">
<line x1="-5612.03535" y1="-1950.2793" x2="-5612.03535" y2="-1962.7793"/>
</g><g transform="translate(0,0.53153) scale(0.49953) translate(5650.0253,1968.5293)" stroke="#ffffff" stroke-width="0.60056" opacity="1" fill="none">
<line x1="-5612.03535" y1="-1950.2793" x2="-5612.03535" y2="-1962.7793"/>
</g><g transform="translate(0,0.53153) scale(0.49953) translate(5650.0253,1968.5293)" stroke="#006600" stroke-width="1.80169" opacity="1" fill="none">
<line x1="-5613.28535" y1="-1961.5293" x2="-5610.78535" y2="-1959.0293"/>
</g><g transform="translate(0,0.53153) scale(0.49953) translate(5650.0253,1968.5293)" stroke="#ffffff" stroke-width="0.60056" opacity="1" fill="none">
<line x1="-5613.28535" y1="-1961.5293" x2="-5610.78535" y2="-1959.0293"/>
</g><g transform="translate(0,0.53153) scale(0.49953) translate(30.36998,7)" stroke="#ffffff" stroke-width="0.60056" opacity="1" fill="none">
<text y="-1" font-size="5" stroke="black" stroke-width="0.30028" fill="white" text-anchor="middle">0.2</text>
</g><g transform="translate(0,0.53153) scale(0.49953) translate(5650.0253,1968.5293)" stroke="#006600" stroke-width="1.80169" opacity="1" fill="none">
<line x1="-3658.11604" y1="-1950.2793" x2="-3658.11604" y2="-1962.7793"/>
</g><g transform="translate(0,0.53153) scale(0.49953) translate(5650.0253,1968.5293)" stroke="#ffffff" stroke-width="0.60056" opacity="1" fill="none">
<line x1="-3658.11604" y1="-1950.2793" x2="-3658.11604" y2="-1962.7793"/>
</g><g transform="translate(0,0.53153) scale(0.49953) translate(5650.0253,1968.5293)" stroke="#006600" stroke-width="1.80169" opacity="1" fill="none">
<line x1="-3659.36604" y1="-1961.5293" x2="-3656.86604" y2="-1959.0293"/>
</g><g transform="translate(0,0.53153) scale(0.49953) translate(5650.0253,1968.5293)" stroke="#ffffff" stroke-width="0.60056" opacity="1" fill="none">
<line x1="-3659.36604" y1="-1961.5293" x2="-3656.86604" y2="-1959.0293"/>
</g><g transform="translate(0,0.53153) scale(0.49953) translate(1014.94961,7)" stroke="#ffffff" stroke-width="0.60056" opacity="1" fill="none">
<text y="-1" font-size="5" stroke="black" stroke-width="0.30028" fill="white" text-anchor="middle">19.5</text>
</g><g transform="translate(0,0.53153) scale(0.49953) translate(5650.0253,1968.5293)" stroke="#006600" stroke-width="1.80169" opacity="1" fill="none">
<line x1="-3642.876" y1="-1950.2793" x2="-3642.876" y2="-1962.7793"/>
</g><g transform="translate(0,0.53153) scale(0.49953) translate(5650.0253,1968.5293)" stroke="#ffffff" stroke-width="0.60056" opacity="1" fill="none">
<line x1="-3642.876" y1="-1950.2793" x2="-3642.876" y2="-1962.7793"/>
</g><g transform="translate(0,0.53153) scale(0.49953) translate(5650.0253,1968.5293)" stroke="#006600" stroke-width="1.80169" opacity="1" fill="none">
<line x1="-3644.126" y1="-1961.5293" x2="-3641.626" y2="-1959.0293"/>
</g><g transform="translate(0,0.53153) scale(0.49953) translate(5650.0253,1968.5293)" stroke="#ffffff" stroke-width="0.60056" opacity="1" fill="none">
<line x1="-3644.126" y1="-1961.5293" x2="-3641.626" y2="-1959.0293"/>
</g><g transform="translate(0,0.53153) scale(0.49953) translate(1999.52928,7)" stroke="#ffffff" stroke-width="0.60056" opacity="1" fill="none">
<text y="-1" font-size="5" stroke="black" stroke-width="0.30028" fill="white" text-anchor="middle">0.2</text>
</g><g transform="translate(0,0.53153) scale(0.49953) translate(5650.0253,1968.5293)" stroke="#006600" stroke-width="1.80169" opacity="1" fill="none">
<line x1="-5629.7753" y1="2094.9043" x2="-3640.376" y2="2094.9043"/>
</g><g transform="translate(0,0.53153) scale(0.49953) translate(5650.0253,1968.5293)" stroke="#ffffff" stroke-width="0.60056" opacity="1" fill="none">
<line x1="-5629.7753" y1="2094.9043" x2="-3640.376" y2="2094.9043"/>
</g><g transform="translate(0,0.53153) scale(0.49953) translate(5650.0253,1968.5293)" stroke="#006600" stroke-width="1.80169" opacity="1" fill="none">
<line x1="-5627.2753" y1="2084.9043" x2="-5627.2753" y2="2097.4043"/>
</g><g transform="translate(0,0.53153) scale(0.49953) translate(5650.0253,1968.5293)" stroke="#ffffff" stroke-width="0.60056" opacity="1" fill="none">
<line x1="-5627.2753" y1="2084.9043" x2="-5627.2753" y2="2097.4043"/>
</g><g transform="translate(0,0.53153) scale(0.49953) translate(5650.0253,1968.5293)" stroke="#006600" stroke-width="1.80169" opacity="1" fill="none">
<line x1="-5628.5253" y1="2093.6543" x2="-5626.0253" y2="2096.1543"/>
</g><g transform="translate(0,0.53153) scale(0.49953) translate(5650.0253,1968.5293)" stroke="#ffffff" stroke-width="0.60056" opacity="1" fill="none">
<line x1="-5628.5253" y1="2093.6543" x2="-5626.0253" y2="2096.1543"/>
</g><g transform="translate(0,0.53153) scale(0.49953) translate(5650.0253,1968.5293)" stroke="#006600" stroke-width="1.80169" opacity="1" fill="none">
<line x1="-5612.03535" y1="2084.9043" x2="-5612.03535" y2="2097.4043"/>
</g><g transform="translate(0,0.53153) scale(0.49953) translate(5650.0253,1968.5293)" stroke="#ffffff" stroke-width="0.60056" opacity="1" fill="none">
<line x1="-5612.03535" y1="2084.9043" x2="-5612.03535" y2="2097.4043"/>
</g><g transform="translate(0,0.53153) scale(0.49953) translate(5650.0253,1968.5293)" stroke="#006600" stroke-width="1.80169" opacity="1" fill="none">
<line x1="-5613.28535" y1="2093.6543" x2="-5610.78535" y2="2096.1543"/>
</g><g transform="translate(0,0.53153) scale(0.49953) translate(5650.0253,1968.5293)" stroke="#ffffff" stroke-width="0.60056" opacity="1" fill="none">
<line x1="-5613.28535" y1="2093.6543" x2="-5610.78535" y2="2096.1543"/>
</g><g transform="translate(0,0.53153) scale(0.49953) translate(30.36998,4062.1836)" stroke="#ffffff" stroke-width="0.60056" opacity="1" fill="none">
<text y="-1" font-size="5" stroke="black" stroke-width="0.30028" fill="white" text-anchor="middle">0.2</text>
</g><g transform="translate(0,0.53153) scale(0.49953) translate(5650.0253,1968.5293)" stroke="#006600" stroke-width="1.80169" opacity="1" fill="none">
<line x1="-3658.11604" y1="2084.9043" x2="-3658.11604" y2="2097.4043"/>
</g><g transform="translate(0,0.53153) scale(0.49953) translate(5650.0253,1968.5293)" stroke="#ffffff" stroke-width="0.60056" opacity="1" fill="none">
<line x1="-3658.11604" y1="2084.9043" x2="-3658.11604" y2="2097.4043"/>
</g><g transform="translate(0,0.53153) scale(0.49953) translate(5650.0253,1968.5293)" stroke="#006600" stroke-width="1.80169" opacity="1" fill="none">
<line x1="-3659.36604" y1="2093.6543" x2="-3656.86604" y2="2096.1543"/>
</g><g transform="translate(0,0.53153) scale(0.49953) translate(5650.0253,1968.5293)" stroke="#ffffff" stroke-width="0.60056" opacity="1" fill="none">
<line x1="-3659.36604" y1="2093.6543" x2="-3656.86604" y2="2096.1543"/>
</g><g transform="translate(0,0.53153) scale(0.49953) translate(1014.94961,4062.1836)" stroke="#ffffff" stroke-width="0.60056" opacity="1" fill="none">
<text y="-1" font-size="5" stroke="black" stroke-width="0.30028" fill="white" text-anchor="middle">19.5</text>
</g><g transform="translate(0,0.53153) scale(0.49953) translate(5650.0253,1968.5293)" stroke="#006600" stroke-width="1.80169" opacity="1" fill="none">
<line x1="-3642.876" y1="2084.9043" x2="-3642.876" y2="2097.4043"/>
</g><g transform="translate(0,0.53153) scale(0.49953) translate(5650.0253,1968.5293)" stroke="#ffffff" stroke-width="0.60056" opacity="1" fill="none">
<line x1="-3642.876" y1="2084.9043" x2="-3642.876" y2="2097.4043"/>
</g><g transform="translate(0,0.53153) scale(0.49953) translate(5650.0253,1968.5293)" stroke="#006600" stroke-width="1.80169" opacity="1" fill="none">
<line x1="-3644.126" y1="2093.6543" x2="-3641.626" y2="2096.1543"/>
</g><g transform="translate(0,0.53153) scale(0.49953) translate(5650.0253,1968.5293)" stroke="#ffffff" stroke-width="0.60056" opacity="1" fill="none">
<line x1="-3644.126" y1="2093.6543" x2="-3641.626" y2="2096.1543"/>
</g><g transform="translate(0,0.53153) scale(0.49953) translate(1999.52928,4062.1836)" stroke="#ffffff" stroke-width="0.60056" opacity="1" fill="none">
<text y="-1" font-size="5" stroke="black" stroke-width="0.30028" fill="white" text-anchor="middle">0.2</text>
</g><g transform="translate(0,0.53153) scale(0.49953) translate(5650.0253,1968.5293)" stroke="#006600" stroke-width="1.80169" opacity="1" fill="none">
<line x1="-5641.7753" y1="-1948.2793" x2="-5641.7753" y2="2082.9043"/>
</g><g transform="translate(0,0.53153) scale(0.49953) translate(5650.0253,1968.5293)" stroke="#ffffff" stroke-width="0.60056" opacity="1" fill="none">
<line x1="-5641.7753" y1="-1948.2793" x2="-5641.7753" y2="2082.9043"/>
</g><g transform="translate(0,0.53153) scale(0.49953) translate(5650.0253,1968.5293)" stroke="#006600" stroke-width="1.80169" opacity="1" fill="none">
<line x1="-5631.7753" y1="-1945.7793" x2="-5644.2753" y2="-1945.7793"/>
</g><g transform="translate(0,0.53153) scale(0.49953) translate(5650.0253,1968.5293)" stroke="#ffffff" stroke-width="0.60056" opacity="1" fill="none">
<line x1="-5631.7753" y1="-1945.7793" x2="-5644.2753" y2="-1945.7793"/>
</g><g transform="translate(0,0.53153) scale(0.49953) translate(5650.0253,1968.5293)" stroke="#006600" stroke-width="1.80169" opacity="1" fill="none">
<line x1="-5640.5253" y1="-1947.0293" x2="-5643.0253" y2="-1944.5293"/>
</g><g transform="translate(0,0.53153) scale(0.49953) translate(5650.0253,1968.5293)" stroke="#ffffff" stroke-width="0.60056" opacity="1" fill="none">
<line x1="-5640.5253" y1="-1947.0293" x2="-5643.0253" y2="-1944.5293"/>
</g><g transform="translate(0,0.53153) scale(0.49953) translate(5650.0253,1968.5293)" stroke="#006600" stroke-width="1.80169" opacity="1" fill="none">
<line x1="-5631.7753" y1="-1930.5393" x2="-5644.2753" y2="-1930.5393"/>
</g><g transform="translate(0,0.53153) scale(0.49953) translate(5650.0253,1968.5293)" stroke="#ffffff" stroke-width="0.60056" opacity="1" fill="none">
<line x1="-5631.7753" y1="-1930.5393" x2="-5644.2753" y2="-1930.5393"/>
</g><g transform="translate(0,0.53153) scale(0.49953) translate(5650.0253,1968.5293)" stroke="#006600" stroke-width="1.80169" opacity="1" fill="none">
<line x1="-5640.5253" y1="-1931.7893" x2="-5643.0253" y2="-1929.2893"/>
</g><g transform="translate(0,0.53153) scale(0.49953) translate(5650.0253,1968.5293)" stroke="#ffffff" stroke-width="0.60056" opacity="1" fill="none">
<line x1="-5640.5253" y1="-1931.7893" x2="-5643.0253" y2="-1929.2893"/>
</g><g transform="translate(0,0.53153) scale(0.49953) translate(2,30.37) rotate(270) translate(0,5)" stroke="#ffffff" stroke-width="0.60056" opacity="1" fill="none">
<text y="-1" font-size="5" stroke="black" stroke-width="0.30028" fill="white" text-anchor="middle">0.2</text>
</g><g transform="translate(0,0.53153) scale(0.49953) translate(5650.0253,1968.5293)" stroke="#006600" stroke-width="1.80169" opacity="1" fill="none">
<line x1="-5631.7753" y1="2065.16426" x2="-5644.2753" y2="2065.16426"/>
</g><g transform="translate(0,0.53153) scale(0.49953) translate(5650.0253,1968.5293)" stroke="#ffffff" stroke-width="0.60056" opacity="1" fill="none">
<line x1="-5631.7753" y1="2065.16426" x2="-5644.2753" y2="2065.16426"/>
</g><g transform="translate(0,0.53153) scale(0.49953) translate(5650.0253,1968.5293)" stroke="#006600" stroke-width="1.80169" opacity="1" fill="none">
<line x1="-5640.5253" y1="2063.91426" x2="-5643.0253" y2="2066.41426"/>
</g><g transform="translate(0,0.53153) scale(0.49953) translate(5650.0253,1968.5293)" stroke="#ffffff" stroke-width="0.60056" opacity="1" fill="none">
<line x1="-5640.5253" y1="2063.91426" x2="-5643.0253" y2="2066.41426"/>
</g><g transform="translate(0,0.53153) scale(0.49953) translate(2,2035.84178) rotate(270) translate(0,5)" stroke="#ffffff" stroke-width="0.60056" opacity="1" fill="none">
<text y="-1" font-size="5" stroke="black" stroke-width="0.30028" fill="white" text-anchor="middle">40</text>
</g><g transform="translate(0,0.53153) scale(0.49953) translate(5650.0253,1968.5293)" stroke="#006600" stroke-width="1.80169" opacity="1" fill="none">
<line x1="-5631.7753" y1="2080.4043" x2="-5644.2753" y2="2080.4043"/>
</g><g transform="translate(0,0.53153) scale(0.49953) translate(5650.0253,1968.5293)" stroke="#ffffff" stroke-width="0.60056" opacity="1" fill="none">
<line x1="-5631.7753" y1="2080.4043" x2="-5644.2753" y2="2080.4043"/>
</g><g transform="translate(0,0.53153) scale(0.49953) translate(5650.0253,1968.5293)" stroke="#006600" stroke-width="1.80169" opacity="1" fill="none">
<line x1="-5640.5253" y1="2079.1543" x2="-5643.0253" y2="2081.6543"/>
</g><g transform="translate(0,0.53153) scale(0.49953) translate(5650.0253,1968.5293)" stroke="#ffffff" stroke-width="0.60056" opacity="1" fill="none">
<line x1="-5640.5253" y1="2079.1543" x2="-5643.0253" y2="2081.6543"/>
</g><g transform="translate(0,0.53153) scale(0.49953) translate(2,4041.31358) rotate(270) translate(0,5)" stroke="#ffffff" stroke-width="0.60056" opacity="1" fill="none">
<text y="-1" font-size="5" stroke="black" stroke-width="0.30028" fill="white" text-anchor="middle">0.2</text>
</g><g transform="translate(0,0.53153) scale(0.49953) translate(5650.0253,1968.5293)" stroke="#006600" stroke-width="1.80169" opacity="1" fill="none">
<line x1="-3628.376" y1="-1948.2793" x2="-3628.376" y2="2082.9043"/>
</g><g transform="translate(0,0.53153) scale(0.49953) translate(5650.0253,1968.5293)" stroke="#ffffff" stroke-width="0.60056" opacity="1" fill="none">
<line x1="-3628.376" y1="-1948.2793" x2="-3628.376" y2="2082.9043"/>
</g><g transform="translate(0,0.53153) scale(0.49953) translate(5650.0253,1968.5293)" stroke="#006600" stroke-width="1.80169" opacity="1" fill="none">
<line x1="-3638.376" y1="-1945.7793" x2="-3625.876" y2="-1945.7793"/>
</g><g transform="translate(0,0.53153) scale(0.49953) translate(5650.0253,1968.5293)" stroke="#ffffff" stroke-width="0.60056" opacity="1" fill="none">
<line x1="-3638.376" y1="-1945.7793" x2="-3625.876" y2="-1945.7793"/>
</g><g transform="translate(0,0.53153) scale(0.49953) translate(5650.0253,1968.5293)" stroke="#006600" stroke-width="1.80169" opacity="1" fill="none">
<line x1="-3627.126" y1="-1947.0293" x2="-3629.626" y2="-1944.5293"/>
</g><g transform="translate(0,0.53153) scale(0.49953) translate(5650.0253,1968.5293)" stroke="#ffffff" stroke-width="0.60056" opacity="1" fill="none">
<line x1="-3627.126" y1="-1947.0293" x2="-3629.626" y2="-1944.5293"/>
</g><g transform="translate(0,0.53153) scale(0.49953) translate(5650.0253,1968.5293)" stroke="#006600" stroke-width="1.80169" opacity="1" fill="none">
<line x1="-3638.376" y1="-1930.5393" x2="-3625.876" y2="-1930.5393"/>
</g><g transform="translate(0,0.53153) scale(0.49953) translate(5650.0253,1968.5293)" stroke="#ffffff" stroke-width="0.60056" opacity="1" fill="none">
<line x1="-3638.376" y1="-1930.5393" x2="-3625.876" y2="-1930.5393"/>
</g><g transform="translate(0,0.53153) scale(0.49953) translate(5650.0253,1968.5293)" stroke="#006600" stroke-width="1.80169" opacity="1" fill="none">
<line x1="-3627.126" y1="-1931.7893" x2="-3629.626" y2="-1929.2893"/>
</g><g transform="translate(0,0.53153) scale(0.49953) translate(5650.0253,1968.5293)" stroke="#ffffff" stroke-width="0.60056" opacity="1" fill="none">
<line x1="-3627.126" y1="-1931.7893" x2="-3629.626" y2="-1929.2893"/>
</g><g transform="translate(0,0.53153) scale(0.49953) translate(2015.3993,30.37) rotate(270) translate(0,5)" stroke="#ffffff" stroke-width="0.60056" opacity="1" fill="none">
<text y="-1" font-size="5" stroke="black" stroke-width="0.30028" fill="white" text-anchor="middle">0.2</text>
</g><g transform="translate(0,0.53153) scale(0.49953) translate(5650.0253,1968.5293)" stroke="#006600" stroke-width="1.80169" opacity="1" fill="none">
<line x1="-3638.376" y1="2065.16426" x2="-3625.876" y2="2065.16426"/>
</g><g transform="translate(0,0.53153) scale(0.49953) translate(5650.0253,1968.5293)" stroke="#ffffff" stroke-width="0.60056" opacity="1" fill="none">
<line x1="-3638.376" y1="2065.16426" x2="-3625.876" y2="2065.16426"/>
</g><g transform="translate(0,0.53153) scale(0.49953) translate(5650.0253,1968.5293)" stroke="#006600" stroke-width="1.80169" opacity="1" fill="none">
<line x1="-3627.126" y1="2063.91426" x2="-3629.626" y2="2066.41426"/>
</g><g transform="translate(0,0.53153) scale(0.49953) translate(5650.0253,1968.5293)" stroke="#ffffff" stroke-width="0.60056" opacity="1" fill="none">
<line x1="-3627.126" y1="2063.91426" x2="-3629.626" y2="2066.41426"/>
</g><g transform="translate(0,0.53153) scale(0.49953) translate(2015.3993,2035.84178) rotate(270) translate(0,5)" stroke="#ffffff" stroke-width="0.60056" opacity="1" fill="none">
<text y="-1" font-size="5" stroke="black" stroke-width="0.30028" fill="white" text-anchor="middle">40</text>
</g><g transform="translate(0,0.53153) scale(0.49953) translate(5650.0253,1968.5293)" stroke="#006600" stroke-width="1.80169" opacity="1" fill="none">
<line x1="-3638.376" y1="2080.4043" x2="-3625.876" y2="2080.4043"/>
</g><g transform="translate(0,0.53153) scale(0.49953) translate(5650.0253,1968.5293)" stroke="#ffffff" stroke-width="0.60056" opacity="1" fill="none">
<line x1="-3638.376" y1="2080.4043" x2="-3625.876" y2="2080.4043"/>
</g><g transform="translate(0,0.53153) scale(0.49953) translate(5650.0253,1968.5293)" stroke="#006600" stroke-width="1.80169" opacity="1" fill="none">
<line x1="-3627.126" y1="2079.1543" x2="-3629.626" y2="2081.6543"/>
</g><g transform="translate(0,0.53153) scale(0.49953) translate(5650.0253,1968.5293)" stroke="#ffffff" stroke-width="0.60056" opacity="1" fill="none">
<line x1="-3627.126" y1="2079.1543" x2="-3629.626" y2="2081.6543"/>
</g><g transform="translate(0,0.53153) scale(0.49953) translate(2015.3993,4041.31358) rotate(270) translate(0,5)" stroke="#ffffff" stroke-width="0.60056" opacity="1" fill="none">
<text y="-1" font-size="5" stroke="black" stroke-width="0.30028" fill="white" text-anchor="middle">0.2</text></g></g>
</svg>